0
SECTION
2
HEADER
9
$INSUNITS
70
4
0
ENDSEC
0
SECTION
2
TABLES
0
TABLE
2
LTYPE
0
LTYPE
72
65
70
64
2
CONTINUOUS
3
______
73
0
40
0
0
ENDTAB
0
TABLE
2
LAYER
0
ENDTAB
0
ENDSEC
0
SECTION
2
ENTITIES
0
LINE
8
0
10
92.5007547
20
-89.7159677
11
110.2840323
21
-92.5007547
0
LINE
8
0
10
110.2840323
20
-92.5007547
11
107.4992453
21
-110.2840323
0
LINE
8
0
10
107.4992453
20
-110.2840323
11
89.7159677
21
-107.4992453
0
LINE
8
0
10
89.7159677
20
-107.4992453
11
92.5007547
21
-89.7159677
0
LINE
8
0
10
95.2855417
20
-71.9326901
11
113.0688193
21
-74.7174771
0
LINE
8
0
10
113.0688193
20
-74.7174771
11
110.2840323
21
-92.5007547
0
LINE
8
0
10
110.2840323
20
-92.5007547
11
92.5007547
21
-89.7159677
0
LINE
8
0
10
92.5007547
20
-89.7159677
11
95.2855417
21
-71.9326901
0
LINE
8
0
10
98.0703287
20
-54.1494125
11
115.8536063
21
-56.9341995
0
LINE
8
0
10
115.8536063
20
-56.9341995
11
113.0688193
21
-74.7174771
0
LINE
8
0
10
113.0688193
20
-74.7174771
11
95.2855417
21
-71.9326901
0
LINE
8
0
10
95.2855417
20
-71.9326901
11
98.0703287
21
-54.1494125
0
LINE
8
0
10
114.8434215
20
-76.924851
11
132.5965624
21
-79.8957079
0
LINE
8
0
10
132.5965624
20
-79.8957079
11
129.6257055
21
-97.6488488
0
LINE
8
0
10
129.6257055
20
-97.6488488
11
111.8725646
21
-94.6779919
0
LINE
8
0
10
111.8725646
20
-94.6779919
11
114.8434215
21
-76.924851
0
LINE
8
0
10
117.8142784
20
-59.1717102
11
135.5674193
21
-62.1425671
0
LINE
8
0
10
135.5674193
20
-62.1425671
11
132.5965624
21
-79.895708
0
LINE
8
0
10
132.5965624
20
-79.895708
11
114.8434215
21
-76.9248511
0
LINE
8
0
10
114.8434215
20
-76.9248511
11
117.8142784
21
-59.1717102
0
LINE
8
0
10
120.7851353
20
-41.4185694
11
138.5382762
21
-44.3894263
0
LINE
8
0
10
138.5382762
20
-44.3894263
11
135.5674193
21
-62.1425672
0
LINE
8
0
10
135.5674193
20
-62.1425672
11
117.8142784
21
-59.1717103
0
LINE
8
0
10
117.8142784
20
-59.1717103
11
120.7851353
21
-41.4185694
0
LINE
8
0
10
137.1294123
20
-73.0494015
11
153.0076959
21
-81.5276153
0
LINE
8
0
10
153.0076959
20
-81.5276153
11
144.5294821
21
-97.4058989
0
LINE
8
0
10
144.5294821
20
-97.4058989
11
128.6511985
21
-88.9276851
0
LINE
8
0
10
128.6511985
20
-88.9276851
11
137.1294123
21
-73.0494015
0
LINE
8
0
10
145.6076262
20
-57.1711179
11
161.4859098
21
-65.6493317
0
LINE
8
0
10
161.4859098
20
-65.6493317
11
153.007696
21
-81.5276153
0
LINE
8
0
10
153.007696
20
-81.5276153
11
137.1294124
21
-73.0494015
0
LINE
8
0
10
137.1294124
20
-73.0494015
11
145.6076262
21
-57.1711179
0
LINE
8
0
10
154.0858401
20
-41.2928343
11
169.9641237
21
-49.7710481
0
LINE
8
0
10
169.9641237
20
-49.7710481
11
161.4859099
21
-65.6493317
0
LINE
8
0
10
161.4859099
20
-65.6493317
11
145.6076263
21
-57.1711179
0
LINE
8
0
10
145.6076263
20
-57.1711179
11
154.0858401
21
-41.2928343
0
LINE
8
0
10
146.22267
20
-92.318804
11
164.120753
21
-90.4060508
0
LINE
8
0
10
164.120753
20
-90.4060508
11
166.0335062
21
-108.3041338
0
LINE
8
0
10
166.0335062
20
-108.3041338
11
148.1354232
21
-110.216887
0
LINE
8
0
10
148.1354232
20
-110.216887
11
146.22267
21
-92.318804
0
LINE
8
0
10
144.3099167
20
-74.420721
11
162.2079997
21
-72.5079678
0
LINE
8
0
10
162.2079997
20
-72.5079678
11
164.1207529
21
-90.4060508
0
LINE
8
0
10
164.1207529
20
-90.4060508
11
146.2226699
21
-92.318804
0
LINE
8
0
10
146.2226699
20
-92.318804
11
144.3099167
21
-74.420721
0
LINE
8
0
10
142.3971634
20
-56.522638
11
160.2952464
21
-54.6098848
0
LINE
8
0
10
160.2952464
20
-54.6098848
11
162.2079996
21
-72.5079678
0
LINE
8
0
10
162.2079996
20
-72.5079678
11
144.3099166
21
-74.420721
0
LINE
8
0
10
144.3099166
20
-74.420721
11
142.3971634
21
-56.522638
0
LINE
8
0
10
163.9969685
20
-97.7682248
11
181.5904546
21
-93.9643785
0
LINE
8
0
10
181.5904546
20
-93.9643785
11
185.3943009
21
-111.5578646
0
LINE
8
0
10
185.3943009
20
-111.5578646
11
167.8008148
21
-115.3617109
0
LINE
8
0
10
167.8008148
20
-115.3617109
11
163.9969685
21
-97.7682248
0
LINE
8
0
10
160.1931222
20
-80.1747387
11
177.7866083
21
-76.3708924
0
LINE
8
0
10
177.7866083
20
-76.3708924
11
181.5904546
21
-93.9643785
0
LINE
8
0
10
181.5904546
20
-93.9643785
11
163.9969685
21
-97.7682248
0
LINE
8
0
10
163.9969685
20
-97.7682248
11
160.1931222
21
-80.1747387
0
LINE
8
0
10
156.3892759
20
-62.5812526
11
173.982762
21
-58.7774063
0
LINE
8
0
10
173.982762
20
-58.7774063
11
177.7866083
21
-76.3708924
0
LINE
8
0
10
177.7866083
20
-76.3708924
11
160.1931222
21
-80.1747387
0
LINE
8
0
10
160.1931222
20
-80.1747387
11
156.3892759
21
-62.5812526
0
LINE
8
0
10
139.3266935
20
-128.8316185
11
157.2760259
21
-127.4820015
0
LINE
8
0
10
157.2760259
20
-127.4820015
11
158.6256429
21
-145.4313339
0
LINE
8
0
10
158.6256429
20
-145.4313339
11
140.6763105
21
-146.7809509
0
LINE
8
0
10
140.6763105
20
-146.7809509
11
139.3266935
21
-128.8316185
0
LINE
8
0
10
157.2760259
20
-127.4820015
11
175.2253583
21
-126.1323845
0
LINE
8
0
10
175.2253583
20
-126.1323845
11
176.5749753
21
-144.0817169
0
LINE
8
0
10
176.5749753
20
-144.0817169
11
158.6256429
21
-145.4313339
0
LINE
8
0
10
158.6256429
20
-145.4313339
11
157.2760259
21
-127.4820015
0
LINE
8
0
10
175.2253583
20
-126.1323843
11
193.1746907
21
-124.7827673
0
LINE
8
0
10
193.1746907
20
-124.7827673
11
194.5243077
21
-142.7320997
0
LINE
8
0
10
194.5243077
20
-142.7320997
11
176.5749753
21
-144.0817167
0
LINE
8
0
10
176.5749753
20
-144.0817167
11
175.2253583
21
-126.1323843
0
LINE
8
0
10
253.4995445
20
-92.5007547
11
271.2828221
21
-89.7159677
0
LINE
8
0
10
271.2828221
20
-89.7159677
11
274.0676091
21
-107.4992453
0
LINE
8
0
10
274.0676091
20
-107.4992453
11
256.2843315
21
-110.2840323
0
LINE
8
0
10
256.2843315
20
-110.2840323
11
253.4995445
21
-92.5007547
0
LINE
8
0
10
250.7147575
20
-74.7174771
11
268.4980351
21
-71.9326901
0
LINE
8
0
10
268.4980351
20
-71.9326901
11
271.2828221
21
-89.7159677
0
LINE
8
0
10
271.2828221
20
-89.7159677
11
253.4995445
21
-92.5007547
0
LINE
8
0
10
253.4995445
20
-92.5007547
11
250.7147575
21
-74.7174771
0
LINE
8
0
10
247.9299705
20
-56.9341995
11
265.7132481
21
-54.1494125
0
LINE
8
0
10
265.7132481
20
-54.1494125
11
268.4980351
21
-71.9326901
0
LINE
8
0
10
268.4980351
20
-71.9326901
11
250.7147575
21
-74.7174771
0
LINE
8
0
10
250.7147575
20
-74.7174771
11
247.9299705
21
-56.9341995
0
LINE
8
0
10
231.1870144
20
-79.8957079
11
248.9401553
21
-76.924851
0
LINE
8
0
10
248.9401553
20
-76.924851
11
251.9110122
21
-94.6779919
0
LINE
8
0
10
251.9110122
20
-94.6779919
11
234.1578713
21
-97.6488488
0
LINE
8
0
10
234.1578713
20
-97.6488488
11
231.1870144
21
-79.8957079
0
LINE
8
0
10
228.2161575
20
-62.1425671
11
245.9692984
21
-59.1717102
0
LINE
8
0
10
245.9692984
20
-59.1717102
11
248.9401553
21
-76.9248511
0
LINE
8
0
10
248.9401553
20
-76.9248511
11
231.1870144
21
-79.895708
0
LINE
8
0
10
231.1870144
20
-79.895708
11
228.2161575
21
-62.1425671
0
LINE
8
0
10
225.2453006
20
-44.3894263
11
242.9984415
21
-41.4185694
0
LINE
8
0
10
242.9984415
20
-41.4185694
11
245.9692984
21
-59.1717103
0
LINE
8
0
10
245.9692984
20
-59.1717103
11
228.2161575
21
-62.1425672
0
LINE
8
0
10
228.2161575
20
-62.1425672
11
225.2453006
21
-44.3894263
0
LINE
8
0
10
210.7758809
20
-81.5276153
11
226.6541645
21
-73.0494015
0
LINE
8
0
10
226.6541645
20
-73.0494015
11
235.1323783
21
-88.9276851
0
LINE
8
0
10
235.1323783
20
-88.9276851
11
219.2540947
21
-97.4058989
0
LINE
8
0
10
219.2540947
20
-97.4058989
11
210.7758809
21
-81.5276153
0
LINE
8
0
10
202.297667
20
-65.6493317
11
218.1759506
21
-57.1711179
0
LINE
8
0
10
218.1759506
20
-57.1711179
11
226.6541644
21
-73.0494015
0
LINE
8
0
10
226.6541644
20
-73.0494015
11
210.7758808
21
-81.5276153
0
LINE
8
0
10
210.7758808
20
-81.5276153
11
202.297667
21
-65.6493317
0
LINE
8
0
10
193.8194531
20
-49.7710481
11
209.6977367
21
-41.2928343
0
LINE
8
0
10
209.6977367
20
-41.2928343
11
218.1759505
21
-57.1711179
0
LINE
8
0
10
218.1759505
20
-57.1711179
11
202.2976669
21
-65.6493317
0
LINE
8
0
10
202.2976669
20
-65.6493317
11
193.8194531
21
-49.7710481
0
LINE
8
0
10
199.6628238
20
-90.4060508
11
217.5609068
21
-92.318804
0
LINE
8
0
10
217.5609068
20
-92.318804
11
215.6481536
21
-110.216887
0
LINE
8
0
10
215.6481536
20
-110.216887
11
197.7500706
21
-108.3041338
0
LINE
8
0
10
197.7500706
20
-108.3041338
11
199.6628238
21
-90.4060508
0
LINE
8
0
10
201.5755771
20
-72.5079678
11
219.4736601
21
-74.420721
0
LINE
8
0
10
219.4736601
20
-74.420721
11
217.5609069
21
-92.318804
0
LINE
8
0
10
217.5609069
20
-92.318804
11
199.6628239
21
-90.4060508
0
LINE
8
0
10
199.6628239
20
-90.4060508
11
201.5755771
21
-72.5079678
0
LINE
8
0
10
203.4883304
20
-54.6098848
11
221.3864134
21
-56.522638
0
LINE
8
0
10
221.3864134
20
-56.522638
11
219.4736602
21
-74.420721
0
LINE
8
0
10
219.4736602
20
-74.420721
11
201.5755772
21
-72.5079678
0
LINE
8
0
10
201.5755772
20
-72.5079678
11
203.4883304
21
-54.6098848
0
LINE
8
0
10
182.1931222
20
-93.9643785
11
199.7866083
21
-97.7682248
0
LINE
8
0
10
199.7866083
20
-97.7682248
11
195.982762
21
-115.3617109
0
LINE
8
0
10
195.982762
20
-115.3617109
11
178.3892759
21
-111.5578646
0
LINE
8
0
10
178.3892759
20
-111.5578646
11
182.1931222
21
-93.9643785
0
LINE
8
0
10
185.9969685
20
-76.3708924
11
203.5904546
21
-80.1747387
0
LINE
8
0
10
203.5904546
20
-80.1747387
11
199.7866083
21
-97.7682248
0
LINE
8
0
10
199.7866083
20
-97.7682248
11
182.1931222
21
-93.9643785
0
LINE
8
0
10
182.1931222
20
-93.9643785
11
185.9969685
21
-76.3708924
0
LINE
8
0
10
189.8008148
20
-58.7774063
11
207.3943009
21
-62.5812526
0
LINE
8
0
10
207.3943009
20
-62.5812526
11
203.5904546
21
-80.1747387
0
LINE
8
0
10
203.5904546
20
-80.1747387
11
185.9969685
21
-76.3708924
0
LINE
8
0
10
185.9969685
20
-76.3708924
11
189.8008148
21
-58.7774063
0
LINE
8
0
10
206.5075509
20
-127.4820015
11
224.4568833
21
-128.8316185
0
LINE
8
0
10
224.4568833
20
-128.8316185
11
223.1072663
21
-146.7809509
0
LINE
8
0
10
223.1072663
20
-146.7809509
11
205.1579339
21
-145.4313339
0
LINE
8
0
10
205.1579339
20
-145.4313339
11
206.5075509
21
-127.4820015
0
LINE
8
0
10
188.5582185
20
-126.1323845
11
206.5075509
21
-127.4820015
0
LINE
8
0
10
206.5075509
20
-127.4820015
11
205.1579339
21
-145.4313339
0
LINE
8
0
10
205.1579339
20
-145.4313339
11
187.2086015
21
-144.0817169
0
LINE
8
0
10
187.2086015
20
-144.0817169
11
188.5582185
21
-126.1323845
0
LINE
8
0
10
170.6088861
20
-124.7827673
11
188.5582185
21
-126.1323843
0
LINE
8
0
10
188.5582185
20
-126.1323843
11
187.2086015
21
-144.0817167
0
LINE
8
0
10
187.2086015
20
-144.0817167
11
169.2592691
21
-142.7320997
0
LINE
8
0
10
169.2592691
20
-142.7320997
11
170.6088861
21
-124.7827673
0
ENDSEC
0
EOF