<svg width="184.352mm" height="105.488mm" viewBox="0 0 184.352 105.488" xmlns="http://www.w3.org/2000/svg"><g id="svgGroup" stroke-linecap="round" fill-rule="evenodd" font-size="9pt" stroke="#000" stroke-width="0.25mm" fill="none" style="stroke:#000;stroke-width:0.25mm;fill:none"><path d="M 25.127 35.632 L 42.881 38.603 L 39.91 56.356 L 22.157 53.385 L 25.127 35.632 Z M 28.098 17.879 L 45.851 20.85 L 42.881 38.603 L 25.127 35.632 L 28.098 17.879 Z M 31.069 0.126 L 48.822 3.097 L 45.851 20.85 L 28.098 17.879 L 31.069 0.126 Z M 141.471 38.603 L 159.224 35.632 L 162.195 53.385 L 144.442 56.356 L 141.471 38.603 Z M 138.5 20.85 L 156.253 17.879 L 159.224 35.632 L 141.471 38.603 L 138.5 20.85 Z M 135.529 3.097 L 153.282 0.126 L 156.253 17.879 L 138.5 20.85 L 135.529 3.097 Z M 2.785 48.423 L 20.568 51.208 L 17.783 68.991 L 0 66.206 L 2.785 48.423 Z M 8.354 12.857 L 26.138 15.641 L 23.353 33.425 L 5.57 30.64 L 8.354 12.857 Z M 5.57 30.64 L 23.353 33.425 L 20.568 51.208 L 2.785 48.423 L 5.57 30.64 Z M 160.999 33.425 L 178.782 30.64 L 175.997 12.857 L 158.214 15.641 L 160.999 33.425 Z M 163.784 51.208 L 181.567 48.423 L 184.352 66.206 L 166.568 68.991 L 163.784 51.208 Z M 181.567 48.423 L 178.782 30.64 L 160.999 33.425 L 163.784 51.208 L 181.567 48.423 Z M 54.594 33.128 L 72.492 31.215 L 74.405 49.113 L 56.507 51.026 L 54.594 33.128 Z M 111.86 31.215 L 129.758 33.128 L 127.845 51.026 L 109.947 49.113 L 111.86 31.215 Z M 52.681 15.23 L 70.579 13.317 L 72.492 31.215 L 54.594 33.128 L 52.681 15.23 Z M 113.772 13.317 L 131.67 15.23 L 129.758 33.128 L 111.86 31.215 L 113.772 13.317 Z M 56.507 51.026 L 74.405 49.113 L 76.318 67.011 L 58.419 68.924 L 56.507 51.026 Z M 109.947 49.113 L 127.845 51.026 L 125.932 68.924 L 108.034 67.011 L 109.947 49.113 Z M 74.281 56.475 L 91.874 52.672 L 95.678 70.265 L 78.085 74.069 L 74.281 56.475 Z M 70.477 38.882 L 88.071 35.078 L 91.874 52.672 L 74.281 56.475 L 70.477 38.882 Z M 66.673 21.288 L 84.267 17.485 L 88.071 35.078 L 70.477 38.882 L 66.673 21.288 Z M 92.477 52.672 L 110.071 56.475 L 106.267 74.069 L 88.673 70.265 L 92.477 52.672 Z M 110.071 56.475 L 113.874 38.882 L 96.281 35.078 L 92.477 52.672 L 110.071 56.475 Z M 113.874 38.882 L 117.678 21.288 L 100.085 17.485 L 96.281 35.078 L 113.874 38.882 Z M 67.56 86.189 L 85.509 84.84 L 86.859 102.789 L 68.91 104.138 L 67.56 86.189 Z M 85.509 84.84 L 103.459 83.49 L 104.808 101.439 L 86.859 102.789 L 85.509 84.84 Z M 98.842 84.84 L 116.792 86.189 L 115.442 104.138 L 97.493 102.789 L 98.842 84.84 Z M 80.893 83.49 L 98.842 84.84 L 97.493 102.789 L 79.543 101.439 L 80.893 83.49 Z M 49.611 87.539 L 67.56 86.189 L 68.91 104.138 L 50.96 105.488 L 49.611 87.539 Z M 116.792 86.189 L 134.741 87.539 L 133.391 105.488 L 115.442 104.138 L 116.792 86.189 Z M 47.413 31.757 L 63.292 40.235 L 54.814 56.113 L 38.935 47.635 L 47.413 31.757 Z M 55.892 15.878 L 71.77 24.356 L 63.292 40.235 L 47.413 31.757 L 55.892 15.878 Z M 121.06 40.235 L 136.938 31.757 L 145.416 47.635 L 129.538 56.113 L 121.06 40.235 Z M 112.582 24.356 L 128.46 15.878 L 136.938 31.757 L 121.06 40.235 L 112.582 24.356 Z M 64.37 0 L 80.248 8.478 L 71.77 24.356 L 55.892 15.878 L 64.37 0 Z M 104.103 8.478 L 119.982 0 L 128.46 15.878 L 112.582 24.356 L 104.103 8.478 Z" vector-effect="non-scaling-stroke"/></g></svg>