0
SECTION
2
HEADER
9
$INSUNITS
70
4
0
ENDSEC
0
SECTION
2
TABLES
0
TABLE
2
LTYPE
0
LTYPE
72
65
70
64
2
CONTINUOUS
3
______
73
0
40
0
0
ENDTAB
0
TABLE
2
LAYER
0
ENDTAB
0
ENDSEC
0
SECTION
2
ENTITIES
0
LINE
8
0
10
-7.8360913
20
10.0297395
11
10.0297395
21
7.8360913
0
LINE
8
0
10
10.0297395
20
7.8360913
11
7.8360913
21
-10.0297395
0
LINE
8
0
10
7.8360913
20
-10.0297395
11
-10.0297395
21
-7.8360913
0
LINE
8
0
10
-10.0297395
20
-7.8360913
11
-7.8360913
21
10.0297395
0
LINE
8
0
10
-5.5205738
20
28.8881163
11
12.345257
21
26.6944681
0
LINE
8
0
10
12.345257
20
26.6944681
11
10.1516088
21
8.8286373
0
LINE
8
0
10
10.1516088
20
8.8286373
11
-7.714222
21
11.0222855
0
LINE
8
0
10
-7.714222
20
11.0222855
11
-5.5205738
21
28.8881163
0
LINE
8
0
10
-3.2050562
20
47.7464932
11
14.6607746
21
45.552845
0
LINE
8
0
10
14.6607746
20
45.552845
11
12.4671264
21
27.6870142
0
LINE
8
0
10
12.4671264
20
27.6870142
11
-5.3987044
21
29.8806624
0
LINE
8
0
10
-5.3987044
20
29.8806624
11
-3.2050562
21
47.7464932
0
LINE
8
0
10
14.8507078
20
18.9634892
11
32.4573646
21
15.2210788
0
LINE
8
0
10
32.4573646
20
15.2210788
11
28.7149542
21
-2.385578
0
LINE
8
0
10
28.7149542
20
-2.385578
11
11.1082974
21
1.3568324
0
LINE
8
0
10
11.1082974
20
1.3568324
11
14.8507078
21
18.9634892
0
LINE
8
0
10
18.80103
20
37.5482936
11
36.4076868
21
33.8058832
0
LINE
8
0
10
36.4076868
20
33.8058832
11
32.6652764
21
16.1992264
0
LINE
8
0
10
32.6652764
20
16.1992264
11
15.0586196
21
19.9416368
0
LINE
8
0
10
15.0586196
20
19.9416368
11
18.80103
21
37.5482936
0
LINE
8
0
10
22.7513521
20
56.133098
11
40.3580089
21
52.3906876
0
LINE
8
0
10
40.3580089
20
52.3906876
11
36.6155985
21
34.7840308
0
LINE
8
0
10
36.6155985
20
34.7840308
11
19.0089417
21
38.5264412
0
LINE
8
0
10
19.0089417
20
38.5264412
11
22.7513521
21
56.133098
0
LINE
8
0
10
34.4750706
20
19.9039051
11
52.0817274
21
16.1614947
0
LINE
8
0
10
52.0817274
20
16.1614947
11
48.339317
21
-1.4451621
0
LINE
8
0
10
48.339317
20
-1.4451621
11
30.7326602
21
2.2972483
0
LINE
8
0
10
30.7326602
20
2.2972483
11
34.4750706
21
19.9039051
0
LINE
8
0
10
38.4253928
20
38.4887095
11
56.0320496
21
34.7462991
0
LINE
8
0
10
56.0320496
20
34.7462991
11
52.2896392
21
17.1396423
0
LINE
8
0
10
52.2896392
20
17.1396423
11
34.6829824
21
20.8820527
0
LINE
8
0
10
34.6829824
20
20.8820527
11
38.4253928
21
38.4887095
0
LINE
8
0
10
42.3757149
20
57.0735139
11
59.9823717
21
53.3311035
0
LINE
8
0
10
59.9823717
20
53.3311035
11
56.2399613
21
35.7244467
0
LINE
8
0
10
56.2399613
20
35.7244467
11
38.6333045
21
39.4668571
0
LINE
8
0
10
38.6333045
20
39.4668571
11
42.3757149
21
57.0735139
0
LINE
8
0
10
51.6044932
20
9.1065498
11
69.21115
21
5.3641394
0
LINE
8
0
10
69.21115
20
5.3641394
11
65.4687396
21
-12.2425174
0
LINE
8
0
10
65.4687396
20
-12.2425174
11
47.8620828
21
-8.500107
0
LINE
8
0
10
47.8620828
20
-8.500107
11
51.6044932
21
9.1065498
0
LINE
8
0
10
55.5548153
20
27.6913542
11
73.1614721
21
23.9489438
0
LINE
8
0
10
73.1614721
20
23.9489438
11
69.4190617
21
6.342287
0
LINE
8
0
10
69.4190617
20
6.342287
11
51.8124049
21
10.0846974
0
LINE
8
0
10
51.8124049
20
10.0846974
11
55.5548153
21
27.6913542
0
LINE
8
0
10
59.5051375
20
46.2761586
11
77.1117943
21
42.5337482
0
LINE
8
0
10
77.1117943
20
42.5337482
11
73.3693839
21
24.9270914
0
LINE
8
0
10
73.3693839
20
24.9270914
11
55.7627271
21
28.6695018
0
LINE
8
0
10
55.7627271
20
28.6695018
11
59.5051375
21
46.2761586
0
LINE
8
0
10
69.7734743
20
3.1999324
11
87.3801311
21
-0.542478
0
LINE
8
0
10
87.3801311
20
-0.542478
11
83.6377207
21
-18.1491348
0
LINE
8
0
10
83.6377207
20
-18.1491348
11
66.0310639
21
-14.4067244
0
LINE
8
0
10
66.0310639
20
-14.4067244
11
69.7734743
21
3.1999324
0
LINE
8
0
10
73.7237964
20
21.7847368
11
91.3304532
21
18.0423264
0
LINE
8
0
10
91.3304532
20
18.0423264
11
87.5880428
21
0.4356696
0
LINE
8
0
10
87.5880428
20
0.4356696
11
69.981386
21
4.17808
0
LINE
8
0
10
69.981386
20
4.17808
11
73.7237964
21
21.7847368
0
LINE
8
0
10
77.6741186
20
40.3695412
11
95.2807754
21
36.6271308
0
LINE
8
0
10
95.2807754
20
36.6271308
11
91.538365
21
19.020474
0
LINE
8
0
10
91.538365
20
19.020474
11
73.9317082
21
22.7628844
0
LINE
8
0
10
73.9317082
20
22.7628844
11
77.6741186
21
40.3695412
0
LINE
8
0
10
58.9761189
20
-13.9294901
11
76.5827757
21
-17.6719005
0
LINE
8
0
10
76.5827757
20
-17.6719005
11
72.8403653
21
-35.2785573
0
LINE
8
0
10
72.8403653
20
-35.2785573
11
55.2337085
21
-31.5361469
0
LINE
8
0
10
55.2337085
20
-31.5361469
11
58.9761189
21
-13.9294901
0
LINE
8
0
10
87.0062384
20
-23.3613792
11
100.7950384
21
-34.9315562
0
LINE
8
0
10
100.7950384
20
-34.9315562
11
89.2248614
21
-48.7203562
0
LINE
8
0
10
89.2248614
20
-48.7203562
11
75.4360614
21
-37.1501792
0
LINE
8
0
10
75.4360614
20
-37.1501792
11
87.0062384
21
-23.3613792
0
LINE
8
0
10
108.2080962
20
-44.2086953
11
114.9510148
21
-60.8980047
0
LINE
8
0
10
114.9510148
20
-60.8980047
11
98.2617054
21
-67.6409233
0
LINE
8
0
10
98.2617054
20
-67.6409233
11
91.5187868
21
-50.9516139
0
LINE
8
0
10
91.5187868
20
-50.9516139
11
108.2080962
21
-44.2086953
0
LINE
8
0
10
228.3542733
20
7.8360913
11
246.2201041
21
10.0297395
0
LINE
8
0
10
246.2201041
20
10.0297395
11
248.4137523
21
-7.8360913
0
LINE
8
0
10
248.4137523
20
-7.8360913
11
230.5479215
21
-10.0297395
0
LINE
8
0
10
230.5479215
20
-10.0297395
11
228.3542733
21
7.8360913
0
LINE
8
0
10
226.0387558
20
26.6944681
11
243.9045866
21
28.8881163
0
LINE
8
0
10
243.9045866
20
28.8881163
11
246.0982348
21
11.0222855
0
LINE
8
0
10
246.0982348
20
11.0222855
11
228.232404
21
8.8286373
0
LINE
8
0
10
228.232404
20
8.8286373
11
226.0387558
21
26.6944681
0
LINE
8
0
10
223.7232382
20
45.552845
11
241.589069
21
47.7464932
0
LINE
8
0
10
241.589069
20
47.7464932
11
243.7827172
21
29.8806624
0
LINE
8
0
10
243.7827172
20
29.8806624
11
225.9168864
21
27.6870142
0
LINE
8
0
10
225.9168864
20
27.6870142
11
223.7232382
21
45.552845
0
LINE
8
0
10
205.9266482
20
15.2210788
11
223.533305
21
18.9634892
0
LINE
8
0
10
223.533305
20
18.9634892
11
227.2757154
21
1.3568324
0
LINE
8
0
10
227.2757154
20
1.3568324
11
209.6690586
21
-2.385578
0
LINE
8
0
10
209.6690586
20
-2.385578
11
205.9266482
21
15.2210788
0
LINE
8
0
10
201.976326
20
33.8058832
11
219.5829828
21
37.5482936
0
LINE
8
0
10
219.5829828
20
37.5482936
11
223.3253932
21
19.9416368
0
LINE
8
0
10
223.3253932
20
19.9416368
11
205.7187364
21
16.1992264
0
LINE
8
0
10
205.7187364
20
16.1992264
11
201.976326
21
33.8058832
0
LINE
8
0
10
198.0260039
20
52.3906876
11
215.6326607
21
56.133098
0
LINE
8
0
10
215.6326607
20
56.133098
11
219.3750711
21
38.5264412
0
LINE
8
0
10
219.3750711
20
38.5264412
11
201.7684143
21
34.7840308
0
LINE
8
0
10
201.7684143
20
34.7840308
11
198.0260039
21
52.3906876
0
LINE
8
0
10
186.3022854
20
16.1614947
11
203.9089422
21
19.9039051
0
LINE
8
0
10
203.9089422
20
19.9039051
11
207.6513526
21
2.2972483
0
LINE
8
0
10
207.6513526
20
2.2972483
11
190.0446958
21
-1.4451621
0
LINE
8
0
10
190.0446958
20
-1.4451621
11
186.3022854
21
16.1614947
0
LINE
8
0
10
182.3519632
20
34.7462991
11
199.95862
21
38.4887095
0
LINE
8
0
10
199.95862
20
38.4887095
11
203.7010304
21
20.8820527
0
LINE
8
0
10
203.7010304
20
20.8820527
11
186.0943736
21
17.1396423
0
LINE
8
0
10
186.0943736
20
17.1396423
11
182.3519632
21
34.7462991
0
LINE
8
0
10
178.4016411
20
53.3311035
11
196.0082979
21
57.0735139
0
LINE
8
0
10
196.0082979
20
57.0735139
11
199.7507083
21
39.4668571
0
LINE
8
0
10
199.7507083
20
39.4668571
11
182.1440515
21
35.7244467
0
LINE
8
0
10
182.1440515
20
35.7244467
11
178.4016411
21
53.3311035
0
LINE
8
0
10
169.1728628
20
5.3641394
11
186.7795196
21
9.1065498
0
LINE
8
0
10
186.7795196
20
9.1065498
11
190.52193
21
-8.500107
0
LINE
8
0
10
190.52193
20
-8.500107
11
172.9152732
21
-12.2425174
0
LINE
8
0
10
172.9152732
20
-12.2425174
11
169.1728628
21
5.3641394
0
LINE
8
0
10
165.2225407
20
23.9489438
11
182.8291975
21
27.6913542
0
LINE
8
0
10
182.8291975
20
27.6913542
11
186.5716079
21
10.0846974
0
LINE
8
0
10
186.5716079
20
10.0846974
11
168.9649511
21
6.342287
0
LINE
8
0
10
168.9649511
20
6.342287
11
165.2225407
21
23.9489438
0
LINE
8
0
10
161.2722185
20
42.5337482
11
178.8788753
21
46.2761586
0
LINE
8
0
10
178.8788753
20
46.2761586
11
182.6212857
21
28.6695018
0
LINE
8
0
10
182.6212857
20
28.6695018
11
165.0146289
21
24.9270914
0
LINE
8
0
10
165.0146289
20
24.9270914
11
161.2722185
21
42.5337482
0
LINE
8
0
10
151.0038817
20
-0.542478
11
168.6105385
21
3.1999324
0
LINE
8
0
10
168.6105385
20
3.1999324
11
172.3529489
21
-14.4067244
0
LINE
8
0
10
172.3529489
20
-14.4067244
11
154.7462921
21
-18.1491348
0
LINE
8
0
10
154.7462921
20
-18.1491348
11
151.0038817
21
-0.542478
0
LINE
8
0
10
147.0535596
20
18.0423264
11
164.6602164
21
21.7847368
0
LINE
8
0
10
164.6602164
20
21.7847368
11
168.4026268
21
4.17808
0
LINE
8
0
10
168.4026268
20
4.17808
11
150.79597
21
0.4356696
0
LINE
8
0
10
150.79597
20
0.4356696
11
147.0535596
21
18.0423264
0
LINE
8
0
10
143.1032374
20
36.6271308
11
160.7098942
21
40.3695412
0
LINE
8
0
10
160.7098942
20
40.3695412
11
164.4523046
21
22.7628844
0
LINE
8
0
10
164.4523046
20
22.7628844
11
146.8456478
21
19.020474
0
LINE
8
0
10
146.8456478
20
19.020474
11
143.1032374
21
36.6271308
0
LINE
8
0
10
161.8012371
20
-17.6719005
11
179.4078939
21
-13.9294901
0
LINE
8
0
10
179.4078939
20
-13.9294901
11
183.1503043
21
-31.5361469
0
LINE
8
0
10
183.1503043
20
-31.5361469
11
165.5436475
21
-35.2785573
0
LINE
8
0
10
165.5436475
20
-35.2785573
11
161.8012371
21
-17.6719005
0
LINE
8
0
10
137.5889744
20
-34.9315562
11
151.3777744
21
-23.3613792
0
LINE
8
0
10
151.3777744
20
-23.3613792
11
162.9479514
21
-37.1501792
0
LINE
8
0
10
162.9479514
20
-37.1501792
11
149.1591514
21
-48.7203562
0
LINE
8
0
10
149.1591514
20
-48.7203562
11
137.5889744
21
-34.9315562
0
LINE
8
0
10
123.432998
20
-60.8980047
11
130.1759166
21
-44.2086953
0
LINE
8
0
10
130.1759166
20
-44.2086953
11
146.865226
21
-50.9516139
0
LINE
8
0
10
146.865226
20
-50.9516139
11
140.1223074
21
-67.6409233
0
LINE
8
0
10
140.1223074
20
-67.6409233
11
123.432998
21
-60.8980047
0
ENDSEC
0
EOF