<svg width="258.443mm" height="124.714mm" viewBox="0 0 258.443 124.714" xmlns="http://www.w3.org/2000/svg"><g id="svgGroup" stroke-linecap="round" fill-rule="evenodd" font-size="9pt" stroke="#000" stroke-width="0.25mm" fill="none" style="stroke:#000;stroke-width:0.25mm;fill:none"><path d="M 2.194 47.044 L 20.059 49.237 L 17.866 67.103 L 0 64.91 L 2.194 47.044 Z M 4.509 28.185 L 22.375 30.379 L 20.181 48.245 L 2.316 46.051 L 4.509 28.185 Z M 6.825 9.327 L 24.691 11.521 L 22.497 29.386 L 4.631 27.193 L 6.825 9.327 Z M 238.384 49.237 L 256.25 47.044 L 258.443 64.91 L 240.578 67.103 L 238.384 49.237 Z M 236.068 30.379 L 253.934 28.185 L 256.128 46.051 L 238.262 48.245 L 236.068 30.379 Z M 233.753 11.521 L 251.619 9.327 L 253.812 27.193 L 235.947 29.386 L 233.753 11.521 Z M 97.036 80.435 L 110.825 92.005 L 99.255 105.794 L 85.466 94.224 L 97.036 80.435 Z M 147.619 92.005 L 161.408 80.435 L 172.978 94.224 L 159.189 105.794 L 147.619 92.005 Z M 133.463 117.972 L 140.206 101.282 L 156.895 108.025 L 150.152 124.714 L 133.463 117.972 Z M 118.238 101.282 L 124.981 117.972 L 108.291 124.714 L 101.549 108.025 L 118.238 101.282 Z M 24.88 38.11 L 42.487 41.852 L 38.745 59.459 L 21.138 55.717 L 24.88 38.11 Z M 32.781 0.94 L 50.388 4.683 L 46.645 22.289 L 29.039 18.547 L 32.781 0.94 Z M 44.505 37.17 L 62.111 40.912 L 58.369 58.519 L 40.762 54.776 L 44.505 37.17 Z M 61.634 47.967 L 79.241 51.709 L 75.498 69.316 L 57.892 65.574 L 61.634 47.967 Z M 69.535 10.797 L 87.142 14.54 L 83.399 32.146 L 65.792 28.404 L 69.535 10.797 Z M 79.803 53.874 L 97.41 57.616 L 93.667 75.223 L 76.061 71.48 L 79.803 53.874 Z M 83.754 35.289 L 101.36 39.031 L 97.618 56.638 L 80.011 52.895 L 83.754 35.289 Z M 87.704 16.704 L 105.311 20.446 L 101.568 38.053 L 83.961 34.311 L 87.704 16.704 Z M 69.006 71.003 L 86.613 74.745 L 82.87 92.352 L 65.263 88.61 L 69.006 71.003 Z M 28.831 19.525 L 46.437 23.268 L 42.695 40.874 L 25.088 37.132 L 28.831 19.525 Z M 48.455 18.585 L 66.062 22.327 L 62.319 39.934 L 44.713 36.191 L 48.455 18.585 Z M 52.405 0 L 70.012 3.742 L 66.27 21.349 L 48.663 17.607 L 52.405 0 Z M 65.585 29.382 L 83.191 33.125 L 79.449 50.731 L 61.842 46.989 L 65.585 29.382 Z M 215.956 41.852 L 233.563 38.11 L 237.305 55.717 L 219.699 59.459 L 215.956 41.852 Z M 212.006 23.268 L 229.613 19.525 L 233.355 37.132 L 215.748 40.874 L 212.006 23.268 Z M 208.056 4.683 L 225.662 0.94 L 229.405 18.547 L 211.798 22.289 L 208.056 4.683 Z M 196.332 40.912 L 213.939 37.17 L 217.681 54.776 L 200.074 58.519 L 196.332 40.912 Z M 192.382 22.327 L 209.988 18.585 L 213.731 36.191 L 196.124 39.934 L 192.382 22.327 Z M 188.431 3.742 L 206.038 0 L 209.78 17.607 L 192.174 21.349 L 188.431 3.742 Z M 179.203 51.709 L 196.809 47.967 L 200.552 65.574 L 182.945 69.316 L 179.203 51.709 Z M 175.252 33.125 L 192.859 29.382 L 196.601 46.989 L 178.995 50.731 L 175.252 33.125 Z M 171.302 14.54 L 188.909 10.797 L 192.651 28.404 L 175.044 32.146 L 171.302 14.54 Z M 161.034 57.616 L 178.64 53.874 L 182.383 71.48 L 164.776 75.223 L 161.034 57.616 Z M 157.083 39.031 L 174.69 35.289 L 178.432 52.895 L 160.826 56.638 L 157.083 39.031 Z M 153.133 20.446 L 170.74 16.704 L 174.482 34.311 L 156.875 38.053 L 153.133 20.446 Z M 171.831 74.745 L 189.438 71.003 L 193.18 88.61 L 175.573 92.352 L 171.831 74.745 Z" vector-effect="non-scaling-stroke"/></g></svg>