<svg width="248.443mm" height="124.714mm" viewBox="0 0 248.443 124.714" xmlns="http://www.w3.org/2000/svg"><g id="svgGroup" stroke-linecap="round" fill-rule="evenodd" font-size="9pt" stroke="#000" stroke-width="0.25mm" fill="none" style="stroke:#000;stroke-width:0.25mm;fill:none"><path d="M 2.194 47.044 L 20.059 49.237 L 17.866 67.103 L 0 64.91 L 2.194 47.044 Z M 4.509 28.185 L 22.375 30.379 L 20.181 48.245 L 2.316 46.051 L 4.509 28.185 Z M 6.825 9.327 L 24.691 11.521 L 22.497 29.386 L 4.631 27.193 L 6.825 9.327 Z M 228.384 49.237 L 246.25 47.044 L 248.443 64.91 L 230.578 67.103 L 228.384 49.237 Z M 226.068 30.379 L 243.934 28.185 L 246.128 46.051 L 228.262 48.245 L 226.068 30.379 Z M 223.753 11.521 L 241.619 9.327 L 243.812 27.193 L 225.947 29.386 L 223.753 11.521 Z M 97.036 80.435 L 110.825 92.005 L 99.255 105.794 L 85.466 94.224 L 97.036 80.435 Z M 137.619 92.005 L 151.408 80.435 L 162.978 94.224 L 149.189 105.794 L 137.619 92.005 Z M 123.463 117.972 L 130.206 101.282 L 146.895 108.025 L 140.152 124.714 L 123.463 117.972 Z M 118.238 101.282 L 124.981 117.972 L 108.291 124.714 L 101.549 108.025 L 118.238 101.282 Z M 24.88 38.11 L 42.487 41.852 L 38.745 59.459 L 21.138 55.717 L 24.88 38.11 Z M 32.781 0.94 L 50.388 4.683 L 46.645 22.289 L 29.039 18.547 L 32.781 0.94 Z M 44.505 37.17 L 62.111 40.912 L 58.369 58.519 L 40.762 54.776 L 44.505 37.17 Z M 61.634 47.967 L 79.241 51.709 L 75.498 69.316 L 57.892 65.574 L 61.634 47.967 Z M 69.535 10.797 L 87.142 14.54 L 83.399 32.146 L 65.792 28.404 L 69.535 10.797 Z M 79.803 53.874 L 97.41 57.616 L 93.667 75.223 L 76.061 71.48 L 79.803 53.874 Z M 83.754 35.289 L 101.36 39.031 L 97.618 56.638 L 80.011 52.895 L 83.754 35.289 Z M 87.704 16.704 L 105.311 20.446 L 101.568 38.053 L 83.961 34.311 L 87.704 16.704 Z M 69.006 71.003 L 86.613 74.745 L 82.87 92.352 L 65.263 88.61 L 69.006 71.003 Z M 28.831 19.525 L 46.437 23.268 L 42.695 40.874 L 25.088 37.132 L 28.831 19.525 Z M 48.455 18.585 L 66.062 22.327 L 62.319 39.934 L 44.713 36.191 L 48.455 18.585 Z M 52.405 0 L 70.012 3.742 L 66.27 21.349 L 48.663 17.607 L 52.405 0 Z M 65.585 29.382 L 83.191 33.125 L 79.449 50.731 L 61.842 46.989 L 65.585 29.382 Z M 205.956 41.852 L 223.563 38.11 L 227.305 55.717 L 209.699 59.459 L 205.956 41.852 Z M 202.006 23.268 L 219.613 19.525 L 223.355 37.132 L 205.748 40.874 L 202.006 23.268 Z M 198.056 4.683 L 215.662 0.94 L 219.405 18.547 L 201.798 22.289 L 198.056 4.683 Z M 186.332 40.912 L 203.939 37.17 L 207.681 54.776 L 190.074 58.519 L 186.332 40.912 Z M 182.382 22.327 L 199.988 18.585 L 203.731 36.191 L 186.124 39.934 L 182.382 22.327 Z M 178.431 3.742 L 196.038 0 L 199.78 17.607 L 182.174 21.349 L 178.431 3.742 Z M 169.203 51.709 L 186.809 47.967 L 190.552 65.574 L 172.945 69.316 L 169.203 51.709 Z M 165.252 33.125 L 182.859 29.382 L 186.601 46.989 L 168.995 50.731 L 165.252 33.125 Z M 161.302 14.54 L 178.909 10.797 L 182.651 28.404 L 165.044 32.146 L 161.302 14.54 Z M 151.034 57.616 L 168.64 53.874 L 172.383 71.48 L 154.776 75.223 L 151.034 57.616 Z M 147.083 39.031 L 164.69 35.289 L 168.432 52.895 L 150.826 56.638 L 147.083 39.031 Z M 143.133 20.446 L 160.74 16.704 L 164.482 34.311 L 146.875 38.053 L 143.133 20.446 Z M 161.831 74.745 L 179.438 71.003 L 183.18 88.61 L 165.573 92.352 L 161.831 74.745 Z" vector-effect="non-scaling-stroke"/></g></svg>