0
SECTION
2
HEADER
9
$INSUNITS
70
4
0
ENDSEC
0
SECTION
2
TABLES
0
TABLE
2
LTYPE
0
LTYPE
72
65
70
64
2
CONTINUOUS
3
______
73
0
40
0
0
ENDTAB
0
TABLE
2
LAYER
0
ENDTAB
0
ENDSEC
0
SECTION
2
ENTITIES
0
LINE
8
0
10
90.0016353
20
-107.2909329
11
107.2909329
21
-109.9983647
0
LINE
8
0
10
107.2909329
20
-109.9983647
11
109.9983647
21
-92.7090671
0
LINE
8
0
10
109.9983647
20
-92.7090671
11
92.7090671
21
-90.0016353
0
LINE
8
0
10
92.7090671
20
-90.0016353
11
90.0016353
21
-107.2909329
0
LINE
8
0
10
92.7864223
20
-89.5076553
11
110.0757199
21
-92.2150871
0
LINE
8
0
10
110.0757199
20
-92.2150871
11
112.7831517
21
-74.9257895
0
LINE
8
0
10
112.7831517
20
-74.9257895
11
95.4938541
21
-72.2183577
0
LINE
8
0
10
95.4938541
20
-72.2183577
11
92.7864223
21
-89.5076553
0
LINE
8
0
10
95.5712093
20
-71.7243777
11
112.8605069
21
-74.4318095
0
LINE
8
0
10
112.8605069
20
-74.4318095
11
115.5679387
21
-57.1425119
0
LINE
8
0
10
115.5679387
20
-57.1425119
11
98.2786411
21
-54.4350801
0
LINE
8
0
10
98.2786411
20
-54.4350801
11
95.5712093
21
-71.7243777
0
LINE
8
0
10
112.1603979
20
-94.4726824
11
129.420396
21
-97.3610155
0
LINE
8
0
10
129.420396
20
-97.3610155
11
130.6963387
21
-89.7362823
0
LINE
8
0
10
131.6975821
20
-83.7530877
11
132.3087291
21
-80.1010174
0
LINE
8
0
10
132.3087291
20
-80.1010174
11
115.048731
21
-77.2126843
0
LINE
8
0
10
115.048731
20
-77.2126843
11
112.1603979
21
-94.4726824
0
LINE
8
0
10
115.1312548
20
-76.7195416
11
132.3912529
21
-79.6078747
0
LINE
8
0
10
132.3912529
20
-79.6078747
11
135.279586
21
-62.3478766
0
LINE
8
0
10
135.279586
20
-62.3478766
11
118.0195879
21
-59.4595435
0
LINE
8
0
10
118.0195879
20
-59.4595435
11
115.1312548
21
-76.7195416
0
LINE
8
0
10
118.1021117
20
-58.9664008
11
135.3621098
21
-61.8547339
0
LINE
8
0
10
135.3621098
20
-61.8547339
11
138.2504429
21
-44.5947358
0
LINE
8
0
10
138.2504429
20
-44.5947358
11
120.9904448
21
-41.7064027
0
LINE
8
0
10
120.9904448
20
-41.7064027
11
118.1021117
21
-58.9664008
0
LINE
8
0
10
130.6963387
20
-89.7362823
11
144.4267033
21
-97.0676142
0
LINE
8
0
10
144.4267033
20
-97.0676142
11
146.5555168
21
-93.0807007
0
LINE
8
0
10
146.8647214
20
-92.5016121
11
147.149465
21
-91.9683346
0
LINE
8
0
10
144.8877908
20
-77.4753958
11
137.2321911
21
-73.3876862
0
LINE
8
0
10
137.2321911
20
-73.3876862
11
131.6975821
21
-83.7530877
0
LINE
8
0
10
137.4676971
20
-72.9466227
11
144.8235503
21
-76.8742826
0
LINE
8
0
10
157.1154927
20
-73.3036233
11
157.4002364
21
-72.7703458
0
LINE
8
0
10
143.2470731
20
-62.1228134
11
137.4676971
21
-72.9466227
0
LINE
8
0
10
163.5282911
20
-61.2935194
11
169.625839
21
-49.8738269
0
LINE
8
0
10
169.625839
20
-49.8738269
11
154.1886189
21
-41.631119
0
LINE
8
0
10
154.1886189
20
-41.631119
11
146.3273055
21
-56.3540506
0
LINE
8
0
10
148.3574417
20
-109.9417365
11
165.7583557
21
-108.0821153
0
LINE
8
0
10
165.7583557
20
-108.0821153
11
165.0503828
21
-101.4574455
0
LINE
8
0
10
164.6679498
20
-97.87893
11
164.6145152
21
-97.37893
0
LINE
8
0
10
162.7470862
20
-90.804277
11
146.8647214
21
-92.5016121
0
LINE
8
0
10
146.5555168
20
-93.0807007
11
148.3574417
21
-109.9417365
0
LINE
8
0
10
147.149465
20
-91.9683346
11
162.6408221
21
-90.3127862
0
LINE
8
0
10
162.7443047
20
-79.87893
11
162.6908701
21
-79.37893
0
LINE
8
0
10
158.9215797
20
-73.1106083
11
157.1154927
21
-73.3036233
0
LINE
8
0
10
144.8235503
20
-76.8742826
11
144.8877908
21
-77.4753958
0
LINE
8
0
10
157.4002364
20
-72.7703458
11
158.8153156
21
-72.6191175
0
LINE
8
0
10
146.3273055
20
-56.3540506
11
142.6723139
21
-56.7446565
0
LINE
8
0
10
142.6723139
20
-56.7446565
11
143.2470731
21
-62.1228134
0
LINE
8
0
10
167.9923376
20
-115.0645257
11
181.8917884
21
-112.0593581
0
LINE
8
0
10
181.8917884
20
-96.5411158
11
181.3989318
21
-94.2615637
0
LINE
8
0
10
181.3989318
20
-94.2615637
11
164.6679498
21
-97.87893
0
LINE
8
0
10
165.0503828
20
-101.4574455
11
167.9923376
21
-115.0645257
0
LINE
8
0
10
164.6145152
20
-97.37893
11
181.2932694
21
-93.7728557
0
LINE
8
0
10
181.2932694
20
-93.7728557
11
177.5950855
21
-76.6680776
0
LINE
8
0
10
177.5950855
20
-76.6680776
11
162.7443047
21
-79.87893
0
LINE
8
0
10
162.6408221
20
-90.3127862
11
162.7470862
21
-90.804277
0
LINE
8
0
10
162.6908701
20
-79.37893
11
177.4894231
21
-76.1793696
0
LINE
8
0
10
177.4894231
20
-76.1793696
11
173.7912392
21
-59.0745915
0
LINE
8
0
10
173.7912392
20
-59.0745915
11
163.5282911
21
-61.2935194
0
LINE
8
0
10
158.8153156
20
-72.6191175
11
158.9215797
21
-73.1106083
0
LINE
8
0
10
140.9068621
20
-146.51291
11
158.357602
21
-145.2007823
0
LINE
8
0
10
158.357602
20
-145.2007823
11
157.0454743
21
-127.7500424
0
LINE
8
0
10
157.0454743
20
-127.7500424
11
139.5947344
21
-129.0621701
0
LINE
8
0
10
139.5947344
20
-129.0621701
11
140.9068621
21
-146.51291
0
LINE
8
0
10
158.8561945
20
-145.163293
11
176.3069344
21
-143.8511653
0
LINE
8
0
10
176.3069344
20
-143.8511653
11
176.2434264
21
-143.0065354
0
LINE
8
0
10
170.7137562
20
-126.7223192
11
157.5440668
21
-127.7125531
0
LINE
8
0
10
157.5440668
20
-127.7125531
11
158.8561945
21
-145.163293
0
LINE
8
0
10
176.8055269
20
-143.8136758
11
181.8917884
21
-143.4312379
0
LINE
8
0
10
187.0358882
20
-143.0444511
11
187.5401504
21
-143.0065354
0
LINE
8
0
10
193.0698206
20
-126.7223192
11
192.9441391
21
-125.0508082
0
LINE
8
0
10
192.9441391
20
-125.0508082
11
181.8917884
21
-125.8818386
0
LINE
8
0
10
176.7476886
20
-143.0444511
11
176.8055269
21
-143.8136758
0
LINE
8
0
10
256.4926439
20
-109.9983647
11
273.7819415
21
-107.2909329
0
LINE
8
0
10
273.7819415
20
-107.2909329
11
271.0745097
21
-90.0016353
0
LINE
8
0
10
271.0745097
20
-90.0016353
11
253.7852121
21
-92.7090671
0
LINE
8
0
10
253.7852121
20
-92.7090671
11
256.4926439
21
-109.9983647
0
LINE
8
0
10
253.7078569
20
-92.2150871
11
270.9971545
21
-89.5076553
0
LINE
8
0
10
270.9971545
20
-89.5076553
11
268.2897227
21
-72.2183577
0
LINE
8
0
10
268.2897227
20
-72.2183577
11
251.0004251
21
-74.9257895
0
LINE
8
0
10
251.0004251
20
-74.9257895
11
253.7078569
21
-92.2150871
0
LINE
8
0
10
250.9230699
20
-74.4318095
11
268.2123675
21
-71.7243777
0
LINE
8
0
10
268.2123675
20
-71.7243777
11
265.5049357
21
-54.4350801
0
LINE
8
0
10
265.5049357
20
-54.4350801
11
248.2156381
21
-57.1425119
0
LINE
8
0
10
248.2156381
20
-57.1425119
11
250.9230699
21
-74.4318095
0
LINE
8
0
10
234.3631808
20
-97.3610155
11
251.6231789
21
-94.4726824
0
LINE
8
0
10
251.6231789
20
-94.4726824
11
248.7348458
21
-77.2126843
0
LINE
8
0
10
248.7348458
20
-77.2126843
11
231.4748477
21
-80.1010174
0
LINE
8
0
10
231.4748477
20
-80.1010174
11
232.0859947
21
-83.7530877
0
LINE
8
0
10
233.0872381
20
-89.7362823
11
234.3631808
21
-97.3610155
0
LINE
8
0
10
231.3923239
20
-79.6078747
11
248.652322
21
-76.7195416
0
LINE
8
0
10
248.652322
20
-76.7195416
11
245.7639889
21
-59.4595435
0
LINE
8
0
10
245.7639889
20
-59.4595435
11
228.5039908
21
-62.3478766
0
LINE
8
0
10
228.5039908
20
-62.3478766
11
231.3923239
21
-79.6078747
0
LINE
8
0
10
228.421467
20
-61.8547339
11
245.6814651
21
-58.9664008
0
LINE
8
0
10
245.6814651
20
-58.9664008
11
242.793132
21
-41.7064027
0
LINE
8
0
10
242.793132
20
-41.7064027
11
225.5331339
21
-44.5947358
0
LINE
8
0
10
225.5331339
20
-44.5947358
11
228.421467
21
-61.8547339
0
LINE
8
0
10
219.3568735
20
-97.0676142
11
233.0872381
21
-89.7362823
0
LINE
8
0
10
232.0859947
20
-83.7530877
11
226.5513857
21
-73.3876862
0
LINE
8
0
10
226.5513857
20
-73.3876862
11
218.895786
21
-77.4753958
0
LINE
8
0
10
216.6341118
20
-91.9683346
11
216.9188554
21
-92.5016121
0
LINE
8
0
10
217.22806
20
-93.0807007
11
219.3568735
21
-97.0676142
0
LINE
8
0
10
218.9600265
20
-76.8742826
11
226.3158797
21
-72.9466227
0
LINE
8
0
10
226.3158797
20
-72.9466227
11
220.5365037
21
-62.1228134
0
LINE
8
0
10
206.3833404
20
-72.7703458
11
206.6680841
21
-73.3036233
0
LINE
8
0
10
217.4562713
20
-56.3540506
11
209.5949579
21
-41.631119
0
LINE
8
0
10
209.5949579
20
-41.631119
11
194.1577378
21
-49.8738269
0
LINE
8
0
10
194.1577378
20
-49.8738269
11
200.2552857
21
-61.2935194
0
LINE
8
0
10
198.0252211
20
-108.0821153
11
215.4261351
21
-109.9417365
0
LINE
8
0
10
215.4261351
20
-109.9417365
11
217.22806
21
-93.0807007
0
LINE
8
0
10
216.9188554
20
-92.5016121
11
201.0364906
21
-90.804277
0
LINE
8
0
10
199.1690616
20
-97.37893
11
199.115627
21
-97.87893
0
LINE
8
0
10
198.733194
20
-101.4574455
11
198.0252211
21
-108.0821153
0
LINE
8
0
10
201.1427547
20
-90.3127862
11
216.6341118
21
-91.9683346
0
LINE
8
0
10
218.895786
20
-77.4753958
11
218.9600265
21
-76.8742826
0
LINE
8
0
10
206.6680841
20
-73.3036233
11
204.8619971
21
-73.1106083
0
LINE
8
0
10
201.0927067
20
-79.37893
11
201.0392721
21
-79.87893
0
LINE
8
0
10
204.9682612
20
-72.6191175
11
206.3833404
21
-72.7703458
0
LINE
8
0
10
220.5365037
20
-62.1228134
11
221.1112629
21
-56.7446565
0
LINE
8
0
10
221.1112629
20
-56.7446565
11
217.4562713
21
-56.3540506
0
LINE
8
0
10
181.8917884
20
-112.0593581
11
195.7912392
21
-115.0645257
0
LINE
8
0
10
195.7912392
20
-115.0645257
11
198.733194
21
-101.4574455
0
LINE
8
0
10
199.115627
20
-97.87893
11
182.384645
21
-94.2615637
0
LINE
8
0
10
182.384645
20
-94.2615637
11
181.8917884
21
-96.5411158
0
LINE
8
0
10
182.4903074
20
-93.7728557
11
199.1690616
21
-97.37893
0
LINE
8
0
10
201.0364906
20
-90.804277
11
201.1427547
21
-90.3127862
0
LINE
8
0
10
201.0392721
20
-79.87893
11
186.1884913
21
-76.6680776
0
LINE
8
0
10
186.1884913
20
-76.6680776
11
182.4903074
21
-93.7728557
0
LINE
8
0
10
186.2941537
20
-76.1793696
11
201.0927067
21
-79.37893
0
LINE
8
0
10
204.8619971
20
-73.1106083
11
204.9682612
21
-72.6191175
0
LINE
8
0
10
200.2552857
20
-61.2935194
11
189.9923376
21
-59.0745915
0
LINE
8
0
10
189.9923376
20
-59.0745915
11
186.2941537
21
-76.1793696
0
LINE
8
0
10
205.4259748
20
-145.2007823
11
222.8767147
21
-146.51291
0
LINE
8
0
10
222.8767147
20
-146.51291
11
224.1888424
21
-129.0621701
0
LINE
8
0
10
224.1888424
20
-129.0621701
11
206.7381025
21
-127.7500424
0
LINE
8
0
10
206.7381025
20
-127.7500424
11
205.4259748
21
-145.2007823
0
LINE
8
0
10
187.4766424
20
-143.8511653
11
204.9273823
21
-145.163293
0
LINE
8
0
10
204.9273823
20
-145.163293
11
206.23951
21
-127.7125531
0
LINE
8
0
10
206.23951
20
-127.7125531
11
193.0698206
21
-126.7223192
0
LINE
8
0
10
187.5401504
20
-143.0065354
11
187.4766424
21
-143.8511653
0
LINE
8
0
10
176.2434264
20
-143.0065354
11
176.7476886
21
-143.0444511
0
LINE
8
0
10
181.8917884
20
-143.4312379
11
186.9780499
21
-143.8136758
0
LINE
8
0
10
186.9780499
20
-143.8136758
11
187.0358882
21
-143.0444511
0
LINE
8
0
10
181.8917884
20
-125.8818386
11
170.8394377
21
-125.0508082
0
LINE
8
0
10
170.8394377
20
-125.0508082
11
170.7137562
21
-126.7223192
0
ENDSEC
0
EOF