<svg width="183.78mm" height="104.882mm" viewBox="0 0 183.78 104.882" xmlns="http://www.w3.org/2000/svg"><g id="svgGroup" stroke-linecap="round" fill-rule="evenodd" font-size="9pt" stroke="#000" stroke-width="0.25mm" fill="none" style="stroke:#000;stroke-width:0.25mm;fill:none"><path d="M 22.159 52.842 L 39.419 55.73 L 40.695 48.105 L 54.425 55.436 L 56.554 51.45 L 58.356 68.311 L 75.757 66.451 L 75.049 59.826 L 77.991 73.433 L 91.89 70.428 L 105.79 73.433 L 108.732 59.826 L 108.024 66.451 L 125.424 68.311 L 127.226 51.45 L 129.355 55.436 L 143.086 48.105 L 144.362 55.73 L 161.622 52.842 L 158.733 35.582 L 141.473 38.47 L 142.084 42.122 L 136.55 31.757 L 128.894 35.844 L 128.958 35.243 L 136.314 31.316 L 130.535 20.492 L 131.11 15.114 L 127.455 14.723 L 119.593 0 L 104.156 8.243 L 110.254 19.662 L 99.991 17.443 L 96.293 34.548 L 111.091 37.748 L 111.038 38.248 L 96.187 35.037 L 92.489 52.142 L 109.167 55.748 L 109.114 56.248 L 92.383 52.63 L 91.89 54.91 L 91.397 52.63 L 74.666 56.248 L 74.613 55.748 L 91.292 52.142 L 87.593 35.037 L 72.743 38.248 L 72.689 37.748 L 87.488 34.548 L 83.79 17.443 L 73.527 19.662 L 79.624 8.243 L 64.187 0 L 56.326 14.723 L 52.671 15.114 L 53.245 20.492 L 47.466 31.316 L 54.822 35.243 L 54.886 35.844 L 47.231 31.757 L 41.696 42.122 L 42.307 38.47 L 25.047 35.582 L 22.159 52.842 Z M 68.855 103.532 L 86.305 102.22 L 86.242 101.375 L 86.746 101.413 L 86.804 102.183 L 91.89 101.8 L 96.976 102.183 L 97.034 101.413 L 97.539 101.375 L 97.475 102.22 L 114.926 103.532 L 116.238 86.081 L 103.068 85.091 L 102.943 83.42 L 91.89 84.251 L 80.838 83.42 L 80.712 85.091 L 67.542 86.081 L 68.855 103.532 Z M 25.13 35.088 L 42.39 37.977 L 45.278 20.717 L 28.018 17.828 L 25.13 35.088 Z M 28.1 17.335 L 45.36 20.224 L 48.249 2.964 L 30.989 0.075 L 28.1 17.335 Z M 141.391 37.977 L 158.651 35.088 L 155.762 17.828 L 138.502 20.717 L 141.391 37.977 Z M 138.42 20.224 L 155.68 17.335 L 152.791 0.075 L 135.531 2.964 L 138.42 20.224 Z M 50.905 104.882 L 68.356 103.57 L 67.044 86.119 L 49.593 87.431 L 50.905 104.882 Z M 115.424 103.57 L 132.875 104.882 L 134.187 87.431 L 116.736 86.119 L 115.424 103.57 Z M 163.706 50.584 L 180.996 47.877 L 178.288 30.587 L 160.999 33.295 L 163.706 50.584 Z M 0 65.66 L 17.289 68.367 L 19.997 51.078 L 2.707 48.371 L 0 65.66 Z M 2.785 47.877 L 20.074 50.584 L 22.782 33.295 L 5.492 30.587 L 2.785 47.877 Z M 5.57 30.093 L 22.859 32.801 L 25.566 15.511 L 8.277 12.804 L 5.57 30.093 Z M 160.921 32.801 L 178.211 30.093 L 175.503 12.804 L 158.214 15.511 L 160.921 32.801 Z M 166.491 68.367 L 183.78 65.66 L 181.073 48.371 L 163.784 51.078 L 166.491 68.367 Z M 56.863 50.87 L 57.148 50.337 L 72.639 48.682 L 72.745 49.173 L 56.863 50.87 Z M 126.632 50.337 L 126.917 50.87 L 111.035 49.173 L 111.141 48.682 L 126.632 50.337 Z M 67.114 31.673 L 67.399 31.139 L 68.814 30.988 L 68.92 31.479 L 67.114 31.673 Z M 116.382 31.139 L 116.666 31.673 L 114.86 31.479 L 114.967 30.988 L 116.382 31.139 Z" vector-effect="non-scaling-stroke"/></g></svg>