<svg width="184.924mm" height="110.56mm" viewBox="0 0 184.924 110.56" xmlns="http://www.w3.org/2000/svg"><g id="svgGroup" stroke-linecap="round" fill-rule="evenodd" font-size="9pt" stroke="#000" stroke-width="0.25mm" fill="none" style="stroke:#000;stroke-width:0.25mm;fill:none"><path d="M 1.691 71.613 L 16.51 73.934 A 2 2 0 0 0 18.795 72.267 L 19.414 68.315 A 2 2 0 0 1 21.699 66.649 L 27.627 67.577 A 2 2 0 0 0 29.913 65.91 L 30.842 59.978 L 38.634 61.282 A 2 2 0 0 0 40.936 59.64 L 41.374 57.022 A 2 2 0 0 1 44.289 55.588 L 45.403 56.183 A 2 2 0 0 1 46.45 57.735 L 47.255 65.274 A 2 2 0 0 0 49.457 67.05 L 55.423 66.413 A 2 2 0 0 1 57.624 68.189 L 58.049 72.166 A 2 2 0 0 0 60.25 73.942 L 66.446 73.28 L 66.523 73.638 L 69.764 72.937 A 2 2 0 0 1 69.974 72.903 L 74.658 72.402 A 2 2 0 0 1 76.826 73.968 L 77.565 77.389 A 2 2 0 0 0 79.943 78.921 L 92.039 76.306 A 2 2 0 0 1 92.884 76.306 L 104.981 78.921 A 2 2 0 0 0 107.358 77.389 L 108.098 73.968 A 2 2 0 0 1 110.265 72.402 L 114.95 72.903 A 2 2 0 0 1 115.16 72.937 L 118.401 73.638 L 118.478 73.28 L 124.674 73.942 A 2 2 0 0 0 126.875 72.166 L 127.3 68.189 A 2 2 0 0 1 129.501 66.413 L 135.467 67.05 A 2 2 0 0 0 137.668 65.274 L 138.474 57.735 A 2 2 0 0 1 139.521 56.183 L 140.635 55.588 A 2 2 0 0 1 143.549 57.022 L 143.987 59.64 A 2 2 0 0 0 146.29 61.282 L 154.082 59.978 L 155.011 65.91 A 2 2 0 0 0 157.296 67.577 L 163.224 66.649 A 2 2 0 0 1 165.509 68.315 L 166.128 72.267 A 2 2 0 0 0 168.414 73.934 L 183.233 71.613 A 2 2 0 0 0 184.9 69.328 L 177.009 18.942 A 2 2 0 0 0 174.724 17.275 L 166.516 18.56 L 165.492 12.443 A 2 2 0 0 0 163.19 10.8 L 157.272 11.791 A 2 2 0 0 1 154.969 10.148 L 154.309 6.203 A 2 2 0 0 0 152.007 4.561 L 137.212 7.036 A 2 2 0 0 0 135.57 9.339 L 135.986 11.825 L 130.237 1.058 A 2 2 0 0 0 127.53 0.236 L 105.477 12.011 A 2 2 0 0 0 104.655 14.717 L 106.539 18.246 A 2 2 0 0 1 105.717 20.952 L 103.888 21.928 A 2 2 0 0 1 102.524 22.119 L 101.943 21.993 A 2 2 0 0 0 99.565 23.525 L 99.391 24.33 L 98.66 24.72 L 99.12 25.583 L 92.462 56.38 L 85.803 25.583 L 86.264 24.72 L 85.532 24.33 L 85.358 23.525 A 2 2 0 0 0 82.981 21.993 L 81.683 22.274 L 79.207 20.952 A 2 2 0 0 1 78.385 18.246 L 80.269 14.717 A 2 2 0 0 0 79.446 12.011 L 57.393 0.236 A 2 2 0 0 0 54.687 1.058 L 48.938 11.825 L 49.354 9.339 A 2 2 0 0 0 47.711 7.036 L 32.917 4.561 A 2 2 0 0 0 30.614 6.203 L 29.954 10.148 A 2 2 0 0 1 27.652 11.791 L 21.734 10.8 A 2 2 0 0 0 19.431 12.443 L 18.407 18.56 L 10.2 17.275 A 2 2 0 0 0 7.914 18.942 L 0.024 69.328 A 2 2 0 0 0 1.691 71.613 Z M 52.78 110.555 L 92.312 107.582 A 2 2 0 0 1 92.612 107.582 L 132.144 110.555 A 2 2 0 0 0 134.288 108.71 L 135.413 93.752 A 2 2 0 0 0 133.569 91.608 L 104.339 89.41 L 104.206 87.634 L 92.612 88.506 A 2 2 0 0 1 92.312 88.506 L 80.718 87.634 L 80.584 89.41 L 51.355 91.608 A 2 2 0 0 0 49.511 93.752 L 50.635 108.71 A 2 2 0 0 0 52.78 110.555 Z" vector-effect="non-scaling-stroke"/></g></svg>