0
SECTION
2
HEADER
9
$INSUNITS
70
4
0
ENDSEC
0
SECTION
2
TABLES
0
TABLE
2
LTYPE
0
LTYPE
72
65
70
64
2
CONTINUOUS
3
______
73
0
40
0
0
ENDTAB
0
TABLE
2
LAYER
0
ENDTAB
0
ENDSEC
0
SECTION
2
ENTITIES
0
LINE
8
0
10
91.1205523
20
-108.2252909
11
105.9399504
21
-110.5459466
0
LINE
8
0
10
108.2252909
20
-108.8794477
11
108.8441324
21
-104.9276081
0
LINE
8
0
10
89.4540534
20
-105.9399504
11
97.3442831
21
-55.5539971
0
LINE
8
0
10
120.2715644
20
-96.5904549
11
119.3425726
21
-102.5228726
0
LINE
8
0
10
117.0572321
20
-104.1893715
11
111.1294729
21
-103.2611092
0
LINE
8
0
10
99.6296236
20
-53.8874982
11
107.8374611
21
-55.1728112
0
LINE
8
0
10
120.2715644
20
-96.5904549
11
128.0637533
21
-97.8944202
0
LINE
8
0
10
130.3664197
20
-96.2519442
11
130.8044108
21
-93.6346126
0
LINE
8
0
10
111.1638507
20
-47.4128068
11
117.0815643
21
-48.4030924
0
LINE
8
0
10
107.8374611
20
-55.1728112
11
108.8611843
21
-49.0552828
0
LINE
8
0
10
138.3677767
20
-48.4377198
11
138.7838476
21
-45.9513785
0
LINE
8
0
10
137.1413716
20
-43.6487121
11
122.3470875
21
-41.172998
0
LINE
8
0
10
120.0444211
20
-42.815474
11
119.3842307
21
-46.7606164
0
LINE
8
0
10
133.7190057
20
-92.200454
11
134.8329777
21
-92.7952597
0
LINE
8
0
10
168.6368518
20
-57.5645293
11
171.1125313
21
-58.8864191
0
LINE
8
0
10
174.9623199
20
-60.9420148
11
175.6938667
21
-61.3326244
0
LINE
8
0
10
175.6938667
20
-61.3326244
11
175.2332756
21
-62.1952348
0
LINE
8
0
10
138.3677767
20
-48.4377198
11
144.1169902
21
-37.6703998
0
LINE
8
0
10
167.8146218
20
-54.8582519
11
169.6986693
21
-51.3297443
0
LINE
8
0
10
146.8232677
20
-36.8481699
11
168.8764394
21
-48.6234669
0
LINE
8
0
10
149.6800623
20
-110.5546599
11
155.8757248
21
-109.8925346
0
LINE
8
0
10
159.4038818
20
-109.5154834
11
164.0882528
21
-109.0148685
0
LINE
8
0
10
147.0538019
20
-104.8011603
11
147.4788582
21
-108.7785122
0
LINE
8
0
10
144.8525978
20
-103.0250126
11
138.8865703
21
-103.662597
0
LINE
8
0
10
136.6853662
20
-101.8864494
11
135.8796299
21
-94.3469852
0
LINE
8
0
10
169.3726011
20
-115.5334317
11
181.4691388
21
-112.9180676
0
LINE
8
0
10
166.2556128
20
-110.5808948
11
166.9951197
21
-114.0012495
0
LINE
8
0
10
175.2332756
20
-62.1952348
11
181.8917884
21
-92.9920765
0
LINE
8
0
10
159.1937604
20
-109.5493275
11
155.953012
21
-110.2500021
0
LINE
8
0
10
155.953012
20
-110.2500021
11
155.8757248
21
-109.8925346
0
LINE
8
0
10
174.9623199
20
-60.9420148
11
174.7884571
21
-60.1378677
0
LINE
8
0
10
172.4109757
20
-58.6056855
11
171.1125313
21
-58.8864191
0
LINE
8
0
10
142.2095776
20
-147.1670755
11
181.7418316
21
-144.1946304
0
LINE
8
0
10
140.7849819
20
-128.2205578
11
170.0142362
21
-126.0227991
0
LINE
8
0
10
138.940569
20
-130.3648856
11
140.0652498
21
-145.3226626
0
LINE
8
0
10
193.7693406
20
-126.0227993
11
193.6357939
21
-124.2466853
0
LINE
8
0
10
193.6357939
20
-124.2466853
11
182.0417464
21
-125.1184462
0
LINE
8
0
10
257.8436264
20
-110.5459466
11
272.6630245
21
-108.2252909
0
LINE
8
0
10
266.4392937
20
-55.5539971
11
274.3295234
21
-105.9399504
0
LINE
8
0
10
254.9394444
20
-104.9276081
11
255.5582859
21
-108.8794477
0
LINE
8
0
10
252.6541039
20
-103.2611092
11
246.7263447
21
-104.1893715
0
LINE
8
0
10
244.4410042
20
-102.5228726
11
243.5120124
21
-96.5904549
0
LINE
8
0
10
255.9461157
20
-55.1728112
11
264.1539532
21
-53.8874982
0
LINE
8
0
10
235.7198235
20
-97.8944202
11
243.5120124
21
-96.5904549
0
LINE
8
0
10
232.979166
20
-93.6346126
11
233.4171571
21
-96.2519442
0
LINE
8
0
10
246.7020125
20
-48.4030924
11
252.6197261
21
-47.4128068
0
LINE
8
0
10
254.9223925
20
-49.0552828
11
255.9461157
21
-55.1728112
0
LINE
8
0
10
244.3993461
20
-46.7606164
11
243.7391557
21
-42.815474
0
LINE
8
0
10
241.4364893
20
-41.172998
11
226.6422052
21
-43.6487121
0
LINE
8
0
10
224.9997292
20
-45.9513785
11
225.4158001
21
-48.4377198
0
LINE
8
0
10
228.9505991
20
-92.7952597
11
230.0645711
21
-92.200454
0
LINE
8
0
10
219.6665866
20
-37.6703998
11
225.4158001
21
-48.4377198
0
LINE
8
0
10
188.0897101
20
-61.3326244
11
188.8212569
21
-60.9420148
0
LINE
8
0
10
193.318417
20
-58.5407549
11
195.146725
21
-57.5645293
0
LINE
8
0
10
188.5503012
20
-62.1952348
11
188.0897101
21
-61.3326244
0
LINE
8
0
10
194.9071374
20
-48.6234669
11
216.9603091
21
-36.8481699
0
LINE
8
0
10
194.0849075
20
-51.3297443
11
195.968955
21
-54.8582519
0
LINE
8
0
10
199.695324
20
-109.0148685
11
204.379695
21
-109.5154834
0
LINE
8
0
10
207.907852
20
-109.8925346
11
214.1035145
21
-110.5546599
0
LINE
8
0
10
216.3047186
20
-108.7785122
11
216.7297749
21
-104.8011603
0
LINE
8
0
10
227.9039469
20
-94.3469852
11
227.0982106
21
-101.8864494
0
LINE
8
0
10
224.8970065
20
-103.662597
11
218.930979
21
-103.0250126
0
LINE
8
0
10
182.314438
20
-112.9180676
11
194.4109757
21
-115.5334317
0
LINE
8
0
10
196.7884571
20
-114.0012495
11
197.527964
21
-110.5808948
0
LINE
8
0
10
181.8917884
20
-92.9920765
11
188.5503012
21
-62.1952348
0
LINE
8
0
10
207.907852
20
-109.8925346
11
207.8305648
21
-110.2500021
0
LINE
8
0
10
207.8305648
20
-110.2500021
11
204.5898164
21
-109.5493275
0
LINE
8
0
10
191.9537437
20
-58.731333
11
191.3726011
21
-58.6056855
0
LINE
8
0
10
188.9951197
20
-60.1378677
11
188.8212569
21
-60.9420148
0
LINE
8
0
10
182.0417466
20
-144.1946304
11
221.5739992
21
-147.1670755
0
LINE
8
0
10
223.718327
20
-145.3226626
11
224.8430078
21
-130.3648856
0
LINE
8
0
10
193.7693406
20
-126.0227993
11
222.9985949
21
-128.2205578
0
LINE
8
0
10
181.7418316
20
-125.1184462
11
170.1477829
21
-124.2466853
0
LINE
8
0
10
170.1477829
20
-124.2466853
11
170.0142362
21
-126.0227991
0
ARC
8
0
10
106.2493711
20
-108.5700269
40
2
50
261.0999995
51
351.0999995
0
ARC
8
0
10
110.8200521
20
-105.2370289
40
2
50
81.0999995
51
171.0999995
0
ARC
8
0
10
117.3666529
20
-102.2134518
40
2
50
261.0999995
51
351.0999995
0
ARC
8
0
10
128.3938485
20
-95.921849
40
2
50
260.5000003
51
350.5000003
0
ARC
8
0
10
132.776982
20
-93.9647078
40
2
50
61.9
51
170.5000003
0
ARC
8
0
10
133.890954
20
-94.5595134
40
2
50
6.1000019
51
61.9
0
ARC
8
0
10
138.6740421
20
-101.6739212
40
2
50
186.1000019
51
276.1000019
0
ARC
8
0
10
145.065126
20
-105.0136885
40
2
50
6.1000019
51
96.1000019
0
ARC
8
0
10
149.467534
20
-108.565984
40
2
50
186.1000019
51
276.1000019
0
ARC
8
0
10
159.61641
20
-111.5041593
40
2
50
96.1000019
51
102.2000001
0
ARC
8
0
10
164.300781
20
-111.0035444
40
2
50
12.2000001
51
96.1000019
0
ARC
8
0
10
168.9499515
20
-113.5785999
40
2
50
192.2000001
51
282.2000001
0
ARC
8
0
10
181.8917884
20
-114.8728994
40
2
50
77.7999999
51
102.2000001
0
ARC
8
0
10
194.8336253
20
-113.5785999
40
2
50
257.7999999
51
347.7999999
0
ARC
8
0
10
199.4827958
20
-111.0035444
40
2
50
83.8999981
51
167.7999999
0
ARC
8
0
10
204.1671668
20
-111.5041593
40
2
50
77.7999999
51
83.8999981
0
ARC
8
0
10
214.3160428
20
-108.565984
40
2
50
263.8999981
51
353.8999981
0
ARC
8
0
10
218.7184508
20
-105.0136885
40
2
50
83.8999981
51
173.8999981
0
ARC
8
0
10
225.1095347
20
-101.6739212
40
2
50
263.8999981
51
353.8999981
0
ARC
8
0
10
229.8926228
20
-94.5595134
40
2
50
118.1
51
173.8999981
0
ARC
8
0
10
231.0065948
20
-93.9647078
40
2
50
9.4999997
51
118.1
0
ARC
8
0
10
235.3897283
20
-95.921849
40
2
50
189.4999997
51
279.4999997
0
ARC
8
0
10
246.4169239
20
-102.2134518
40
2
50
188.9000005
51
278.9000005
0
ARC
8
0
10
252.9635247
20
-105.2370289
40
2
50
8.9000005
51
98.9000005
0
ARC
8
0
10
257.5342057
20
-108.5700269
40
2
50
188.9000005
51
278.9000005
0
ARC
8
0
10
272.3536037
20
-106.2493712
40
2
50
278.9000005
51
8.9000005
0
ARC
8
0
10
264.463374
20
-55.8634179
40
2
50
8.9000005
51
98.9000005
0
ARC
8
0
10
252.9498213
20
-49.385378
40
2
50
9.4999997
51
99.4999997
0
ARC
8
0
10
246.3719173
20
-46.4305212
40
2
50
189.4999997
51
279.4999997
0
ARC
8
0
10
241.7665845
20
-43.1455692
40
2
50
9.4999997
51
99.4999997
0
ARC
8
0
10
226.9723004
20
-45.6212833
40
2
50
99.4999997
51
189.4999997
0
ARC
8
0
10
217.9023328
20
-38.6124236
40
2
50
28.1
51
118.1
0
ARC
8
0
10
195.8491612
20
-50.3877206
40
2
50
118.1
51
208.1
0
ARC
8
0
10
194.2047013
20
-55.8002756
40
2
50
298.1
51
28.1
0
ARC
8
0
10
192.3763933
20
-56.7765012
40
2
50
257.7999999
51
298.1
0
ARC
8
0
10
190.9499515
20
-60.5605173
40
2
50
77.7999999
51
167.7999999
0
ARC
8
0
10
172.8336253
20
-60.5605173
40
2
50
12.2000001
51
102.2000001
0
ARC
8
0
10
169.5788755
20
-55.8002756
40
2
50
151.9
51
241.9
0
ARC
8
0
10
167.9344156
20
-50.3877206
40
2
50
331.9
51
61.9
0
ARC
8
0
10
145.881244
20
-38.6124236
40
2
50
61.9
51
151.9
0
ARC
8
0
10
136.8112764
20
-45.6212833
40
2
50
350.5000003
51
80.5000003
0
ARC
8
0
10
122.0169923
20
-43.1455692
40
2
50
80.5000003
51
170.5000003
0
ARC
8
0
10
117.4116595
20
-46.4305212
40
2
50
260.5000003
51
350.5000003
0
ARC
8
0
10
110.8337555
20
-49.385378
40
2
50
80.5000003
51
170.5000003
0
ARC
8
0
10
99.3202028
20
-55.8634179
40
2
50
81.0999995
51
171.0999995
0
ARC
8
0
10
91.4299731
20
-106.2493712
40
2
50
171.0999995
51
261.0999995
0
ARC
8
0
10
181.891789
20
-146.1890007
40
2
50
85.6999957
51
94.2999986
0
ARC
8
0
10
221.7239567
20
-145.1727052
40
2
50
265.7000014
51
355.7000014
0
ARC
8
0
10
222.8486375
20
-130.2149281
40
2
50
355.7000014
51
85.7000014
0
ARC
8
0
10
181.891789
20
-123.1240759
40
2
50
265.7000014
51
274.2999986
0
ARC
8
0
10
140.9349393
20
-130.2149281
40
2
50
94.2999986
51
184.2999986
0
ARC
8
0
10
142.0596201
20
-145.1727052
40
2
50
184.2999986
51
274.2999986
0
ENDSEC
0
EOF