<svg width="179.552mm" height="100.693mm" viewBox="0 0 179.552 100.693" xmlns="http://www.w3.org/2000/svg"><g id="svgGroup" stroke-linecap="round" fill-rule="evenodd" font-size="9pt" stroke="#000" stroke-width="0.25mm" fill="none" style="stroke:#000;stroke-width:0.25mm;fill:none"><path d="M 39.377 44.228 L 51.551 50.728 L 55.64 43.068 L 55.972 46.171 L 69.694 44.705 L 68.227 30.983 L 61.722 31.678 L 64.114 27.199 L 67.781 26.807 L 67.406 23.294 L 69.686 33.842 L 83.175 30.926 L 80.258 17.437 L 67.084 20.286 L 66.849 18.086 L 68.507 18.971 L 75.007 6.798 L 62.834 0.298 L 56.334 12.471 L 58.955 13.871 L 52.593 14.551 L 53.032 18.656 L 47.855 28.35 L 55.362 32.358 L 54.506 32.449 L 54.983 36.917 L 45.877 32.055 L 39.377 44.228 Z M 128.002 50.728 L 140.175 44.228 L 133.675 32.055 L 124.569 36.917 L 125.047 32.449 L 124.19 32.358 L 131.697 28.35 L 126.521 18.656 L 126.96 14.551 L 120.597 13.871 L 123.219 12.471 L 116.719 0.298 L 104.545 6.798 L 111.045 18.971 L 112.703 18.086 L 112.468 20.286 L 99.294 17.437 L 96.378 30.926 L 109.866 33.842 L 112.147 23.294 L 111.771 26.807 L 115.438 27.199 L 117.83 31.678 L 111.325 30.983 L 109.859 44.705 L 123.58 46.171 L 123.912 43.068 L 128.002 50.728 Z M 68.447 99.343 L 82.208 98.309 L 82.122 97.164 L 86.358 97.483 L 86.396 97.994 L 89.776 97.74 L 93.156 97.994 L 93.195 97.483 L 97.431 97.164 L 97.345 98.309 L 111.106 99.343 L 112.14 85.582 L 99.229 84.611 L 99.122 83.198 L 89.776 83.901 L 80.43 83.198 L 80.324 84.611 L 67.412 85.582 L 68.447 99.343 Z M 77.294 69.029 L 89.776 66.33 L 102.258 69.029 L 105.175 55.541 L 91.686 52.624 L 89.776 61.459 L 87.866 52.624 L 74.378 55.541 L 77.294 69.029 Z M 73.49 51.436 L 86.979 48.519 L 84.062 35.031 L 70.574 37.947 L 73.49 51.436 Z M 92.574 48.519 L 106.062 51.436 L 108.979 37.947 L 95.49 35.031 L 92.574 48.519 Z M 25.146 31.364 L 38.756 33.642 L 41.034 20.031 L 27.423 17.753 L 25.146 31.364 Z M 28.117 13.611 L 41.727 15.888 L 44.005 2.278 L 30.394 0 L 28.117 13.611 Z M 22.175 49.117 L 35.786 51.395 L 38.063 37.784 L 24.452 35.506 L 22.175 49.117 Z M 143.767 51.395 L 157.378 49.117 L 155.1 35.506 L 141.489 37.784 L 143.767 51.395 Z M 140.796 33.642 L 154.407 31.364 L 152.129 17.753 L 138.518 20.031 L 140.796 33.642 Z M 137.825 15.888 L 151.436 13.611 L 149.158 0 L 135.548 2.278 L 137.825 15.888 Z M 57.885 64.069 L 71.607 62.603 L 70.14 48.881 L 56.418 50.347 L 57.885 64.069 Z M 107.946 62.603 L 121.668 64.069 L 123.134 50.347 L 109.412 48.881 L 107.946 62.603 Z M 50.497 100.693 L 64.259 99.658 L 63.224 85.897 L 49.463 86.932 L 50.497 100.693 Z M 115.294 99.658 L 129.055 100.693 L 130.09 86.932 L 116.329 85.897 L 115.294 99.658 Z M 163.134 46.265 L 176.768 44.13 L 174.633 30.496 L 160.999 32.631 L 163.134 46.265 Z M 160.349 28.482 L 173.983 26.346 L 171.848 12.713 L 158.214 14.848 L 160.349 28.482 Z M 2.785 44.13 L 16.419 46.265 L 18.554 32.631 L 4.92 30.496 L 2.785 44.13 Z M 0 61.913 L 13.634 64.048 L 15.769 50.414 L 2.135 48.279 L 0 61.913 Z M 5.57 26.346 L 19.203 28.482 L 21.338 14.848 L 7.705 12.713 L 5.57 26.346 Z M 165.919 64.048 L 179.552 61.913 L 177.417 48.279 L 163.784 50.414 L 165.919 64.048 Z" vector-effect="non-scaling-stroke"/></g></svg>