0
SECTION
2
HEADER
9
$INSUNITS
70
4
0
ENDSEC
0
SECTION
2
TABLES
0
TABLE
2
LTYPE
0
LTYPE
72
65
70
64
2
CONTINUOUS
3
______
73
0
40
0
0
ENDTAB
0
TABLE
2
LAYER
0
ENDTAB
0
ENDSEC
0
SECTION
2
ENTITIES
0
LINE
8
0
10
92.1155753
20
-105.7494214
11
105.7494214
21
-107.8844247
0
LINE
8
0
10
105.7494214
20
-107.8844247
11
107.8844247
21
-94.2505786
0
LINE
8
0
10
107.8844247
20
-94.2505786
11
94.2505786
21
-92.1155753
0
LINE
8
0
10
94.2505786
20
-92.1155753
11
92.1155753
21
-105.7494214
0
LINE
8
0
10
94.9003623
20
-87.9661438
11
108.5342084
21
-90.1011471
0
LINE
8
0
10
108.5342084
20
-90.1011471
11
110.6692117
21
-76.467301
0
LINE
8
0
10
110.6692117
20
-76.467301
11
97.0353656
21
-74.3322977
0
LINE
8
0
10
97.0353656
20
-74.3322977
11
94.9003623
21
-87.9661438
0
LINE
8
0
10
97.6851493
20
-70.1828662
11
111.3189954
21
-72.3178695
0
LINE
8
0
10
111.3189954
20
-72.3178695
11
113.4539987
21
-58.6840234
0
LINE
8
0
10
113.4539987
20
-58.6840234
11
99.8201526
21
-56.5490201
0
LINE
8
0
10
99.8201526
20
-56.5490201
11
97.6851493
21
-70.1828662
0
LINE
8
0
10
114.2903644
20
-92.9533921
11
127.9011057
21
-95.231049
0
LINE
8
0
10
127.9011057
20
-95.231049
11
130.1787626
21
-81.6203077
0
LINE
8
0
10
130.1787626
20
-81.6203077
11
116.5680213
21
-79.3426508
0
LINE
8
0
10
116.5680213
20
-79.3426508
11
114.2903644
21
-92.9533921
0
LINE
8
0
10
117.2612213
20
-75.2002513
11
130.8719626
21
-77.4779082
0
LINE
8
0
10
130.8719626
20
-77.4779082
11
133.1496195
21
-63.8671669
0
LINE
8
0
10
133.1496195
20
-63.8671669
11
119.5388782
21
-61.58951
0
LINE
8
0
10
119.5388782
20
-61.58951
11
117.2612213
21
-75.2002513
0
LINE
8
0
10
120.2320782
20
-57.4471105
11
133.8428195
21
-59.7247674
0
LINE
8
0
10
133.8428195
20
-59.7247674
11
136.1204764
21
-46.1140261
0
LINE
8
0
10
136.1204764
20
-46.1140261
11
122.5097351
21
-43.8363692
0
LINE
8
0
10
122.5097351
20
-43.8363692
11
120.2320782
21
-57.4471105
0
LINE
8
0
10
131.4927898
20
-88.0643436
11
143.6661406
21
-94.5643076
0
LINE
8
0
10
143.6661406
20
-94.5643076
11
147.756021
21
-86.9046423
0
LINE
8
0
10
147.0986071
20
-80.7530657
11
137.9927538
21
-75.8909928
0
LINE
8
0
10
137.9927538
20
-75.8909928
11
131.4927898
21
-88.0643436
0
LINE
8
0
10
139.9710037
20
-72.18606
11
147.4775099
21
-76.194161
0
LINE
8
0
10
153.8378228
20
-75.5144397
11
156.2296695
21
-71.0349089
0
LINE
8
0
10
145.1470768
20
-62.4921366
11
139.9710037
21
-72.18606
0
LINE
8
0
10
148.4492176
20
-56.3077764
11
151.0709259
21
-57.7076383
0
LINE
8
0
10
158.9647888
20
-61.9225685
11
160.6225684
21
-62.8077404
0
LINE
8
0
10
160.6225684
20
-62.8077404
11
167.1225324
21
-50.6343896
0
LINE
8
0
10
167.1225324
20
-50.6343896
11
154.9491816
21
-44.1344256
0
LINE
8
0
10
154.9491816
20
-44.1344256
11
148.4492176
21
-56.3077764
0
LINE
8
0
10
150.0003784
20
-107.9056228
11
163.722242
21
-106.4391786
0
LINE
8
0
10
163.722242
20
-106.4391786
11
162.2557978
21
-92.717315
0
LINE
8
0
10
162.2557978
20
-92.717315
11
148.5339342
21
-94.1837592
0
LINE
8
0
10
148.5339342
20
-94.1837592
11
150.0003784
21
-107.9056228
0
LINE
8
0
10
148.0876251
20
-90.0075398
11
161.8094887
21
-88.5410956
0
LINE
8
0
10
161.8094887
20
-88.5410956
11
160.3430445
21
-74.819232
0
LINE
8
0
10
160.3430445
20
-74.819232
11
153.8378228
21
-75.5144397
0
LINE
8
0
10
147.4775099
20
-76.194161
11
146.6211809
21
-76.2856762
0
LINE
8
0
10
146.6211809
20
-76.2856762
11
147.0986071
21
-80.7530657
0
LINE
8
0
10
147.756021
20
-86.9046423
11
148.0876251
21
-90.0075398
0
LINE
8
0
10
156.2296695
20
-71.0349089
11
159.8967354
21
-70.6430126
0
LINE
8
0
10
159.8967354
20
-70.6430126
11
159.5213323
21
-67.1302775
0
LINE
8
0
10
159.1998516
20
-64.1221071
11
158.9647888
21
-61.9225685
0
LINE
8
0
10
151.0709259
20
-57.7076383
11
144.7084276
21
-58.3875932
0
LINE
8
0
10
144.7084276
20
-58.3875932
11
145.1470768
21
-62.4921366
0
LINE
8
0
10
169.4096061
20
-112.8653555
11
181.8917884
21
-110.1666122
0
LINE
8
0
10
181.8917884
20
-105.2954124
11
179.9816633
21
-96.4607339
0
LINE
8
0
10
179.9816633
20
-96.4607339
11
166.4933239
21
-99.3770161
0
LINE
8
0
10
166.4933239
20
-99.3770161
11
169.4096061
21
-112.8653555
0
LINE
8
0
10
165.6057598
20
-95.2718694
11
179.0940992
21
-92.3555872
0
LINE
8
0
10
179.0940992
20
-92.3555872
11
176.177817
21
-78.8672478
0
LINE
8
0
10
176.177817
20
-78.8672478
11
162.6894776
21
-81.78353
0
LINE
8
0
10
162.6894776
20
-81.78353
11
165.6057598
21
-95.2718694
0
LINE
8
0
10
161.8019135
20
-77.6783833
11
175.2902529
21
-74.7621011
0
LINE
8
0
10
175.2902529
20
-74.7621011
11
172.3739707
21
-61.2737617
0
LINE
8
0
10
172.3739707
20
-61.2737617
11
159.1998516
21
-64.1221071
0
LINE
8
0
10
159.5213323
20
-67.1302775
11
161.8019135
21
-77.6783833
0
LINE
8
0
10
142.612944
20
-144.5294068
11
156.3740988
21
-143.4947004
0
LINE
8
0
10
156.3740988
20
-143.4947004
11
155.3393924
21
-129.7335456
0
LINE
8
0
10
155.3393924
20
-129.7335456
11
141.5782376
21
-130.768252
0
LINE
8
0
10
141.5782376
20
-130.768252
11
142.612944
21
-144.5294068
0
LINE
8
0
10
160.5622764
20
-143.1797898
11
174.3234312
21
-142.1450834
0
LINE
8
0
10
174.3234312
20
-142.1450834
11
174.2373678
21
-141.0004769
0
LINE
8
0
10
172.4392387
20
-128.4478018
11
159.52757
21
-129.418635
0
LINE
8
0
10
159.52757
20
-129.418635
11
160.5622764
21
-143.1797898
0
LINE
8
0
10
178.5116088
20
-141.8301726
11
181.8917884
21
-141.5760156
0
LINE
8
0
10
185.3104056
20
-141.3189685
11
189.546209
21
-141.0004769
0
LINE
8
0
10
191.3443381
20
-128.4478018
11
191.2380572
21
-127.0343114
0
LINE
8
0
10
191.2380572
20
-127.0343114
11
181.8917884
21
-127.7370609
0
LINE
8
0
10
178.4731712
20
-141.3189685
11
178.5116088
21
-141.8301726
0
LINE
8
0
10
258.0341554
20
-107.8844247
11
271.6680015
21
-105.7494214
0
LINE
8
0
10
271.6680015
20
-105.7494214
11
269.5329982
21
-92.1155753
0
LINE
8
0
10
269.5329982
20
-92.1155753
11
255.8991521
21
-94.2505786
0
LINE
8
0
10
255.8991521
20
-94.2505786
11
258.0341554
21
-107.8844247
0
LINE
8
0
10
255.2493684
20
-90.1011471
11
268.8832145
21
-87.9661438
0
LINE
8
0
10
268.8832145
20
-87.9661438
11
266.7482112
21
-74.3322977
0
LINE
8
0
10
266.7482112
20
-74.3322977
11
253.1143651
21
-76.467301
0
LINE
8
0
10
253.1143651
20
-76.467301
11
255.2493684
21
-90.1011471
0
LINE
8
0
10
252.4645814
20
-72.3178695
11
266.0984275
21
-70.1828662
0
LINE
8
0
10
266.0984275
20
-70.1828662
11
263.9634242
21
-56.5490201
0
LINE
8
0
10
263.9634242
20
-56.5490201
11
250.3295781
21
-58.6840234
0
LINE
8
0
10
250.3295781
20
-58.6840234
11
252.4645814
21
-72.3178695
0
LINE
8
0
10
235.8824711
20
-95.231049
11
249.4932124
21
-92.9533921
0
LINE
8
0
10
249.4932124
20
-92.9533921
11
247.2155555
21
-79.3426508
0
LINE
8
0
10
247.2155555
20
-79.3426508
11
233.6048142
21
-81.6203077
0
LINE
8
0
10
233.6048142
20
-81.6203077
11
235.8824711
21
-95.231049
0
LINE
8
0
10
232.9116142
20
-77.4779082
11
246.5223555
21
-75.2002513
0
LINE
8
0
10
246.5223555
20
-75.2002513
11
244.2446986
21
-61.58951
0
LINE
8
0
10
244.2446986
20
-61.58951
11
230.6339573
21
-63.8671669
0
LINE
8
0
10
230.6339573
20
-63.8671669
11
232.9116142
21
-77.4779082
0
LINE
8
0
10
229.9407573
20
-59.7247674
11
243.5514986
21
-57.4471105
0
LINE
8
0
10
243.5514986
20
-57.4471105
11
241.2738417
21
-43.8363692
0
LINE
8
0
10
241.2738417
20
-43.8363692
11
227.6631004
21
-46.1140261
0
LINE
8
0
10
227.6631004
20
-46.1140261
11
229.9407573
21
-59.7247674
0
LINE
8
0
10
220.1174362
20
-94.5643076
11
232.290787
21
-88.0643436
0
LINE
8
0
10
232.290787
20
-88.0643436
11
225.790823
21
-75.8909928
0
LINE
8
0
10
225.790823
20
-75.8909928
11
216.6849697
21
-80.7530657
0
LINE
8
0
10
216.0275558
20
-86.9046423
11
220.1174362
21
-94.5643076
0
LINE
8
0
10
216.3060669
20
-76.194161
11
223.8125731
21
-72.18606
0
LINE
8
0
10
223.8125731
20
-72.18606
11
218.6365
21
-62.4921366
0
LINE
8
0
10
207.5539073
20
-71.0349089
11
209.945754
21
-75.5144397
0
LINE
8
0
10
203.1610084
20
-62.8077404
11
204.818788
21
-61.9225685
0
LINE
8
0
10
212.7126509
20
-57.7076383
11
215.3343592
21
-56.3077764
0
LINE
8
0
10
215.3343592
20
-56.3077764
11
208.8343952
21
-44.1344256
0
LINE
8
0
10
208.8343952
20
-44.1344256
11
196.6610444
21
-50.6343896
0
LINE
8
0
10
196.6610444
20
-50.6343896
11
203.1610084
21
-62.8077404
0
LINE
8
0
10
200.0613348
20
-106.4391786
11
213.7831984
21
-107.9056228
0
LINE
8
0
10
213.7831984
20
-107.9056228
11
215.2496426
21
-94.1837592
0
LINE
8
0
10
215.2496426
20
-94.1837592
11
201.527779
21
-92.717315
0
LINE
8
0
10
201.527779
20
-92.717315
11
200.0613348
21
-106.4391786
0
LINE
8
0
10
201.9740881
20
-88.5410956
11
215.6959517
21
-90.0075398
0
LINE
8
0
10
215.6959517
20
-90.0075398
11
216.0275558
21
-86.9046423
0
LINE
8
0
10
216.6849697
20
-80.7530657
11
217.1623959
21
-76.2856762
0
LINE
8
0
10
217.1623959
20
-76.2856762
11
216.3060669
21
-76.194161
0
LINE
8
0
10
209.945754
20
-75.5144397
11
203.4405323
21
-74.819232
0
LINE
8
0
10
203.4405323
20
-74.819232
11
201.9740881
21
-88.5410956
0
LINE
8
0
10
203.8868414
20
-70.6430126
11
207.5539073
21
-71.0349089
0
LINE
8
0
10
218.6365
20
-62.4921366
11
219.0751492
21
-58.3875932
0
LINE
8
0
10
219.0751492
20
-58.3875932
11
212.7126509
21
-57.7076383
0
LINE
8
0
10
204.818788
20
-61.9225685
11
204.5837252
21
-64.1221071
0
LINE
8
0
10
204.2622445
20
-67.1302775
11
203.8868414
21
-70.6430126
0
LINE
8
0
10
181.8917884
20
-110.1666122
11
194.3739707
21
-112.8653555
0
LINE
8
0
10
194.3739707
20
-112.8653555
11
197.2902529
21
-99.3770161
0
LINE
8
0
10
197.2902529
20
-99.3770161
11
183.8019135
21
-96.4607339
0
LINE
8
0
10
183.8019135
20
-96.4607339
11
181.8917884
21
-105.2954124
0
LINE
8
0
10
184.6894776
20
-92.3555872
11
198.177817
21
-95.2718694
0
LINE
8
0
10
198.177817
20
-95.2718694
11
201.0940992
21
-81.78353
0
LINE
8
0
10
201.0940992
20
-81.78353
11
187.6057598
21
-78.8672478
0
LINE
8
0
10
187.6057598
20
-78.8672478
11
184.6894776
21
-92.3555872
0
LINE
8
0
10
188.4933239
20
-74.7621011
11
201.9816633
21
-77.6783833
0
LINE
8
0
10
201.9816633
20
-77.6783833
11
204.2622445
21
-67.1302775
0
LINE
8
0
10
204.5837252
20
-64.1221071
11
191.4096061
21
-61.2737617
0
LINE
8
0
10
191.4096061
20
-61.2737617
11
188.4933239
21
-74.7621011
0
LINE
8
0
10
207.409478
20
-143.4947004
11
221.1706328
21
-144.5294068
0
LINE
8
0
10
221.1706328
20
-144.5294068
11
222.2053392
21
-130.768252
0
LINE
8
0
10
222.2053392
20
-130.768252
11
208.4441844
21
-129.7335456
0
LINE
8
0
10
208.4441844
20
-129.7335456
11
207.409478
21
-143.4947004
0
LINE
8
0
10
189.4601456
20
-142.1450834
11
203.2213004
21
-143.1797898
0
LINE
8
0
10
203.2213004
20
-143.1797898
11
204.2560068
21
-129.418635
0
LINE
8
0
10
204.2560068
20
-129.418635
11
191.3443381
21
-128.4478018
0
LINE
8
0
10
189.546209
20
-141.0004769
11
189.4601456
21
-142.1450834
0
LINE
8
0
10
174.2373678
20
-141.0004769
11
178.4731712
21
-141.3189685
0
LINE
8
0
10
181.8917884
20
-141.5760156
11
185.271968
21
-141.8301726
0
LINE
8
0
10
185.271968
20
-141.8301726
11
185.3104056
21
-141.3189685
0
LINE
8
0
10
181.8917884
20
-127.7370609
11
172.5455196
21
-127.0343114
0
LINE
8
0
10
172.5455196
20
-127.0343114
11
172.4392387
21
-128.4478018
0
ENDSEC
0
EOF