<svg width="183.5mm" height="90.485mm" viewBox="0 0 183.5 90.485" xmlns="http://www.w3.org/2000/svg"><g id="svgGroup" stroke-linecap="round" fill-rule="evenodd" font-size="9pt" stroke="#000" stroke-width="0.25mm" fill="none" style="stroke:#000;stroke-width:0.25mm;fill:none"><path d="M 86.568 63.958 L 86.886 62.152 L 69.652 59.114 L 67.545 71.063 L 60.156 75.329 L 68.906 90.485 L 83.282 82.185 L 83.794 83.591 L 91.75 80.695 L 99.706 83.591 L 100.218 82.185 L 114.594 90.485 L 123.344 75.329 L 115.955 71.063 L 113.848 59.114 L 96.614 62.152 L 96.932 63.958 L 95.018 63.261 L 94.253 61.161 L 91.75 62.072 L 89.247 61.161 L 88.482 63.261 L 86.568 63.958 Z M 0 65 L 17.5 65 L 17.5 47.5 L 0 47.5 L 0 65 Z M 0 46 L 17.5 46 L 17.5 28.5 L 0 28.5 L 0 46 Z M 0 27 L 17.5 27 L 17.5 9.5 L 0 9.5 L 0 27 Z M 18 63 L 35.5 63 L 35.5 45.5 L 18 45.5 L 18 63 Z M 18 44 L 35.5 44 L 35.5 26.5 L 18 26.5 L 18 44 Z M 18 25 L 35.5 25 L 35.5 7.5 L 18 7.5 L 18 25 Z M 36 58 L 53.5 58 L 53.5 40.5 L 36 40.5 L 36 58 Z M 36 39 L 53.5 39 L 53.5 21.5 L 36 21.5 L 36 39 Z M 36 20 L 53.5 20 L 53.5 2.5 L 36 2.5 L 36 20 Z M 54 55.5 L 71.5 55.5 L 71.5 38 L 54 38 L 54 55.5 Z M 54 36.5 L 71.5 36.5 L 71.5 19 L 54 19 L 54 36.5 Z M 54 17.5 L 71.5 17.5 L 71.5 0 L 54 0 L 54 17.5 Z M 72 58 L 89.5 58 L 89.5 40.5 L 72 40.5 L 72 58 Z M 72 39 L 89.5 39 L 89.5 21.5 L 72 21.5 L 72 39 Z M 72 20 L 89.5 20 L 89.5 2.5 L 72 2.5 L 72 20 Z M 166 65 L 183.5 65 L 183.5 47.5 L 166 47.5 L 166 65 Z M 166 46 L 183.5 46 L 183.5 28.5 L 166 28.5 L 166 46 Z M 166 27 L 183.5 27 L 183.5 9.5 L 166 9.5 L 166 27 Z M 148 63 L 165.5 63 L 165.5 45.5 L 148 45.5 L 148 63 Z M 148 44 L 165.5 44 L 165.5 26.5 L 148 26.5 L 148 44 Z M 148 25 L 165.5 25 L 165.5 7.5 L 148 7.5 L 148 25 Z M 130 58 L 147.5 58 L 147.5 40.5 L 130 40.5 L 130 58 Z M 130 39 L 147.5 39 L 147.5 21.5 L 130 21.5 L 130 39 Z M 130 20 L 147.5 20 L 147.5 2.5 L 130 2.5 L 130 20 Z M 112 55.5 L 129.5 55.5 L 129.5 38 L 112 38 L 112 55.5 Z M 112 36.5 L 129.5 36.5 L 129.5 19 L 112 19 L 112 36.5 Z M 112 17.5 L 129.5 17.5 L 129.5 0 L 112 0 L 112 17.5 Z M 94 58 L 111.5 58 L 111.5 40.5 L 94 40.5 L 94 58 Z M 94 39 L 111.5 39 L 111.5 21.5 L 94 21.5 L 94 39 Z M 94 20 L 111.5 20 L 111.5 2.5 L 94 2.5 L 94 20 Z" vector-effect="non-scaling-stroke"/></g></svg>