0
SECTION
2
HEADER
9
$INSUNITS
70
4
0
ENDSEC
0
SECTION
2
TABLES
0
TABLE
2
LTYPE
0
LTYPE
72
65
70
64
2
CONTINUOUS
3
______
73
0
40
0
0
ENDTAB
0
TABLE
2
LAYER
0
ENDTAB
0
ENDSEC
0
SECTION
2
ENTITIES
0
LINE
8
0
10
91.25
20
-108.75
11
108.75
21
-108.75
0
LINE
8
0
10
108.75
20
-108.75
11
108.75
21
-91.25
0
LINE
8
0
10
108.75
20
-91.25
11
91.25
21
-91.25
0
LINE
8
0
10
91.25
20
-91.25
11
91.25
21
-108.75
0
LINE
8
0
10
91.25
20
-89.75
11
108.75
21
-89.75
0
LINE
8
0
10
108.75
20
-89.75
11
108.75
21
-72.25
0
LINE
8
0
10
108.75
20
-72.25
11
91.25
21
-72.25
0
LINE
8
0
10
91.25
20
-72.25
11
91.25
21
-89.75
0
LINE
8
0
10
91.25
20
-70.75
11
108.75
21
-70.75
0
LINE
8
0
10
108.75
20
-70.75
11
108.75
21
-53.25
0
LINE
8
0
10
108.75
20
-53.25
11
91.25
21
-53.25
0
LINE
8
0
10
91.25
20
-53.25
11
91.25
21
-70.75
0
LINE
8
0
10
109.25
20
-106.75
11
126.75
21
-106.75
0
LINE
8
0
10
126.75
20
-106.75
11
126.75
21
-89.25
0
LINE
8
0
10
126.75
20
-89.25
11
109.25
21
-89.25
0
LINE
8
0
10
109.25
20
-89.25
11
109.25
21
-106.75
0
LINE
8
0
10
109.25
20
-87.75
11
126.75
21
-87.75
0
LINE
8
0
10
126.75
20
-87.75
11
126.75
21
-70.25
0
LINE
8
0
10
126.75
20
-70.25
11
109.25
21
-70.25
0
LINE
8
0
10
109.25
20
-70.25
11
109.25
21
-87.75
0
LINE
8
0
10
109.25
20
-68.75
11
126.75
21
-68.75
0
LINE
8
0
10
126.75
20
-68.75
11
126.75
21
-51.25
0
LINE
8
0
10
126.75
20
-51.25
11
109.25
21
-51.25
0
LINE
8
0
10
109.25
20
-51.25
11
109.25
21
-68.75
0
LINE
8
0
10
127.25
20
-101.75
11
144.75
21
-101.75
0
LINE
8
0
10
144.75
20
-101.75
11
144.75
21
-84.25
0
LINE
8
0
10
144.75
20
-84.25
11
127.25
21
-84.25
0
LINE
8
0
10
127.25
20
-84.25
11
127.25
21
-101.75
0
LINE
8
0
10
127.25
20
-82.75
11
144.75
21
-82.75
0
LINE
8
0
10
144.75
20
-82.75
11
144.75
21
-65.25
0
LINE
8
0
10
144.75
20
-65.25
11
127.25
21
-65.25
0
LINE
8
0
10
127.25
20
-65.25
11
127.25
21
-82.75
0
LINE
8
0
10
127.25
20
-63.75
11
144.75
21
-63.75
0
LINE
8
0
10
144.75
20
-63.75
11
144.75
21
-46.25
0
LINE
8
0
10
144.75
20
-46.25
11
127.25
21
-46.25
0
LINE
8
0
10
127.25
20
-46.25
11
127.25
21
-63.75
0
LINE
8
0
10
145.25
20
-99.25
11
162.75
21
-99.25
0
LINE
8
0
10
162.75
20
-99.25
11
162.75
21
-81.75
0
LINE
8
0
10
162.75
20
-81.75
11
145.25
21
-81.75
0
LINE
8
0
10
145.25
20
-81.75
11
145.25
21
-99.25
0
LINE
8
0
10
145.25
20
-80.25
11
162.75
21
-80.25
0
LINE
8
0
10
162.75
20
-80.25
11
162.75
21
-62.75
0
LINE
8
0
10
162.75
20
-62.75
11
145.25
21
-62.75
0
LINE
8
0
10
145.25
20
-62.75
11
145.25
21
-80.25
0
LINE
8
0
10
145.25
20
-61.25
11
162.75
21
-61.25
0
LINE
8
0
10
162.75
20
-61.25
11
162.75
21
-43.75
0
LINE
8
0
10
162.75
20
-43.75
11
145.25
21
-43.75
0
LINE
8
0
10
145.25
20
-43.75
11
145.25
21
-61.25
0
LINE
8
0
10
163.25
20
-101.75
11
180.75
21
-101.75
0
LINE
8
0
10
180.75
20
-101.75
11
180.75
21
-84.25
0
LINE
8
0
10
180.75
20
-84.25
11
163.25
21
-84.25
0
LINE
8
0
10
163.25
20
-84.25
11
163.25
21
-101.75
0
LINE
8
0
10
163.25
20
-82.75
11
180.75
21
-82.75
0
LINE
8
0
10
180.75
20
-82.75
11
180.75
21
-65.25
0
LINE
8
0
10
180.75
20
-65.25
11
163.25
21
-65.25
0
LINE
8
0
10
163.25
20
-65.25
11
163.25
21
-82.75
0
LINE
8
0
10
163.25
20
-63.75
11
180.75
21
-63.75
0
LINE
8
0
10
180.75
20
-63.75
11
180.75
21
-46.25
0
LINE
8
0
10
180.75
20
-46.25
11
163.25
21
-46.25
0
LINE
8
0
10
163.25
20
-46.25
11
163.25
21
-63.75
0
LINE
8
0
10
177.8181452
20
-107.7077733
11
178.1364894
21
-105.9023537
0
LINE
8
0
10
178.1364894
20
-105.9023537
11
160.9023537
21
-102.8635106
0
LINE
8
0
10
160.9023537
20
-102.8635106
11
158.7952914
21
-114.8132546
0
LINE
8
0
10
183
20
-124.4448435
11
190.9561738
21
-127.3406539
0
LINE
8
0
10
190.9561738
20
-127.3406539
11
191.4678502
21
-125.9348346
0
LINE
8
0
10
188.1818548
20
-107.7077733
11
186.2675579
21
-107.0110262
0
LINE
8
0
10
183
20
-105.8217324
11
180.4969054
21
-104.9106805
0
LINE
8
0
10
180.4969054
20
-104.9106805
11
179.7324421
21
-107.0110262
0
LINE
8
0
10
191.4678502
20
-125.9348346
11
205.843729
21
-134.2347521
0
LINE
8
0
10
205.843729
20
-134.2347521
11
214.593729
21
-119.0793075
0
LINE
8
0
10
214.593729
20
-119.0793075
11
207.2047086
21
-114.8132546
0
LINE
8
0
10
257.25
20
-108.75
11
274.75
21
-108.75
0
LINE
8
0
10
274.75
20
-108.75
11
274.75
21
-91.25
0
LINE
8
0
10
274.75
20
-91.25
11
257.25
21
-91.25
0
LINE
8
0
10
257.25
20
-91.25
11
257.25
21
-108.75
0
LINE
8
0
10
257.25
20
-89.75
11
274.75
21
-89.75
0
LINE
8
0
10
274.75
20
-89.75
11
274.75
21
-72.25
0
LINE
8
0
10
274.75
20
-72.25
11
257.25
21
-72.25
0
LINE
8
0
10
257.25
20
-72.25
11
257.25
21
-89.75
0
LINE
8
0
10
257.25
20
-70.75
11
274.75
21
-70.75
0
LINE
8
0
10
274.75
20
-70.75
11
274.75
21
-53.25
0
LINE
8
0
10
274.75
20
-53.25
11
257.25
21
-53.25
0
LINE
8
0
10
257.25
20
-53.25
11
257.25
21
-70.75
0
LINE
8
0
10
239.25
20
-106.75
11
256.75
21
-106.75
0
LINE
8
0
10
256.75
20
-106.75
11
256.75
21
-89.25
0
LINE
8
0
10
256.75
20
-89.25
11
239.25
21
-89.25
0
LINE
8
0
10
239.25
20
-89.25
11
239.25
21
-106.75
0
LINE
8
0
10
239.25
20
-87.75
11
256.75
21
-87.75
0
LINE
8
0
10
256.75
20
-87.75
11
256.75
21
-70.25
0
LINE
8
0
10
256.75
20
-70.25
11
239.25
21
-70.25
0
LINE
8
0
10
239.25
20
-70.25
11
239.25
21
-87.75
0
LINE
8
0
10
239.25
20
-68.75
11
256.75
21
-68.75
0
LINE
8
0
10
256.75
20
-68.75
11
256.75
21
-51.25
0
LINE
8
0
10
256.75
20
-51.25
11
239.25
21
-51.25
0
LINE
8
0
10
239.25
20
-51.25
11
239.25
21
-68.75
0
LINE
8
0
10
221.25
20
-101.75
11
238.75
21
-101.75
0
LINE
8
0
10
238.75
20
-101.75
11
238.75
21
-84.25
0
LINE
8
0
10
238.75
20
-84.25
11
221.25
21
-84.25
0
LINE
8
0
10
221.25
20
-84.25
11
221.25
21
-101.75
0
LINE
8
0
10
221.25
20
-82.75
11
238.75
21
-82.75
0
LINE
8
0
10
238.75
20
-82.75
11
238.75
21
-65.25
0
LINE
8
0
10
238.75
20
-65.25
11
221.25
21
-65.25
0
LINE
8
0
10
221.25
20
-65.25
11
221.25
21
-82.75
0
LINE
8
0
10
221.25
20
-63.75
11
238.75
21
-63.75
0
LINE
8
0
10
238.75
20
-63.75
11
238.75
21
-46.25
0
LINE
8
0
10
238.75
20
-46.25
11
221.25
21
-46.25
0
LINE
8
0
10
221.25
20
-46.25
11
221.25
21
-63.75
0
LINE
8
0
10
203.25
20
-99.25
11
220.75
21
-99.25
0
LINE
8
0
10
220.75
20
-99.25
11
220.75
21
-81.75
0
LINE
8
0
10
220.75
20
-81.75
11
203.25
21
-81.75
0
LINE
8
0
10
203.25
20
-81.75
11
203.25
21
-99.25
0
LINE
8
0
10
203.25
20
-80.25
11
220.75
21
-80.25
0
LINE
8
0
10
220.75
20
-80.25
11
220.75
21
-62.75
0
LINE
8
0
10
220.75
20
-62.75
11
203.25
21
-62.75
0
LINE
8
0
10
203.25
20
-62.75
11
203.25
21
-80.25
0
LINE
8
0
10
203.25
20
-61.25
11
220.75
21
-61.25
0
LINE
8
0
10
220.75
20
-61.25
11
220.75
21
-43.75
0
LINE
8
0
10
220.75
20
-43.75
11
203.25
21
-43.75
0
LINE
8
0
10
203.25
20
-43.75
11
203.25
21
-61.25
0
LINE
8
0
10
185.25
20
-101.75
11
202.75
21
-101.75
0
LINE
8
0
10
202.75
20
-101.75
11
202.75
21
-84.25
0
LINE
8
0
10
202.75
20
-84.25
11
185.25
21
-84.25
0
LINE
8
0
10
185.25
20
-84.25
11
185.25
21
-101.75
0
LINE
8
0
10
185.25
20
-82.75
11
202.75
21
-82.75
0
LINE
8
0
10
202.75
20
-82.75
11
202.75
21
-65.25
0
LINE
8
0
10
202.75
20
-65.25
11
185.25
21
-65.25
0
LINE
8
0
10
185.25
20
-65.25
11
185.25
21
-82.75
0
LINE
8
0
10
185.25
20
-63.75
11
202.75
21
-63.75
0
LINE
8
0
10
202.75
20
-63.75
11
202.75
21
-46.25
0
LINE
8
0
10
202.75
20
-46.25
11
185.25
21
-46.25
0
LINE
8
0
10
185.25
20
-46.25
11
185.25
21
-63.75
0
LINE
8
0
10
207.2047086
20
-114.8132546
11
205.0976463
21
-102.8635106
0
LINE
8
0
10
205.0976463
20
-102.8635106
11
187.8635106
21
-105.9023537
0
LINE
8
0
10
187.8635106
20
-105.9023537
11
188.1818548
21
-107.7077733
0
LINE
8
0
10
175.0438262
20
-127.3406539
11
183
21
-124.4448435
0
LINE
8
0
10
186.2675579
20
-107.0110262
11
185.5030946
21
-104.9106805
0
LINE
8
0
10
185.5030946
20
-104.9106805
11
183
21
-105.8217324
0
LINE
8
0
10
179.7324421
20
-107.0110262
11
177.8181452
21
-107.7077733
0
LINE
8
0
10
174.5321498
20
-125.9348346
11
175.0438262
21
-127.3406539
0
LINE
8
0
10
160.156271
20
-134.2347521
11
174.5321498
21
-125.9348346
0
LINE
8
0
10
158.7952914
20
-114.8132546
11
151.406271
21
-119.0793075
0
LINE
8
0
10
151.406271
20
-119.0793075
11
160.156271
21
-134.2347521
0
ENDSEC
0
EOF