0
SECTION
2
HEADER
9
$INSUNITS
70
4
0
ENDSEC
0
SECTION
2
TABLES
0
TABLE
2
LTYPE
0
LTYPE
72
65
70
64
2
CONTINUOUS
3
______
73
0
40
0
0
ENDTAB
0
TABLE
2
LAYER
0
ENDTAB
0
ENDSEC
0
SECTION
2
ENTITIES
0
LINE
8
0
10
92.5
20
-109.5
11
109.5
21
-109.5
0
LINE
8
0
10
109.5
20
-109.5
11
109.5
21
-107.5
0
LINE
8
0
10
90.5
20
-107.5
11
90.5
21
-54.5
0
LINE
8
0
10
92.5
20
-52.5
11
108.5
21
-52.5
0
LINE
8
0
10
109.5
20
-107.5
11
125.5
21
-107.5
0
LINE
8
0
10
127.5
20
-105.5
11
127.5
21
-104.5
0
LINE
8
0
10
108.5
20
-50.5
11
124.5
21
-50.5
0
LINE
8
0
10
108.5
20
-50.5
11
108.5
21
-52.5
0
LINE
8
0
10
129.5
20
-102.5
11
143.5
21
-102.5
0
LINE
8
0
10
145.5
20
-100.5
11
145.5
21
-100
0
LINE
8
0
10
128.5
20
-45.5
11
144.5
21
-45.5
0
LINE
8
0
10
126.5
20
-47.5
11
126.5
21
-48.5
0
LINE
8
0
10
145.5
20
-100
11
160.5
21
-100
0
LINE
8
0
10
163.5
20
-43.5
11
163.5
21
-43
0
LINE
8
0
10
163.5
20
-43
11
146.5
21
-43
0
LINE
8
0
10
144.5
20
-45
11
144.5
21
-45.5
0
LINE
8
0
10
163.1598603
20
-102.5
11
179.5
21
-102.5
0
LINE
8
0
10
181.5
20
-100.5
11
181.5
21
-47.5
0
LINE
8
0
10
162.5
20
-102
11
162.5
21
-102.3836488
0
LINE
8
0
10
165.5
20
-45.5
11
179.5
21
-45.5
0
LINE
8
0
10
178.7823266
20
-106.5587067
11
179.0053313
21
-105.293984
0
LINE
8
0
10
179.0053313
20
-105.293984
11
163.1598603
21
-102.5
0
LINE
8
0
10
162.5
20
-102.3836488
11
162.2635995
21
-102.3419651
0
LINE
8
0
10
159.9466877
20
-103.9642842
11
158.2793627
21
-113.4201542
0
LINE
8
0
10
183.6840402
20
-125.4919471
11
191.4044281
21
-128.3019385
0
LINE
8
0
10
191.4044281
20
-128.3019385
11
191.8669168
21
-127.0312612
0
LINE
8
0
10
187.2176734
20
-106.5587067
11
186.8527124
21
-106.4258717
0
LINE
8
0
10
183
20
-105.0235991
11
181.9280362
21
-104.6334362
0
LINE
8
0
10
179.3646108
20
-105.8287812
11
179.1472876
21
-106.4258717
0
LINE
8
0
10
191.8669168
20
-127.0312612
11
204.3861972
21
-134.2592711
0
LINE
8
0
10
207.118248
20
-133.5272203
11
214.618248
21
-120.5368393
0
LINE
8
0
10
213.8861972
20
-117.8047885
11
208.6902528
21
-114.8049086
0
LINE
8
0
10
256.5
20
-109.5
11
273.5
21
-109.5
0
LINE
8
0
10
275.5
20
-107.5
11
275.5
21
-54.5
0
LINE
8
0
10
256.5
20
-107.5
11
256.5
21
-109.5
0
LINE
8
0
10
257.5
20
-52.5
11
273.5
21
-52.5
0
LINE
8
0
10
240.5
20
-107.5
11
256.5
21
-107.5
0
LINE
8
0
10
238.5
20
-104.5
11
238.5
21
-105.5
0
LINE
8
0
10
257.5
20
-52.5
11
257.5
21
-50.5
0
LINE
8
0
10
241.5
20
-50.5
11
257.5
21
-50.5
0
LINE
8
0
10
220.5
20
-102.5
11
236.5
21
-102.5
0
LINE
8
0
10
220.5
20
-102
11
220.5
21
-102.5
0
LINE
8
0
10
239.5
20
-48.5
11
239.5
21
-47.5
0
LINE
8
0
10
223.5
20
-45.5
11
237.5
21
-45.5
0
LINE
8
0
10
205.5
20
-100
11
218.5
21
-100
0
LINE
8
0
10
221.5
20
-43.5
11
221.5
21
-43
0
LINE
8
0
10
221.5
20
-43
11
204.5
21
-43
0
LINE
8
0
10
202.5
20
-45
11
202.5
21
-45.5
0
LINE
8
0
10
186.5
20
-102.5
11
202.8401397
21
-102.5
0
LINE
8
0
10
203.5
20
-102.3836488
11
203.5
21
-102
0
LINE
8
0
10
184.5
20
-100.5
11
184.5
21
-47.5
0
LINE
8
0
10
186.5
20
-45.5
11
202.5
21
-45.5
0
LINE
8
0
10
207.7206373
20
-113.4201542
11
206.0533123
21
-103.9642842
0
LINE
8
0
10
203.7364005
20
-102.3419651
11
203.5
21
-102.3836488
0
LINE
8
0
10
202.8401397
20
-102.5
11
186.9946687
21
-105.293984
0
LINE
8
0
10
186.9946687
20
-105.293984
11
187.2176734
21
-106.5587067
0
LINE
8
0
10
174.5955719
20
-128.3019385
11
182.3159598
21
-125.4919471
0
LINE
8
0
10
186.8527124
20
-106.4258717
11
186.6353892
21
-105.8287812
0
LINE
8
0
10
184.0719638
20
-104.6334362
11
183
21
-105.0235991
0
LINE
8
0
10
179.1472876
20
-106.4258717
11
178.7823266
21
-106.5587067
0
LINE
8
0
10
174.1330832
20
-127.0312612
11
174.5955719
21
-128.3019385
0
LINE
8
0
10
161.6138028
20
-134.2592711
11
174.1330832
21
-127.0312612
0
LINE
8
0
10
157.3097472
20
-114.8049086
11
152.1138028
21
-117.8047885
0
LINE
8
0
10
151.381752
20
-120.5368393
11
158.881752
21
-133.5272203
0
ARC
8
0
10
125.5
20
-105.5
40
2
50
270
51
0
0
ARC
8
0
10
129.5
20
-104.5
40
2
50
90
51
180
0
ARC
8
0
10
143.5
20
-100.5
40
2
50
270
51
0
0
ARC
8
0
10
160.5
20
-102
40
2
50
0
51
90
0
ARC
8
0
10
161.9163031
20
-104.3115805
40
2
50
79.9999992
51
169.9999992
0
ARC
8
0
10
156.3097472
20
-113.0728578
40
2
50
300.0000001
51
349.9999992
0
ARC
8
0
10
153.1138028
20
-119.5368393
40
2
50
120.0000001
51
210.0000001
0
ARC
8
0
10
160.6138028
20
-132.5272203
40
2
50
210.0000001
51
300.0000001
0
ARC
8
0
10
183
20
-127.3713323
40
2
50
70.0000019
51
109.9999981
0
ARC
8
0
10
205.3861972
20
-132.5272203
40
2
50
239.9999999
51
329.9999999
0
ARC
8
0
10
212.8861972
20
-119.5368393
40
2
50
329.9999999
51
59.9999999
0
ARC
8
0
10
209.6902528
20
-113.0728578
40
2
50
190.0000008
51
239.9999999
0
ARC
8
0
10
204.0836969
20
-104.3115805
40
2
50
10.0000008
51
100.0000008
0
ARC
8
0
10
205.5
20
-102
40
2
50
90
51
180
0
ARC
8
0
10
218.5
20
-102
40
2
50
0
51
90
0
ARC
8
0
10
236.5
20
-104.5
40
2
50
0
51
90
0
ARC
8
0
10
240.5
20
-105.5
40
2
50
180
51
270
0
ARC
8
0
10
273.5
20
-107.5
40
2
50
270
51
0
0
ARC
8
0
10
273.5
20
-54.5
40
2
50
0
51
90
0
ARC
8
0
10
241.5
20
-48.5
40
2
50
180
51
270
0
ARC
8
0
10
237.5
20
-47.5
40
2
50
0
51
90
0
ARC
8
0
10
223.5
20
-43.5
40
2
50
180
51
270
0
ARC
8
0
10
204.5
20
-45
40
2
50
90
51
180
0
ARC
8
0
10
186.5
20
-47.5
40
2
50
90
51
180
0
ARC
8
0
10
186.5
20
-100.5
40
2
50
180
51
270
0
ARC
8
0
10
184.756004
20
-106.5128214
40
2
50
19.9999981
51
109.9999981
0
ARC
8
0
10
181.243996
20
-106.5128214
40
2
50
70.0000019
51
160.0000019
0
ARC
8
0
10
179.5
20
-100.5
40
2
50
270
51
0
0
ARC
8
0
10
179.5
20
-47.5
40
2
50
0
51
90
0
ARC
8
0
10
165.5
20
-43.5
40
2
50
180
51
270
0
ARC
8
0
10
146.5
20
-45
40
2
50
90
51
180
0
ARC
8
0
10
128.5
20
-47.5
40
2
50
90
51
180
0
ARC
8
0
10
124.5
20
-48.5
40
2
50
270
51
0
0
ARC
8
0
10
92.5
20
-54.5
40
2
50
90
51
180
0
ARC
8
0
10
92.5
20
-107.5
40
2
50
180
51
270
0
ENDSEC
0
EOF