<svg width="185mm" height="91.527mm" viewBox="0 0 185 91.527" xmlns="http://www.w3.org/2000/svg"><g id="svgGroup" stroke-linecap="round" fill-rule="evenodd" font-size="9pt" stroke="#000" stroke-width="0.25mm" fill="none" style="stroke:#000;stroke-width:0.25mm;fill:none"><path d="M 2 66.5 L 19 66.5 L 19 64.5 L 35 64.5 A 2 2 0 0 0 37 62.5 L 37 61.5 A 2 2 0 0 1 39 59.5 L 53 59.5 A 2 2 0 0 0 55 57.5 L 55 57 L 70 57 A 2 2 0 0 1 72 59 L 72 59.384 L 71.764 59.342 A 2 2 0 0 0 69.447 60.964 L 67.779 70.42 A 2 2 0 0 1 66.81 71.805 L 61.614 74.805 A 2 2 0 0 0 60.882 77.537 L 68.382 90.527 A 2 2 0 0 0 71.114 91.259 L 83.633 84.031 L 84.096 85.302 L 91.816 82.492 A 2 2 0 0 1 93.184 82.492 L 100.904 85.302 L 101.367 84.031 L 113.886 91.259 A 2 2 0 0 0 116.618 90.527 L 124.118 77.537 A 2 2 0 0 0 123.386 74.805 L 118.19 71.805 A 2 2 0 0 1 117.221 70.42 L 115.553 60.964 A 2 2 0 0 0 113.236 59.342 L 113 59.384 L 113 59 A 2 2 0 0 1 115 57 L 128 57 A 2 2 0 0 1 130 59 L 130 59.5 L 146 59.5 A 2 2 0 0 1 148 61.5 L 148 62.5 A 2 2 0 0 0 150 64.5 L 166 64.5 L 166 66.5 L 183 66.5 A 2 2 0 0 0 185 64.5 L 185 11.5 A 2 2 0 0 0 183 9.5 L 167 9.5 L 167 7.5 L 151 7.5 A 2 2 0 0 1 149 5.5 L 149 4.5 A 2 2 0 0 0 147 2.5 L 133 2.5 A 2 2 0 0 1 131 0.5 L 131 0 L 114 0 A 2 2 0 0 0 112 2 L 112 2.5 L 96 2.5 A 2 2 0 0 0 94 4.5 L 94 57.5 A 2 2 0 0 0 96 59.5 L 112.34 59.5 L 96.495 62.294 L 96.718 63.559 L 96.353 63.426 L 96.135 62.829 A 2 2 0 0 0 93.572 61.633 L 92.5 62.024 L 91.428 61.633 A 2 2 0 0 0 88.865 62.829 L 88.647 63.426 L 88.282 63.559 L 88.505 62.294 L 72.66 59.5 L 89 59.5 A 2 2 0 0 0 91 57.5 L 91 4.5 A 2 2 0 0 0 89 2.5 L 75 2.5 A 2 2 0 0 1 73 0.5 L 73 0 L 56 0 A 2 2 0 0 0 54 2 L 54 2.5 L 38 2.5 A 2 2 0 0 0 36 4.5 L 36 5.5 A 2 2 0 0 1 34 7.5 L 18 7.5 L 18 9.5 L 2 9.5 A 2 2 0 0 0 0 11.5 L 0 64.5 A 2 2 0 0 0 2 66.5 Z" vector-effect="non-scaling-stroke"/></g></svg>