<svg width="179.8mm" height="86.108mm" viewBox="0 0 179.8 86.108" xmlns="http://www.w3.org/2000/svg"><g id="svgGroup" stroke-linecap="round" fill-rule="evenodd" font-size="9pt" stroke="#000" stroke-width="0.25mm" fill="none" style="stroke:#000;stroke-width:0.25mm;fill:none"><path d="M 77.141 74.802 L 80.497 75.393 L 80.858 73.348 L 83.05 79.369 L 89.9 76.876 L 96.75 79.369 L 98.942 73.348 L 99.303 75.393 L 102.659 74.802 L 100.115 79.208 L 112.067 86.108 L 118.967 74.156 L 112.433 70.384 L 110.497 59.407 L 96.907 61.803 L 97.46 64.942 L 91.724 62.854 L 91.297 61.682 L 89.9 62.19 L 88.503 61.682 L 88.076 62.854 L 82.34 64.942 L 82.893 61.803 L 69.303 59.407 L 67.367 70.384 L 60.833 74.156 L 67.733 86.108 L 79.685 79.208 L 77.141 74.802 Z M 36 16.3 L 49.8 16.3 L 49.8 2.5 L 36 2.5 L 36 16.3 Z M 54 13.8 L 67.8 13.8 L 67.8 0 L 54 0 L 54 13.8 Z M 72 16.3 L 85.8 16.3 L 85.8 2.5 L 72 2.5 L 72 16.3 Z M 130 16.3 L 143.8 16.3 L 143.8 2.5 L 130 2.5 L 130 16.3 Z M 112 13.8 L 125.8 13.8 L 125.8 0 L 112 0 L 112 13.8 Z M 94 16.3 L 107.8 16.3 L 107.8 2.5 L 94 2.5 L 94 16.3 Z M 36 54.3 L 49.8 54.3 L 49.8 40.5 L 36 40.5 L 36 54.3 Z M 36 35.3 L 49.8 35.3 L 49.8 21.5 L 36 21.5 L 36 35.3 Z M 54 51.8 L 67.8 51.8 L 67.8 38 L 54 38 L 54 51.8 Z M 54 32.8 L 67.8 32.8 L 67.8 19 L 54 19 L 54 32.8 Z M 72 54.3 L 85.8 54.3 L 85.8 40.5 L 72 40.5 L 72 54.3 Z M 72 35.3 L 85.8 35.3 L 85.8 21.5 L 72 21.5 L 72 35.3 Z M 166 61.3 L 179.8 61.3 L 179.8 47.5 L 166 47.5 L 166 61.3 Z M 166 42.3 L 179.8 42.3 L 179.8 28.5 L 166 28.5 L 166 42.3 Z M 166 23.3 L 179.8 23.3 L 179.8 9.5 L 166 9.5 L 166 23.3 Z M 148 59.3 L 161.8 59.3 L 161.8 45.5 L 148 45.5 L 148 59.3 Z M 148 40.3 L 161.8 40.3 L 161.8 26.5 L 148 26.5 L 148 40.3 Z M 148 21.3 L 161.8 21.3 L 161.8 7.5 L 148 7.5 L 148 21.3 Z M 130 54.3 L 143.8 54.3 L 143.8 40.5 L 130 40.5 L 130 54.3 Z M 130 35.3 L 143.8 35.3 L 143.8 21.5 L 130 21.5 L 130 35.3 Z M 112 51.8 L 125.8 51.8 L 125.8 38 L 112 38 L 112 51.8 Z M 112 32.8 L 125.8 32.8 L 125.8 19 L 112 19 L 112 32.8 Z M 94 54.3 L 107.8 54.3 L 107.8 40.5 L 94 40.5 L 94 54.3 Z M 94 35.3 L 107.8 35.3 L 107.8 21.5 L 94 21.5 L 94 35.3 Z M 0 61.3 L 13.8 61.3 L 13.8 47.5 L 0 47.5 L 0 61.3 Z M 0 42.3 L 13.8 42.3 L 13.8 28.5 L 0 28.5 L 0 42.3 Z M 0 23.3 L 13.8 23.3 L 13.8 9.5 L 0 9.5 L 0 23.3 Z M 18 59.3 L 31.8 59.3 L 31.8 45.5 L 18 45.5 L 18 59.3 Z M 18 40.3 L 31.8 40.3 L 31.8 26.5 L 18 26.5 L 18 40.3 Z M 18 21.3 L 31.8 21.3 L 31.8 7.5 L 18 7.5 L 18 21.3 Z" vector-effect="non-scaling-stroke"/></g></svg>