0
SECTION
2
HEADER
9
$INSUNITS
70
4
0
ENDSEC
0
SECTION
2
TABLES
0
TABLE
2
LTYPE
0
LTYPE
72
65
70
64
2
CONTINUOUS
3
______
73
0
40
0
0
ENDTAB
0
TABLE
2
LAYER
0
ENDTAB
0
ENDSEC
0
SECTION
2
ENTITIES
0
LINE
8
0
10
93.1
20
-106.9
11
106.9
21
-106.9
0
LINE
8
0
10
106.9
20
-106.9
11
106.9
21
-93.1
0
LINE
8
0
10
106.9
20
-93.1
11
93.1
21
-93.1
0
LINE
8
0
10
93.1
20
-93.1
11
93.1
21
-106.9
0
LINE
8
0
10
93.1
20
-87.9
11
106.9
21
-87.9
0
LINE
8
0
10
106.9
20
-87.9
11
106.9
21
-74.1
0
LINE
8
0
10
106.9
20
-74.1
11
93.1
21
-74.1
0
LINE
8
0
10
93.1
20
-74.1
11
93.1
21
-87.9
0
LINE
8
0
10
93.1
20
-68.9
11
106.9
21
-68.9
0
LINE
8
0
10
106.9
20
-68.9
11
106.9
21
-55.1
0
LINE
8
0
10
106.9
20
-55.1
11
93.1
21
-55.1
0
LINE
8
0
10
93.1
20
-55.1
11
93.1
21
-68.9
0
LINE
8
0
10
111.1
20
-104.9
11
124.9
21
-104.9
0
LINE
8
0
10
124.9
20
-104.9
11
124.9
21
-91.1
0
LINE
8
0
10
124.9
20
-91.1
11
111.1
21
-91.1
0
LINE
8
0
10
111.1
20
-91.1
11
111.1
21
-104.9
0
LINE
8
0
10
111.1
20
-85.9
11
124.9
21
-85.9
0
LINE
8
0
10
124.9
20
-85.9
11
124.9
21
-72.1
0
LINE
8
0
10
124.9
20
-72.1
11
111.1
21
-72.1
0
LINE
8
0
10
111.1
20
-72.1
11
111.1
21
-85.9
0
LINE
8
0
10
111.1
20
-66.9
11
124.9
21
-66.9
0
LINE
8
0
10
124.9
20
-66.9
11
124.9
21
-53.1
0
LINE
8
0
10
124.9
20
-53.1
11
111.1
21
-53.1
0
LINE
8
0
10
111.1
20
-53.1
11
111.1
21
-66.9
0
LINE
8
0
10
129.1
20
-99.9
11
142.9
21
-99.9
0
LINE
8
0
10
142.9
20
-99.9
11
142.9
21
-86.1
0
LINE
8
0
10
142.9
20
-86.1
11
129.1
21
-86.1
0
LINE
8
0
10
129.1
20
-86.1
11
129.1
21
-99.9
0
LINE
8
0
10
129.1
20
-80.9
11
142.9
21
-80.9
0
LINE
8
0
10
142.9
20
-80.9
11
142.9
21
-67.1
0
LINE
8
0
10
142.9
20
-67.1
11
129.1
21
-67.1
0
LINE
8
0
10
129.1
20
-67.1
11
129.1
21
-80.9
0
LINE
8
0
10
129.1
20
-61.9
11
142.9
21
-61.9
0
LINE
8
0
10
142.9
20
-61.9
11
142.9
21
-48.1
0
LINE
8
0
10
142.9
20
-48.1
11
129.1
21
-48.1
0
LINE
8
0
10
129.1
20
-48.1
11
129.1
21
-61.9
0
LINE
8
0
10
147.1
20
-97.4
11
160.9
21
-97.4
0
LINE
8
0
10
160.9
20
-97.4
11
160.9
21
-83.6
0
LINE
8
0
10
160.9
20
-83.6
11
147.1
21
-83.6
0
LINE
8
0
10
147.1
20
-83.6
11
147.1
21
-97.4
0
LINE
8
0
10
147.1
20
-78.4
11
160.9
21
-78.4
0
LINE
8
0
10
160.9
20
-78.4
11
160.9
21
-64.6
0
LINE
8
0
10
160.9
20
-64.6
11
147.1
21
-64.6
0
LINE
8
0
10
147.1
20
-64.6
11
147.1
21
-78.4
0
LINE
8
0
10
147.1
20
-59.4
11
160.9
21
-59.4
0
LINE
8
0
10
160.9
20
-59.4
11
160.9
21
-45.6
0
LINE
8
0
10
160.9
20
-45.6
11
147.1
21
-45.6
0
LINE
8
0
10
147.1
20
-45.6
11
147.1
21
-59.4
0
LINE
8
0
10
165.1
20
-99.9
11
178.9
21
-99.9
0
LINE
8
0
10
178.9
20
-99.9
11
178.9
21
-86.1
0
LINE
8
0
10
178.9
20
-86.1
11
165.1
21
-86.1
0
LINE
8
0
10
165.1
20
-86.1
11
165.1
21
-99.9
0
LINE
8
0
10
165.1
20
-80.9
11
178.9
21
-80.9
0
LINE
8
0
10
178.9
20
-80.9
11
178.9
21
-67.1
0
LINE
8
0
10
178.9
20
-67.1
11
165.1
21
-67.1
0
LINE
8
0
10
165.1
20
-67.1
11
165.1
21
-80.9
0
LINE
8
0
10
165.1
20
-61.9
11
178.9
21
-61.9
0
LINE
8
0
10
178.9
20
-61.9
11
178.9
21
-48.1
0
LINE
8
0
10
178.9
20
-48.1
11
165.1
21
-48.1
0
LINE
8
0
10
165.1
20
-48.1
11
165.1
21
-61.9
0
LINE
8
0
10
170.2407283
20
-120.4015445
11
173.5970011
21
-120.9933459
0
LINE
8
0
10
173.5970011
20
-120.9933459
11
173.9577252
21
-118.9475778
0
LINE
8
0
10
175.439831
20
-110.5421378
11
175.9933459
21
-107.4029989
0
LINE
8
0
10
175.9933459
20
-107.4029989
11
162.4029989
21
-105.0066541
0
LINE
8
0
10
162.4029989
20
-105.0066541
11
160.4673849
21
-115.984067
0
LINE
8
0
10
183
20
-122.4761146
11
189.8504797
21
-124.9694853
0
LINE
8
0
10
189.8504797
20
-124.9694853
11
192.0422748
21
-118.9475778
0
LINE
8
0
10
190.560169
20
-110.5421378
11
184.8241768
21
-108.4544073
0
LINE
8
0
10
183
20
-107.7904613
11
181.6025995
21
-107.2818491
0
LINE
8
0
10
181.6025995
20
-107.2818491
11
181.1758232
21
-108.4544073
0
LINE
8
0
10
193.2154314
20
-124.8076051
11
205.166582
21
-131.7076051
0
LINE
8
0
10
205.166582
20
-131.7076051
11
212.066582
21
-119.7564545
0
LINE
8
0
10
212.066582
20
-119.7564545
11
205.5326151
21
-115.984067
0
LINE
8
0
10
195.7592717
20
-120.4015445
11
193.2154314
21
-124.8076051
0
LINE
8
0
10
259.1
20
-106.9
11
272.9
21
-106.9
0
LINE
8
0
10
272.9
20
-106.9
11
272.9
21
-93.1
0
LINE
8
0
10
272.9
20
-93.1
11
259.1
21
-93.1
0
LINE
8
0
10
259.1
20
-93.1
11
259.1
21
-106.9
0
LINE
8
0
10
259.1
20
-87.9
11
272.9
21
-87.9
0
LINE
8
0
10
272.9
20
-87.9
11
272.9
21
-74.1
0
LINE
8
0
10
272.9
20
-74.1
11
259.1
21
-74.1
0
LINE
8
0
10
259.1
20
-74.1
11
259.1
21
-87.9
0
LINE
8
0
10
259.1
20
-68.9
11
272.9
21
-68.9
0
LINE
8
0
10
272.9
20
-68.9
11
272.9
21
-55.1
0
LINE
8
0
10
272.9
20
-55.1
11
259.1
21
-55.1
0
LINE
8
0
10
259.1
20
-55.1
11
259.1
21
-68.9
0
LINE
8
0
10
241.1
20
-104.9
11
254.9
21
-104.9
0
LINE
8
0
10
254.9
20
-104.9
11
254.9
21
-91.1
0
LINE
8
0
10
254.9
20
-91.1
11
241.1
21
-91.1
0
LINE
8
0
10
241.1
20
-91.1
11
241.1
21
-104.9
0
LINE
8
0
10
241.1
20
-85.9
11
254.9
21
-85.9
0
LINE
8
0
10
254.9
20
-85.9
11
254.9
21
-72.1
0
LINE
8
0
10
254.9
20
-72.1
11
241.1
21
-72.1
0
LINE
8
0
10
241.1
20
-72.1
11
241.1
21
-85.9
0
LINE
8
0
10
241.1
20
-66.9
11
254.9
21
-66.9
0
LINE
8
0
10
254.9
20
-66.9
11
254.9
21
-53.1
0
LINE
8
0
10
254.9
20
-53.1
11
241.1
21
-53.1
0
LINE
8
0
10
241.1
20
-53.1
11
241.1
21
-66.9
0
LINE
8
0
10
223.1
20
-99.9
11
236.9
21
-99.9
0
LINE
8
0
10
236.9
20
-99.9
11
236.9
21
-86.1
0
LINE
8
0
10
236.9
20
-86.1
11
223.1
21
-86.1
0
LINE
8
0
10
223.1
20
-86.1
11
223.1
21
-99.9
0
LINE
8
0
10
223.1
20
-80.9
11
236.9
21
-80.9
0
LINE
8
0
10
236.9
20
-80.9
11
236.9
21
-67.1
0
LINE
8
0
10
236.9
20
-67.1
11
223.1
21
-67.1
0
LINE
8
0
10
223.1
20
-67.1
11
223.1
21
-80.9
0
LINE
8
0
10
223.1
20
-61.9
11
236.9
21
-61.9
0
LINE
8
0
10
236.9
20
-61.9
11
236.9
21
-48.1
0
LINE
8
0
10
236.9
20
-48.1
11
223.1
21
-48.1
0
LINE
8
0
10
223.1
20
-48.1
11
223.1
21
-61.9
0
LINE
8
0
10
205.1
20
-97.4
11
218.9
21
-97.4
0
LINE
8
0
10
218.9
20
-97.4
11
218.9
21
-83.6
0
LINE
8
0
10
218.9
20
-83.6
11
205.1
21
-83.6
0
LINE
8
0
10
205.1
20
-83.6
11
205.1
21
-97.4
0
LINE
8
0
10
205.1
20
-78.4
11
218.9
21
-78.4
0
LINE
8
0
10
218.9
20
-78.4
11
218.9
21
-64.6
0
LINE
8
0
10
218.9
20
-64.6
11
205.1
21
-64.6
0
LINE
8
0
10
205.1
20
-64.6
11
205.1
21
-78.4
0
LINE
8
0
10
205.1
20
-59.4
11
218.9
21
-59.4
0
LINE
8
0
10
218.9
20
-59.4
11
218.9
21
-45.6
0
LINE
8
0
10
218.9
20
-45.6
11
205.1
21
-45.6
0
LINE
8
0
10
205.1
20
-45.6
11
205.1
21
-59.4
0
LINE
8
0
10
187.1
20
-99.9
11
200.9
21
-99.9
0
LINE
8
0
10
200.9
20
-99.9
11
200.9
21
-86.1
0
LINE
8
0
10
200.9
20
-86.1
11
187.1
21
-86.1
0
LINE
8
0
10
187.1
20
-86.1
11
187.1
21
-99.9
0
LINE
8
0
10
187.1
20
-80.9
11
200.9
21
-80.9
0
LINE
8
0
10
200.9
20
-80.9
11
200.9
21
-67.1
0
LINE
8
0
10
200.9
20
-67.1
11
187.1
21
-67.1
0
LINE
8
0
10
187.1
20
-67.1
11
187.1
21
-80.9
0
LINE
8
0
10
187.1
20
-61.9
11
200.9
21
-61.9
0
LINE
8
0
10
200.9
20
-61.9
11
200.9
21
-48.1
0
LINE
8
0
10
200.9
20
-48.1
11
187.1
21
-48.1
0
LINE
8
0
10
187.1
20
-48.1
11
187.1
21
-61.9
0
LINE
8
0
10
192.4029989
20
-120.9933459
11
195.7592717
21
-120.4015445
0
LINE
8
0
10
205.5326151
20
-115.984067
11
203.5970011
21
-105.0066541
0
LINE
8
0
10
203.5970011
20
-105.0066541
11
190.0066541
21
-107.4029989
0
LINE
8
0
10
190.0066541
20
-107.4029989
11
190.560169
21
-110.5421378
0
LINE
8
0
10
192.0422748
20
-118.9475778
11
192.4029989
21
-120.9933459
0
LINE
8
0
10
176.1495203
20
-124.9694853
11
183
21
-122.4761146
0
LINE
8
0
10
184.8241768
20
-108.4544073
11
184.3974005
21
-107.2818491
0
LINE
8
0
10
184.3974005
20
-107.2818491
11
183
21
-107.7904613
0
LINE
8
0
10
181.1758232
20
-108.4544073
11
175.439831
21
-110.5421378
0
LINE
8
0
10
173.9577252
20
-118.9475778
11
176.1495203
21
-124.9694853
0
LINE
8
0
10
160.833418
20
-131.7076051
11
172.7845686
21
-124.8076051
0
LINE
8
0
10
172.7845686
20
-124.8076051
11
170.2407283
21
-120.4015445
0
LINE
8
0
10
160.4673849
20
-115.984067
11
153.933418
21
-119.7564545
0
LINE
8
0
10
153.933418
20
-119.7564545
11
160.833418
21
-131.7076051
0
ENDSEC
0
EOF