<svg width="255.1mm" height="120.983mm" viewBox="0 0 255.1 120.983" xmlns="http://www.w3.org/2000/svg"><g id="svgGroup" stroke-linecap="round" fill-rule="evenodd" font-size="9pt" stroke="#000" stroke-width="0.25mm" fill="none" style="stroke:#000;stroke-width:0.25mm;fill:none"><path d="M 147.652 120.983 L 153.271 107.075 L 139.363 101.456 L 133.744 115.364 L 147.652 120.983 Z M 101.83 107.075 L 107.449 120.983 L 121.356 115.364 L 115.737 101.456 L 101.83 107.075 Z M 235.581 25.936 L 250.469 24.108 L 248.641 9.22 L 233.753 11.048 L 235.581 25.936 Z M 240.212 63.653 L 255.1 61.825 L 253.272 46.936 L 238.384 48.764 L 240.212 63.653 Z M 237.897 44.794 L 252.785 42.966 L 250.957 28.078 L 236.068 29.906 L 237.897 44.794 Z M 0 61.825 L 14.888 63.653 L 16.716 48.764 L 1.828 46.936 L 0 61.825 Z M 2.316 42.966 L 17.204 44.794 L 19.032 29.906 L 4.144 28.078 L 2.316 42.966 Z M 4.631 24.108 L 19.519 25.936 L 21.347 11.048 L 6.459 9.22 L 4.631 24.108 Z M 85.907 92.26 L 97.398 101.902 L 107.04 90.411 L 95.549 80.769 L 85.907 92.26 Z M 157.702 101.902 L 169.193 92.26 L 159.551 80.769 L 148.06 90.411 L 157.702 101.902 Z M 195.608 36.376 L 210.28 33.257 L 207.161 18.585 L 192.489 21.703 L 195.608 36.376 Z M 191.658 17.791 L 206.33 14.672 L 203.211 0 L 188.539 3.119 L 191.658 17.791 Z M 174.528 28.588 L 189.2 25.47 L 186.082 10.797 L 171.409 13.916 L 174.528 28.588 Z M 215.232 37.316 L 229.904 34.197 L 226.786 19.525 L 212.114 22.644 L 215.232 37.316 Z M 219.183 55.901 L 233.855 52.782 L 230.736 38.11 L 216.064 41.229 L 219.183 55.901 Z M 199.558 54.96 L 214.23 51.842 L 211.112 37.17 L 196.439 40.288 L 199.558 54.96 Z M 182.429 65.758 L 197.101 62.639 L 193.982 47.967 L 179.31 51.086 L 182.429 65.758 Z M 178.478 47.173 L 193.151 44.054 L 190.032 29.382 L 175.36 32.501 L 178.478 47.173 Z M 164.26 71.664 L 178.932 68.546 L 175.813 53.874 L 161.141 56.992 L 164.26 71.664 Z M 156.359 34.495 L 171.031 31.376 L 167.913 16.704 L 153.24 19.823 L 156.359 34.495 Z M 25.196 34.197 L 39.868 37.316 L 42.987 22.644 L 28.315 19.525 L 25.196 34.197 Z M 211.282 18.731 L 225.954 15.613 L 222.835 0.94 L 208.163 4.059 L 211.282 18.731 Z M 160.309 53.08 L 174.982 49.961 L 171.863 35.289 L 157.191 38.407 L 160.309 53.08 Z M 175.057 88.794 L 189.729 85.675 L 186.611 71.003 L 171.938 74.122 L 175.057 88.794 Z M 21.246 52.782 L 35.918 55.901 L 39.036 41.229 L 24.364 38.11 L 21.246 52.782 Z M 29.146 15.613 L 43.818 18.731 L 46.937 4.059 L 32.265 0.94 L 29.146 15.613 Z M 40.87 51.842 L 55.542 54.96 L 58.661 40.288 L 43.989 37.17 L 40.87 51.842 Z M 44.82 33.257 L 59.492 36.376 L 62.611 21.703 L 47.939 18.585 L 44.82 33.257 Z M 57.999 62.639 L 72.672 65.758 L 75.79 51.086 L 61.118 47.967 L 57.999 62.639 Z M 61.95 44.054 L 76.622 47.173 L 79.74 32.501 L 65.068 29.382 L 61.95 44.054 Z M 76.168 68.546 L 90.84 71.664 L 93.959 56.992 L 79.287 53.874 L 76.168 68.546 Z M 80.119 49.961 L 94.791 53.08 L 97.909 38.407 L 83.237 35.289 L 80.119 49.961 Z M 84.069 31.376 L 98.741 34.495 L 101.86 19.823 L 87.188 16.704 L 84.069 31.376 Z M 48.771 14.672 L 63.443 17.791 L 66.561 3.119 L 51.889 0 L 48.771 14.672 Z M 65.9 25.47 L 80.572 28.588 L 83.691 13.916 L 69.019 10.797 L 65.9 25.47 Z M 65.371 85.675 L 80.043 88.794 L 83.162 74.122 L 68.49 71.003 L 65.371 85.675 Z" vector-effect="non-scaling-stroke"/></g></svg>