0
SECTION
2
HEADER
9
$INSUNITS
70
4
0
ENDSEC
0
SECTION
2
TABLES
0
TABLE
2
LTYPE
0
LTYPE
72
65
70
64
2
CONTINUOUS
3
______
73
0
40
0
0
ENDTAB
0
TABLE
2
LAYER
0
ENDTAB
0
ENDSEC
0
SECTION
2
ENTITIES
0
LINE
8
0
10
-8.3581162
20
-6.5300761
11
6.5300761
21
-8.3581162
0
LINE
8
0
10
6.5300761
20
-8.3581162
11
8.3581162
21
6.5300761
0
LINE
8
0
10
8.3581162
20
6.5300761
11
-6.5300761
21
8.3581162
0
LINE
8
0
10
-6.5300761
20
8.3581162
11
-8.3581162
21
-6.5300761
0
LINE
8
0
10
-6.0425987
20
12.3283007
11
8.8455936
21
10.5002606
0
LINE
8
0
10
8.8455936
20
10.5002606
11
10.6736337
21
25.3884529
0
LINE
8
0
10
10.6736337
20
25.3884529
11
-4.2145586
21
27.216493
0
LINE
8
0
10
-4.2145586
20
27.216493
11
-6.0425987
21
12.3283007
0
LINE
8
0
10
-3.7270811
20
31.1866776
11
11.1611112
21
29.3586375
0
LINE
8
0
10
11.1611112
20
29.3586375
11
12.9891513
21
44.2468298
0
LINE
8
0
10
12.9891513
20
44.2468298
11
-1.899041
21
46.0748699
0
LINE
8
0
10
-1.899041
20
46.0748699
11
-3.7270811
21
31.1866776
0
LINE
8
0
10
12.8873863
20
2.5121863
11
27.5596003
21
-0.6064891
0
LINE
8
0
10
27.5596003
20
-0.6064891
11
30.6782757
21
14.0657249
0
LINE
8
0
10
30.6782757
20
14.0657249
11
16.0060617
21
17.1844003
0
LINE
8
0
10
16.0060617
20
17.1844003
11
12.8873863
21
2.5121863
0
LINE
8
0
10
16.8377085
20
21.0969907
11
31.5099225
21
17.9783153
0
LINE
8
0
10
31.5099225
20
17.9783153
11
34.6285979
21
32.6505293
0
LINE
8
0
10
34.6285979
20
32.6505293
11
19.9563839
21
35.7692047
0
LINE
8
0
10
19.9563839
20
35.7692047
11
16.8377085
21
21.0969907
0
LINE
8
0
10
20.7880306
20
39.6817951
11
35.4602446
21
36.5631197
0
LINE
8
0
10
35.4602446
20
36.5631197
11
38.57892
21
51.2353337
0
LINE
8
0
10
38.57892
20
51.2353337
11
23.906706
21
54.3540091
0
LINE
8
0
10
23.906706
20
54.3540091
11
20.7880306
21
39.6817951
0
LINE
8
0
10
32.5117491
20
3.4526022
11
47.1839631
21
0.3339268
0
LINE
8
0
10
47.1839631
20
0.3339268
11
50.3026385
21
15.0061408
0
LINE
8
0
10
50.3026385
20
15.0061408
11
35.6304245
21
18.1248162
0
LINE
8
0
10
35.6304245
20
18.1248162
11
32.5117491
21
3.4526022
0
LINE
8
0
10
36.4620713
20
22.0374066
11
51.1342853
21
18.9187312
0
LINE
8
0
10
51.1342853
20
18.9187312
11
54.2529607
21
33.5909452
0
LINE
8
0
10
54.2529607
20
33.5909452
11
39.5807467
21
36.7096206
0
LINE
8
0
10
39.5807467
20
36.7096206
11
36.4620713
21
22.0374066
0
LINE
8
0
10
40.4123934
20
40.622211
11
55.0846074
21
37.5035356
0
LINE
8
0
10
55.0846074
20
37.5035356
11
58.2032828
21
52.1757496
0
LINE
8
0
10
58.2032828
20
52.1757496
11
43.5310688
21
55.294425
0
LINE
8
0
10
43.5310688
20
55.294425
11
40.4123934
21
40.622211
0
LINE
8
0
10
49.6411717
20
-7.3447531
11
64.3133857
21
-10.4634285
0
LINE
8
0
10
64.3133857
20
-10.4634285
11
67.4320611
21
4.2087855
0
LINE
8
0
10
67.4320611
20
4.2087855
11
52.7598471
21
7.3274609
0
LINE
8
0
10
52.7598471
20
7.3274609
11
49.6411717
21
-7.3447531
0
LINE
8
0
10
53.5914938
20
11.2400513
11
68.2637078
21
8.1213759
0
LINE
8
0
10
68.2637078
20
8.1213759
11
71.3823832
21
22.7935899
0
LINE
8
0
10
71.3823832
20
22.7935899
11
56.7101692
21
25.9122653
0
LINE
8
0
10
56.7101692
20
25.9122653
11
53.5914938
21
11.2400513
0
LINE
8
0
10
57.541816
20
29.8248557
11
72.21403
21
26.7061803
0
LINE
8
0
10
72.21403
20
26.7061803
11
75.3327054
21
41.3783943
0
LINE
8
0
10
75.3327054
20
41.3783943
11
60.6604914
21
44.4970697
0
LINE
8
0
10
60.6604914
20
44.4970697
11
57.541816
21
29.8248557
0
LINE
8
0
10
67.8101528
20
-13.2513705
11
82.4823668
21
-16.3700459
0
LINE
8
0
10
82.4823668
20
-16.3700459
11
85.6010422
21
-1.6978319
0
LINE
8
0
10
85.6010422
20
-1.6978319
11
70.9288282
21
1.4208435
0
LINE
8
0
10
70.9288282
20
1.4208435
11
67.8101528
21
-13.2513705
0
LINE
8
0
10
71.7604749
20
5.3334339
11
86.4326889
21
2.2147585
0
LINE
8
0
10
86.4326889
20
2.2147585
11
89.5513643
21
16.8869725
0
LINE
8
0
10
89.5513643
20
16.8869725
11
74.8791503
21
20.0056479
0
LINE
8
0
10
74.8791503
20
20.0056479
11
71.7604749
21
5.3334339
0
LINE
8
0
10
75.7107971
20
23.9182383
11
90.3830111
21
20.7995629
0
LINE
8
0
10
90.3830111
20
20.7995629
11
93.5016865
21
35.4717769
0
LINE
8
0
10
93.5016865
20
35.4717769
11
78.8294725
21
38.5904523
0
LINE
8
0
10
78.8294725
20
38.5904523
11
75.7107971
21
23.9182383
0
LINE
8
0
10
57.0127974
20
-30.380793
11
71.6850114
21
-33.4994684
0
LINE
8
0
10
71.6850114
20
-33.4994684
11
74.8036868
21
-18.8272544
0
LINE
8
0
10
74.8036868
20
-18.8272544
11
60.1314728
21
-15.708579
0
LINE
8
0
10
60.1314728
20
-15.708579
11
57.0127974
21
-30.380793
0
LINE
8
0
10
77.5493095
20
-36.965294
11
89.0399762
21
-46.6071081
0
LINE
8
0
10
89.0399762
20
-46.6071081
11
98.6817903
21
-35.1164414
0
LINE
8
0
10
98.6817903
20
-35.1164414
11
87.1911236
21
-25.4746273
0
LINE
8
0
10
87.1911236
20
-25.4746273
11
77.5493095
21
-36.965294
0
LINE
8
0
10
93.4714724
20
-51.7804798
11
99.0905713
21
-65.6882377
0
LINE
8
0
10
99.0905713
20
-65.6882377
11
112.9983292
21
-60.0691388
0
LINE
8
0
10
112.9983292
20
-60.0691388
11
107.3792303
21
-46.1613809
0
LINE
8
0
10
107.3792303
20
-46.1613809
11
93.4714724
21
-51.7804798
0
LINE
8
0
10
221.8539367
20
-8.3581162
11
236.742129
21
-6.5300761
0
LINE
8
0
10
236.742129
20
-6.5300761
11
234.9140889
21
8.3581162
0
LINE
8
0
10
234.9140889
20
8.3581162
11
220.0258966
21
6.5300761
0
LINE
8
0
10
220.0258966
20
6.5300761
11
221.8539367
21
-8.3581162
0
LINE
8
0
10
219.5384192
20
10.5002606
11
234.4266115
21
12.3283007
0
LINE
8
0
10
234.4266115
20
12.3283007
11
232.5985714
21
27.216493
0
LINE
8
0
10
232.5985714
20
27.216493
11
217.7103791
21
25.3884529
0
LINE
8
0
10
217.7103791
20
25.3884529
11
219.5384192
21
10.5002606
0
LINE
8
0
10
217.2229016
20
29.3586375
11
232.1110939
21
31.1866776
0
LINE
8
0
10
232.1110939
20
31.1866776
11
230.2830538
21
46.0748699
0
LINE
8
0
10
230.2830538
20
46.0748699
11
215.3948615
21
44.2468298
0
LINE
8
0
10
215.3948615
20
44.2468298
11
217.2229016
21
29.3586375
0
LINE
8
0
10
200.8244125
20
-0.6064891
11
215.4966265
21
2.5121863
0
LINE
8
0
10
215.4966265
20
2.5121863
11
212.3779511
21
17.1844003
0
LINE
8
0
10
212.3779511
20
17.1844003
11
197.7057371
21
14.0657249
0
LINE
8
0
10
197.7057371
20
14.0657249
11
200.8244125
21
-0.6064891
0
LINE
8
0
10
196.8740903
20
17.9783153
11
211.5463043
21
21.0969907
0
LINE
8
0
10
211.5463043
20
21.0969907
11
208.4276289
21
35.7692047
0
LINE
8
0
10
208.4276289
20
35.7692047
11
193.7554149
21
32.6505293
0
LINE
8
0
10
193.7554149
20
32.6505293
11
196.8740903
21
17.9783153
0
LINE
8
0
10
192.9237682
20
36.5631197
11
207.5959822
21
39.6817951
0
LINE
8
0
10
207.5959822
20
39.6817951
11
204.4773068
21
54.3540091
0
LINE
8
0
10
204.4773068
20
54.3540091
11
189.8050928
21
51.2353337
0
LINE
8
0
10
189.8050928
20
51.2353337
11
192.9237682
21
36.5631197
0
LINE
8
0
10
181.2000497
20
0.3339268
11
195.8722637
21
3.4526022
0
LINE
8
0
10
195.8722637
20
3.4526022
11
192.7535883
21
18.1248162
0
LINE
8
0
10
192.7535883
20
18.1248162
11
178.0813743
21
15.0061408
0
LINE
8
0
10
178.0813743
20
15.0061408
11
181.2000497
21
0.3339268
0
LINE
8
0
10
177.2497275
20
18.9187312
11
191.9219415
21
22.0374066
0
LINE
8
0
10
191.9219415
20
22.0374066
11
188.8032661
21
36.7096206
0
LINE
8
0
10
188.8032661
20
36.7096206
11
174.1310521
21
33.5909452
0
LINE
8
0
10
174.1310521
20
33.5909452
11
177.2497275
21
18.9187312
0
LINE
8
0
10
173.2994054
20
37.5035356
11
187.9716194
21
40.622211
0
LINE
8
0
10
187.9716194
20
40.622211
11
184.852944
21
55.294425
0
LINE
8
0
10
184.852944
20
55.294425
11
170.18073
21
52.1757496
0
LINE
8
0
10
170.18073
20
52.1757496
11
173.2994054
21
37.5035356
0
LINE
8
0
10
164.0706271
20
-10.4634285
11
178.7428411
21
-7.3447531
0
LINE
8
0
10
178.7428411
20
-7.3447531
11
175.6241657
21
7.3274609
0
LINE
8
0
10
175.6241657
20
7.3274609
11
160.9519517
21
4.2087855
0
LINE
8
0
10
160.9519517
20
4.2087855
11
164.0706271
21
-10.4634285
0
LINE
8
0
10
160.120305
20
8.1213759
11
174.792519
21
11.2400513
0
LINE
8
0
10
174.792519
20
11.2400513
11
171.6738436
21
25.9122653
0
LINE
8
0
10
171.6738436
20
25.9122653
11
157.0016296
21
22.7935899
0
LINE
8
0
10
157.0016296
20
22.7935899
11
160.120305
21
8.1213759
0
LINE
8
0
10
156.1699828
20
26.7061803
11
170.8421968
21
29.8248557
0
LINE
8
0
10
170.8421968
20
29.8248557
11
167.7235214
21
44.4970697
0
LINE
8
0
10
167.7235214
20
44.4970697
11
153.0513074
21
41.3783943
0
LINE
8
0
10
153.0513074
20
41.3783943
11
156.1699828
21
26.7061803
0
LINE
8
0
10
145.901646
20
-16.3700459
11
160.57386
21
-13.2513705
0
LINE
8
0
10
160.57386
20
-13.2513705
11
157.4551846
21
1.4208435
0
LINE
8
0
10
157.4551846
20
1.4208435
11
142.7829706
21
-1.6978319
0
LINE
8
0
10
142.7829706
20
-1.6978319
11
145.901646
21
-16.3700459
0
LINE
8
0
10
141.9513239
20
2.2147585
11
156.6235379
21
5.3334339
0
LINE
8
0
10
156.6235379
20
5.3334339
11
153.5048625
21
20.0056479
0
LINE
8
0
10
153.5048625
20
20.0056479
11
138.8326485
21
16.8869725
0
LINE
8
0
10
138.8326485
20
16.8869725
11
141.9513239
21
2.2147585
0
LINE
8
0
10
138.0010017
20
20.7995629
11
152.6732157
21
23.9182383
0
LINE
8
0
10
152.6732157
20
23.9182383
11
149.5545403
21
38.5904523
0
LINE
8
0
10
149.5545403
20
38.5904523
11
134.8823263
21
35.4717769
0
LINE
8
0
10
134.8823263
20
35.4717769
11
138.0010017
21
20.7995629
0
LINE
8
0
10
156.6990014
20
-33.4994684
11
171.3712154
21
-30.380793
0
LINE
8
0
10
171.3712154
20
-30.380793
11
168.25254
21
-15.708579
0
LINE
8
0
10
168.25254
20
-15.708579
11
153.580326
21
-18.8272544
0
LINE
8
0
10
153.580326
20
-18.8272544
11
156.6990014
21
-33.4994684
0
LINE
8
0
10
139.3440366
20
-46.6071081
11
150.8347033
21
-36.965294
0
LINE
8
0
10
150.8347033
20
-36.965294
11
141.1928892
21
-25.4746273
0
LINE
8
0
10
141.1928892
20
-25.4746273
11
129.7022225
21
-35.1164414
0
LINE
8
0
10
129.7022225
20
-35.1164414
11
139.3440366
21
-46.6071081
0
LINE
8
0
10
129.2934415
20
-65.6882377
11
134.9125404
21
-51.7804798
0
LINE
8
0
10
134.9125404
20
-51.7804798
11
121.0047825
21
-46.1613809
0
LINE
8
0
10
121.0047825
20
-46.1613809
11
115.3856836
21
-60.0691388
0
LINE
8
0
10
115.3856836
20
-60.0691388
11
129.2934415
21
-65.6882377
0
ENDSEC
0
EOF