<svg width="245.1mm" height="120.983mm" viewBox="0 0 245.1 120.983" xmlns="http://www.w3.org/2000/svg"><g id="svgGroup" stroke-linecap="round" fill-rule="evenodd" font-size="9pt" stroke="#000" stroke-width="0.25mm" fill="none" style="stroke:#000;stroke-width:0.25mm;fill:none"><path d="M 137.652 120.983 L 143.271 107.075 L 129.363 101.456 L 123.744 115.364 L 137.652 120.983 Z M 101.83 107.075 L 107.449 120.983 L 121.356 115.364 L 115.737 101.456 L 101.83 107.075 Z M 225.581 25.936 L 240.469 24.108 L 238.641 9.22 L 223.753 11.048 L 225.581 25.936 Z M 230.212 63.653 L 245.1 61.825 L 243.272 46.936 L 228.384 48.764 L 230.212 63.653 Z M 227.897 44.794 L 242.785 42.966 L 240.957 28.078 L 226.068 29.906 L 227.897 44.794 Z M 0 61.825 L 14.888 63.653 L 16.716 48.764 L 1.828 46.936 L 0 61.825 Z M 2.316 42.966 L 17.204 44.794 L 19.032 29.906 L 4.144 28.078 L 2.316 42.966 Z M 4.631 24.108 L 19.519 25.936 L 21.347 11.048 L 6.459 9.22 L 4.631 24.108 Z M 85.907 92.26 L 97.398 101.902 L 107.04 90.411 L 95.549 80.769 L 85.907 92.26 Z M 147.702 101.902 L 159.193 92.26 L 149.551 80.769 L 138.06 90.411 L 147.702 101.902 Z M 185.608 36.376 L 200.28 33.257 L 197.161 18.585 L 182.489 21.703 L 185.608 36.376 Z M 181.658 17.791 L 196.33 14.672 L 193.211 0 L 178.539 3.119 L 181.658 17.791 Z M 164.528 28.588 L 179.2 25.47 L 176.082 10.797 L 161.409 13.916 L 164.528 28.588 Z M 205.232 37.316 L 219.904 34.197 L 216.786 19.525 L 202.114 22.644 L 205.232 37.316 Z M 209.183 55.901 L 223.855 52.782 L 220.736 38.11 L 206.064 41.229 L 209.183 55.901 Z M 189.558 54.96 L 204.23 51.842 L 201.112 37.17 L 186.439 40.288 L 189.558 54.96 Z M 172.429 65.758 L 187.101 62.639 L 183.982 47.967 L 169.31 51.086 L 172.429 65.758 Z M 168.478 47.173 L 183.151 44.054 L 180.032 29.382 L 165.36 32.501 L 168.478 47.173 Z M 154.26 71.664 L 168.932 68.546 L 165.813 53.874 L 151.141 56.992 L 154.26 71.664 Z M 146.359 34.495 L 161.031 31.376 L 157.913 16.704 L 143.24 19.823 L 146.359 34.495 Z M 25.196 34.197 L 39.868 37.316 L 42.987 22.644 L 28.315 19.525 L 25.196 34.197 Z M 201.282 18.731 L 215.954 15.613 L 212.835 0.94 L 198.163 4.059 L 201.282 18.731 Z M 150.309 53.08 L 164.982 49.961 L 161.863 35.289 L 147.191 38.407 L 150.309 53.08 Z M 165.057 88.794 L 179.729 85.675 L 176.611 71.003 L 161.938 74.122 L 165.057 88.794 Z M 21.246 52.782 L 35.918 55.901 L 39.036 41.229 L 24.364 38.11 L 21.246 52.782 Z M 29.146 15.613 L 43.818 18.731 L 46.937 4.059 L 32.265 0.94 L 29.146 15.613 Z M 40.87 51.842 L 55.542 54.96 L 58.661 40.288 L 43.989 37.17 L 40.87 51.842 Z M 44.82 33.257 L 59.492 36.376 L 62.611 21.703 L 47.939 18.585 L 44.82 33.257 Z M 57.999 62.639 L 72.672 65.758 L 75.79 51.086 L 61.118 47.967 L 57.999 62.639 Z M 61.95 44.054 L 76.622 47.173 L 79.74 32.501 L 65.068 29.382 L 61.95 44.054 Z M 76.168 68.546 L 90.84 71.664 L 93.959 56.992 L 79.287 53.874 L 76.168 68.546 Z M 80.119 49.961 L 94.791 53.08 L 97.909 38.407 L 83.237 35.289 L 80.119 49.961 Z M 84.069 31.376 L 98.741 34.495 L 101.86 19.823 L 87.188 16.704 L 84.069 31.376 Z M 48.771 14.672 L 63.443 17.791 L 66.561 3.119 L 51.889 0 L 48.771 14.672 Z M 65.9 25.47 L 80.572 28.588 L 83.691 13.916 L 69.019 10.797 L 65.9 25.47 Z M 65.371 85.675 L 80.043 88.794 L 83.162 74.122 L 68.49 71.003 L 65.371 85.675 Z" vector-effect="non-scaling-stroke"/></g></svg>