<svg width="256.613mm" height="128.935mm" viewBox="0 0 256.613 128.935" xmlns="http://www.w3.org/2000/svg"><g id="svgGroup" stroke-linecap="round" fill-rule="evenodd" font-size="9pt" stroke="#000" stroke-width="0.25mm" fill="none" style="stroke:#000;stroke-width:0.25mm;fill:none"><path d="M 239.662 67.103 L 249.588 65.885 A 8 8 0 0 0 256.553 56.969 L 251.678 17.267 A 8 8 0 0 0 242.763 10.302 L 237.108 10.996 L 236.4 7.665 L 234.443 8.08 A 8 8 0 0 1 224.955 1.919 L 224.747 0.94 L 206.162 4.891 L 205.123 0 L 187.516 3.742 L 188.971 10.589 L 170.387 14.54 L 170.802 16.496 L 160.043 18.783 A 8 8 0 0 0 153.881 28.272 L 154.089 29.25 L 156.795 41.98 A 8 8 0 0 0 151.982 43.845 L 128.306 63.711 L 128.094 63.533 L 121.522 117.059 L 128.306 108.974 L 142.658 126.077 A 8 8 0 0 0 153.928 127.063 L 193.763 93.638 A 8 8 0 0 0 194.749 82.367 L 183.53 68.997 L 199.636 65.574 L 198.181 58.727 L 217.744 54.568 L 218.783 59.459 L 228.398 57.416 L 228.64 59.389 L 230.625 59.145 A 8 8 0 0 1 239.54 66.111 L 239.662 67.103 Z M 7.025 65.885 L 9.01 66.128 A 8 8 0 0 0 17.925 59.163 L 18.047 58.17 L 27.973 59.389 L 28.215 57.416 L 37.829 59.459 L 38.869 54.568 L 58.432 58.727 L 56.976 65.574 L 73.083 68.997 L 61.864 82.367 A 8 8 0 0 0 62.85 93.638 L 102.684 127.063 A 8 8 0 0 0 113.955 126.077 L 116.801 122.685 L 124.44 60.467 L 104.631 43.845 A 8 8 0 0 0 99.818 41.98 L 102.524 29.25 L 102.732 28.272 A 8 8 0 0 0 96.57 18.783 L 85.81 16.496 L 86.226 14.54 L 67.641 10.589 L 69.097 3.742 L 51.49 0 L 50.451 4.891 L 39.691 2.604 A 8 8 0 0 0 30.202 8.766 L 29.995 9.744 L 20.213 7.665 L 19.505 10.996 L 13.85 10.302 A 8 8 0 0 0 4.934 17.267 L 0.06 56.969 A 8 8 0 0 0 7.025 65.885 Z" vector-effect="non-scaling-stroke"/></g></svg>