0
SECTION
2
HEADER
9
$INSUNITS
70
4
0
ENDSEC
0
SECTION
2
TABLES
0
TABLE
2
LTYPE
0
LTYPE
72
65
70
64
2
CONTINUOUS
3
______
73
0
40
0
0
ENDTAB
0
TABLE
2
LAYER
0
ENDTAB
0
ENDSEC
0
SECTION
2
ENTITIES
0
LINE
8
0
10
-8.0446471
20
-8.07983
11
5.8509991
21
-9.7860008
0
LINE
8
0
10
8.07983
20
-8.0446471
11
8.6891767
21
-3.0819165
0
LINE
8
0
10
-9.7860008
20
-5.8509991
11
-3.4487949
21
45.7614008
0
LINE
8
0
10
19.1006939
20
-0.3420039
11
18.8583769
21
-2.3155176
0
LINE
8
0
10
18.8583769
20
-2.3155176
11
10.9180078
21
-1.3405628
0
LINE
8
0
10
-1.219964
20
47.5027545
11
10.3904926
21
46.0771697
0
LINE
8
0
10
19.1006939
20
-0.3420039
11
26.758659
21
-1.9697546
0
LINE
8
0
10
29.1307776
20
-0.4292828
11
29.7545126
21
2.50516
0
LINE
8
0
10
13.0549661
20
48.9930631
11
18.9238517
21
47.745593
0
LINE
8
0
10
10.3904926
20
46.0771697
11
10.6828475
21
47.4525913
0
LINE
8
0
10
24.7076473
20
55.7172746
11
41.3361565
21
52.1827759
0
LINE
8
0
10
22.3355287
20
54.1768028
11
21.2959703
21
49.2860648
0
LINE
8
0
10
29.7545126
20
2.50516
11
49.3174646
21
-1.6530738
0
LINE
8
0
10
58.5269899
20
46.4840703
11
59.5665483
21
51.3748083
0
LINE
8
0
10
58.0260765
20
53.7469269
11
44.3320101
21
56.6576905
0
LINE
8
0
10
41.9598915
20
55.1172187
11
41.3361565
21
52.1827759
0
LINE
8
0
10
49.818378
20
-8.9159304
11
66.4468873
21
-12.4504291
0
LINE
8
0
10
49.3174646
20
-1.6530738
11
48.2779062
21
-6.5438118
0
LINE
8
0
10
76.6959709
20
40.5774529
11
76.6959709
21
40.577453
0
LINE
8
0
10
58.5269899
20
46.4840703
11
75.1554991
21
42.9495716
0
LINE
8
0
10
67.9873591
20
-14.8225478
11
81.6814255
21
-17.7333114
0
LINE
8
0
10
84.0535441
20
-16.1928396
11
93.4095701
21
27.8238024
0
LINE
8
0
10
66.4468873
20
-12.4504291
11
66.4468873
21
-12.4504292
0
LINE
8
0
10
93.4095702
20
27.8238024
11
94.864952
21
34.6708356
0
LINE
8
0
10
76.6959709
20
40.5774529
11
93.3244802
21
37.0429542
0
LINE
8
0
10
57.1900037
20
-31.9519703
11
70.8840701
21
-34.8627339
0
LINE
8
0
10
73.2561887
20
-33.3222621
11
76.1669523
21
-19.6281957
0
LINE
8
0
10
74.6264805
20
-17.2560771
11
60.9324141
21
-14.3453135
0
LINE
8
0
10
58.5602955
20
-15.8857853
11
55.6495319
21
-29.5798517
0
LINE
8
0
10
76.9681503
20
-38.4357544
11
87.6927725
21
-47.434781
0
LINE
8
0
10
90.5104366
20
-47.1882673
11
99.5094632
21
-36.4636451
0
LINE
8
0
10
99.2629495
20
-33.645981
11
88.5383273
21
-24.6469544
0
LINE
8
0
10
85.7206632
20
-24.8934681
11
76.7216366
21
-35.6180903
0
LINE
8
0
10
92.268
20
-52.8059816
11
97.5124922
21
-65.7865556
0
LINE
8
0
10
100.1160731
20
-66.8917101
11
113.4427932
21
-61.5073658
0
LINE
8
0
10
112.3376387
20
-54.4296718
11
108.9573094
21
-46.063063
0
LINE
8
0
10
106.3537285
20
-44.9579085
11
93.3731545
21
-50.2024007
0
LINE
8
0
10
222.5330137
20
-9.7860008
11
236.4286599
21
-8.07983
0
LINE
8
0
10
231.8328077
20
45.7614008
11
238.1700136
21
-5.8509991
0
LINE
8
0
10
219.6948361
20
-3.0819165
11
220.3041828
21
-8.0446471
0
LINE
8
0
10
217.466005
20
-1.3405628
11
209.5256359
21
-2.3155176
0
LINE
8
0
10
209.5256359
20
-2.3155176
11
209.2833189
21
-0.3420039
0
LINE
8
0
10
219.812522
20
46.300515
11
229.6039768
21
47.5027545
0
LINE
8
0
10
201.6253538
20
-1.9697546
11
209.2833189
21
-0.3420039
0
LINE
8
0
10
198.6295002
20
2.50516
11
199.2532352
21
-0.4292828
0
LINE
8
0
10
209.4601611
20
47.745593
11
217.2853419
21
49.4088865
0
LINE
8
0
10
217.2853419
20
49.4088865
11
217.6124882
21
47.869784
0
LINE
8
0
10
207.0880425
20
49.2860648
11
206.0484841
21
54.1768028
0
LINE
8
0
10
187.0478563
20
52.1827759
11
203.6763655
21
55.7172746
0
LINE
8
0
10
179.0665482
20
-1.6530738
11
198.6295002
21
2.50516
0
LINE
8
0
10
187.0478563
20
52.1827759
11
186.4241213
21
55.1172187
0
LINE
8
0
10
184.0520027
20
56.6576905
11
170.3579363
21
53.7469269
0
LINE
8
0
10
168.8174645
20
51.3748083
11
169.8570229
21
46.4840703
0
LINE
8
0
10
161.9371255
20
-12.4504291
11
178.5656348
21
-8.9159304
0
LINE
8
0
10
180.1061066
20
-6.5438118
11
179.0665482
21
-1.6530738
0
LINE
8
0
10
153.2285137
20
42.9495716
11
169.8570229
21
46.4840703
0
LINE
8
0
10
151.6880419
20
40.577453
11
151.6880419
21
40.5774529
0
LINE
8
0
10
146.7025873
20
-17.7333114
11
160.3966537
21
-14.8225478
0
LINE
8
0
10
161.9371255
20
-12.4504292
11
161.9371255
21
-12.4504291
0
LINE
8
0
10
134.9744427
20
27.8238024
11
144.3304687
21
-16.1928396
0
LINE
8
0
10
135.0595326
20
37.0429542
11
151.6880419
21
40.5774529
0
LINE
8
0
10
133.5190608
20
34.6708356
11
134.9744426
21
27.8238024
0
LINE
8
0
10
157.4999427
20
-34.8627339
11
171.1940091
21
-31.9519703
0
LINE
8
0
10
172.7344809
20
-29.5798517
11
169.8237173
21
-15.8857853
0
LINE
8
0
10
167.4515987
20
-14.3453135
11
153.7575323
21
-17.2560771
0
LINE
8
0
10
152.2170605
20
-19.6281957
11
155.1278241
21
-33.3222621
0
LINE
8
0
10
140.6912403
20
-47.434781
11
151.4158625
21
-38.4357544
0
LINE
8
0
10
151.6623762
20
-35.6180903
11
142.6633496
21
-24.8934681
0
LINE
8
0
10
139.8456855
20
-24.6469544
11
129.1210633
21
-33.645981
0
LINE
8
0
10
128.8745496
20
-36.4636451
11
137.8735762
21
-47.1882673
0
LINE
8
0
10
130.8715206
20
-65.7865556
11
136.1160128
21
-52.8059816
0
LINE
8
0
10
135.0108583
20
-50.2024007
11
122.0302843
21
-44.9579085
0
LINE
8
0
10
119.4267034
20
-46.063063
11
116.0463741
21
-54.4296718
0
LINE
8
0
10
114.9412196
20
-61.5073658
11
128.2679397
21
-66.8917101
0
ARC
8
0
10
236.1849213
20
-6.0947377
40
2
50
276.9999972
51
6.9999972
0
ARC
8
0
10
229.8477154
20
45.5176622
40
2
50
6.9999972
51
96.9999972
0
ARC
8
0
10
219.5687834
20
48.2856074
40
2
50
192.0000005
51
276.9999972
0
ARC
8
0
10
209.0443377
20
49.7018882
40
2
50
192.0000005
51
282.0000005
0
ARC
8
0
10
204.0921889
20
53.7609794
40
2
50
12.0000005
51
102.0000005
0
ARC
8
0
10
184.4678261
20
54.7013953
40
2
50
12.0000005
51
102.0000005
0
ARC
8
0
10
170.7737597
20
51.7906317
40
2
50
102.0000005
51
192.0000005
0
ARC
8
0
10
153.6443371
20
40.9932764
40
2
50
102.0000005
51
192.0000005
0
ARC
8
0
10
135.475356
20
35.086659
40
2
50
102.0000005
51
192.0000005
0
ARC
8
0
10
146.2867639
20
-15.7770162
40
2
50
192.0000005
51
282.0000005
0
ARC
8
0
10
159.9808303
20
-12.8662526
40
2
50
282.0000005
51
12.0000005
0
ARC
8
0
10
178.1498114
20
-6.9596352
40
2
50
282.0000005
51
12.0000005
0
ARC
8
0
10
201.2095304
20
-0.0134594
40
2
50
192.0000005
51
282.0000005
0
ARC
8
0
10
217.7097438
20
-3.3256551
40
2
50
6.9999972
51
97.0000029
0
ARC
8
0
10
222.2892751
20
-7.8009085
40
2
50
186.9999972
51
276.9999972
0
ARC
8
0
10
6.0947377
20
-7.8009085
40
2
50
263.0000028
51
353.0000028
0
ARC
8
0
10
10.674269
20
-3.3256551
40
2
50
82.9999971
51
173.0000028
0
ARC
8
0
10
27.1744824
20
-0.0134594
40
2
50
257.9999995
51
347.9999995
0
ARC
8
0
10
50.2342014
20
-6.9596352
40
2
50
167.9999995
51
257.9999995
0
ARC
8
0
10
68.4031825
20
-12.8662526
40
2
50
167.9999995
51
257.9999995
0
ARC
8
0
10
82.0972489
20
-15.7770162
40
2
50
257.9999995
51
347.9999995
0
ARC
8
0
10
92.9086568
20
35.086659
40
2
50
347.9999995
51
77.9999995
0
ARC
8
0
10
74.7396757
20
40.9932764
40
2
50
347.9999995
51
77.9999995
0
ARC
8
0
10
57.6102531
20
51.7906317
40
2
50
347.9999995
51
77.9999995
0
ARC
8
0
10
43.9161867
20
54.7013953
40
2
50
77.9999995
51
167.9999995
0
ARC
8
0
10
24.2918239
20
53.7609794
40
2
50
77.9999995
51
167.9999995
0
ARC
8
0
10
19.3396751
20
49.7018882
40
2
50
257.9999995
51
347.9999995
0
ARC
8
0
10
12.6391427
20
47.0367679
40
2
50
77.9999995
51
167.9999995
0
ARC
8
0
10
-1.4637026
20
45.5176622
40
2
50
83.0000028
51
173.0000028
0
ARC
8
0
10
-7.8009085
20
-6.0947377
40
2
50
173.0000028
51
263.0000028
0
ARC
8
0
10
99.3668599
20
-65.0373424
40
2
50
201.9999994
51
291.9999994
0
ARC
8
0
10
114.1920064
20
-63.3617335
40
2
50
68.0000006
51
111.9999994
0
ARC
8
0
10
129.0171529
20
-65.0373424
40
2
50
248.0000006
51
338.0000006
0
ARC
8
0
10
134.2616451
20
-52.0567684
40
2
50
338.0000006
51
68.0000006
0
ARC
8
0
10
121.2810711
20
-46.8122762
40
2
50
68.0000006
51
158.0000006
0
ARC
8
0
10
114.1920064
20
-53.6804586
40
2
50
201.9999994
51
338.0000006
0
ARC
8
0
10
107.1029417
20
-46.8122762
40
2
50
21.9999994
51
111.9999994
0
ARC
8
0
10
94.1223677
20
-52.0567684
40
2
50
111.9999994
51
201.9999994
0
ARC
8
0
10
88.9783477
20
-45.9026921
40
2
50
229.9999988
51
319.9999988
0
ARC
8
0
10
97.9773743
20
-35.1780699
40
2
50
319.9999988
51
49.9999988
0
ARC
8
0
10
87.2527521
20
-26.1790433
40
2
50
49.9999988
51
139.9999988
0
ARC
8
0
10
78.2537255
20
-36.9036655
40
2
50
139.9999988
51
229.9999988
0
ARC
8
0
10
150.1302873
20
-36.9036655
40
2
50
310.0000012
51
40.0000012
0
ARC
8
0
10
141.1312607
20
-26.1790433
40
2
50
40.0000012
51
130.0000012
0
ARC
8
0
10
130.4066385
20
-35.1780699
40
2
50
130.0000012
51
220.0000012
0
ARC
8
0
10
139.4056651
20
-45.9026921
40
2
50
220.0000012
51
310.0000012
0
ARC
8
0
10
71.2998935
20
-32.9064387
40
2
50
257.9999995
51
347.9999995
0
ARC
8
0
10
74.2106571
20
-19.2123723
40
2
50
347.9999995
51
77.9999995
0
ARC
8
0
10
60.5165907
20
-16.3016087
40
2
50
77.9999995
51
167.9999995
0
ARC
8
0
10
57.6058271
20
-29.9956751
40
2
50
167.9999995
51
257.9999995
0
ARC
8
0
10
170.7781857
20
-29.9956751
40
2
50
282.0000005
51
12.0000005
0
ARC
8
0
10
167.8674221
20
-16.3016087
40
2
50
12.0000005
51
102.0000005
0
ARC
8
0
10
154.1733557
20
-19.2123723
40
2
50
102.0000005
51
192.0000005
0
ARC
8
0
10
157.0841193
20
-32.9064387
40
2
50
192.0000005
51
282.0000005
0
ENDSEC
0
EOF