<svg width="257.986mm" height="131.833mm" viewBox="0 0 257.986 131.833" xmlns="http://www.w3.org/2000/svg"><g id="svgGroup" stroke-linecap="round" fill-rule="evenodd" font-size="9pt" stroke="#000" stroke-width="0.25mm" fill="none" style="stroke:#000;stroke-width:0.25mm;fill:none"><path d="M 1.756 64.781 L 15.652 66.487 A 2 2 0 0 0 17.881 64.746 L 18.49 59.783 A 2 2 0 0 1 20.719 58.042 L 28.659 59.017 L 28.902 57.043 L 36.56 58.671 A 2 2 0 0 0 38.932 57.131 L 39.555 54.196 L 59.118 58.354 L 58.079 63.245 A 2 2 0 0 0 59.619 65.617 L 73.769 68.625 L 71.585 71.228 L 70.733 71.047 A 2 2 0 0 0 68.361 72.587 L 67.654 75.913 L 57.408 88.123 L 109.499 131.833 L 119.745 119.622 L 122.898 118.349 A 2 2 0 0 0 124.003 115.745 L 123.676 114.937 L 128.993 108.601 L 134.309 114.937 L 133.983 115.745 A 2 2 0 0 0 135.088 118.349 L 138.24 119.622 L 148.487 131.833 L 200.578 88.123 L 190.331 75.913 L 189.625 72.587 A 2 2 0 0 0 187.253 71.047 L 186.4 71.228 L 184.216 68.625 L 198.367 65.617 A 2 2 0 0 0 199.907 63.245 L 198.867 58.354 L 218.43 54.196 L 219.054 57.131 A 2 2 0 0 0 221.426 58.671 L 229.084 57.043 L 229.327 59.017 L 237.267 58.042 A 2 2 0 0 1 239.496 59.783 L 240.105 64.746 A 2 2 0 0 0 242.334 66.487 L 256.23 64.781 A 2 2 0 0 0 257.971 62.552 L 251.634 10.94 A 2 2 0 0 0 249.405 9.199 L 239.613 10.401 A 2 2 0 0 1 237.413 8.832 L 237.086 7.293 L 229.261 8.956 A 2 2 0 0 1 226.889 7.415 L 225.849 2.525 A 2 2 0 0 0 223.477 0.984 L 206.849 4.519 L 206.225 1.584 A 2 2 0 0 0 203.853 0.044 L 190.159 2.954 A 2 2 0 0 0 188.618 5.327 L 189.658 10.217 L 173.029 13.752 A 2 2 0 0 0 171.489 16.124 L 154.86 19.658 A 2 2 0 0 0 153.32 22.031 L 154.775 28.878 L 157.089 39.763 L 128.993 63.339 L 100.897 39.763 L 103.21 28.878 L 104.666 22.031 A 2 2 0 0 0 103.125 19.658 L 86.497 16.124 A 2 2 0 0 0 84.956 13.752 L 68.328 10.217 L 69.367 5.327 A 2 2 0 0 0 67.827 2.954 L 54.133 0.044 A 2 2 0 0 0 51.761 1.584 L 51.137 4.519 L 34.509 0.984 A 2 2 0 0 0 32.136 2.525 L 31.097 7.415 A 2 2 0 0 1 28.725 8.956 L 22.856 7.708 A 2 2 0 0 0 20.484 9.249 L 20.191 10.624 L 8.581 9.199 A 2 2 0 0 0 6.352 10.94 L 0.015 62.552 A 2 2 0 0 0 1.756 64.781 Z" vector-effect="non-scaling-stroke"/></g></svg>