0
SECTION
2
HEADER
9
$INSUNITS
70
4
0
ENDSEC
0
SECTION
2
TABLES
0
TABLE
2
LTYPE
0
LTYPE
72
65
70
64
2
CONTINUOUS
3
______
73
0
40
0
0
ENDTAB
0
TABLE
2
LAYER
0
ENDTAB
0
ENDSEC
0
SECTION
2
ENTITIES
0
LINE
8
0
10
-8.0446471
20
-8.07983
11
5.8509991
21
-9.7860008
0
LINE
8
0
10
8.07983
20
-8.0446471
11
8.6891767
21
-3.0819165
0
LINE
8
0
10
-9.7860008
20
-5.8509991
11
-3.4487949
21
45.7614008
0
LINE
8
0
10
19.1006939
20
-0.3420039
11
18.8583769
21
-2.3155176
0
LINE
8
0
10
18.8583769
20
-2.3155176
11
10.9180078
21
-1.3405628
0
LINE
8
0
10
-1.219964
20
47.5027545
11
10.3904926
21
46.0771697
0
LINE
8
0
10
19.1006939
20
-0.3420039
11
26.758659
21
-1.9697546
0
LINE
8
0
10
29.1307776
20
-0.4292828
11
29.7545126
21
2.50516
0
LINE
8
0
10
13.0549661
20
48.9930631
11
18.9238517
21
47.745593
0
LINE
8
0
10
10.3904926
20
46.0771697
11
10.6828475
21
47.4525913
0
LINE
8
0
10
24.7076473
20
55.7172746
11
41.3361565
21
52.1827759
0
LINE
8
0
10
22.3355287
20
54.1768028
11
21.2959703
21
49.2860648
0
LINE
8
0
10
29.7545126
20
2.50516
11
49.3174646
21
-1.6530738
0
LINE
8
0
10
58.5269899
20
46.4840703
11
59.5665483
21
51.3748083
0
LINE
8
0
10
58.0260765
20
53.7469269
11
44.3320101
21
56.6576905
0
LINE
8
0
10
41.9598915
20
55.1172187
11
41.3361565
21
52.1827759
0
LINE
8
0
10
49.818378
20
-8.9159304
11
63.9684711
21
-11.9236255
0
LINE
8
0
10
49.3174646
20
-1.6530738
11
48.2779062
21
-6.5438118
0
LINE
8
0
10
76.6959709
20
40.5774529
11
76.6959709
21
40.577453
0
LINE
8
0
10
58.5269899
20
46.4840703
11
75.1554991
21
42.9495716
0
LINE
8
0
10
91.0957721
20
16.9382386
11
93.4095701
21
27.8238024
0
LINE
8
0
10
93.4095702
20
27.8238024
11
94.864952
21
34.6708356
0
LINE
8
0
10
76.6959709
20
40.5774529
11
93.3244802
21
37.0429542
0
LINE
8
0
10
61.7844651
20
-14.5264225
11
60.9324141
21
-14.3453135
0
LINE
8
0
10
58.5602955
20
-15.8857853
11
57.8534523
21
-19.2112211
0
LINE
8
0
10
112.1568183
20
-62.0269334
11
113.0966471
21
-61.6472179
0
LINE
8
0
10
114.2018016
20
-59.043637
11
113.8754871
21
-58.2359802
0
LINE
8
0
10
232.5330137
20
-9.7860008
11
246.4286599
21
-8.07983
0
LINE
8
0
10
241.8328077
20
45.7614008
11
248.1700136
21
-5.8509991
0
LINE
8
0
10
229.6948361
20
-3.0819165
11
230.3041828
21
-8.0446471
0
LINE
8
0
10
227.466005
20
-1.3405628
11
219.5256359
21
-2.3155176
0
LINE
8
0
10
219.5256359
20
-2.3155176
11
219.2833189
21
-0.3420039
0
LINE
8
0
10
229.812522
20
46.300515
11
239.6039768
21
47.5027545
0
LINE
8
0
10
211.6253538
20
-1.9697546
11
219.2833189
21
-0.3420039
0
LINE
8
0
10
208.6295002
20
2.50516
11
209.2532352
21
-0.4292828
0
LINE
8
0
10
219.4601611
20
47.745593
11
227.2853419
21
49.4088865
0
LINE
8
0
10
227.2853419
20
49.4088865
11
227.6124882
21
47.869784
0
LINE
8
0
10
217.0880425
20
49.2860648
11
216.0484841
21
54.1768028
0
LINE
8
0
10
197.0478563
20
52.1827759
11
213.6763655
21
55.7172746
0
LINE
8
0
10
189.0665482
20
-1.6530738
11
208.6295002
21
2.50516
0
LINE
8
0
10
197.0478563
20
52.1827759
11
196.4241213
21
55.1172187
0
LINE
8
0
10
194.0520027
20
56.6576905
11
180.3579363
21
53.7469269
0
LINE
8
0
10
178.8174645
20
51.3748083
11
179.8570229
21
46.4840703
0
LINE
8
0
10
174.4155417
20
-11.9236255
11
188.5656348
21
-8.9159304
0
LINE
8
0
10
190.1061066
20
-6.5438118
11
189.0665482
21
-1.6530738
0
LINE
8
0
10
163.2285137
20
42.9495716
11
179.8570229
21
46.4840703
0
LINE
8
0
10
161.6880419
20
40.577453
11
161.6880419
21
40.5774529
0
LINE
8
0
10
144.9744427
20
27.8238024
11
147.2882407
21
16.9382386
0
LINE
8
0
10
145.0595326
20
37.0429542
11
161.6880419
21
40.5774529
0
LINE
8
0
10
143.5190608
20
34.6708356
11
144.9744426
21
27.8238024
0
LINE
8
0
10
180.5305605
20
-19.2112211
11
179.8237173
21
-15.8857853
0
LINE
8
0
10
177.4515987
20
-14.3453135
11
176.5995477
21
-14.5264225
0
LINE
8
0
10
124.5085257
20
-58.2359802
11
124.1822112
21
-59.043637
0
LINE
8
0
10
125.2873657
20
-61.6472179
11
128.4395379
21
-62.9207781
0
ARC
8
0
10
246.1849213
20
-6.0947377
40
2
50
276.9999972
51
6.9999972
0
ARC
8
0
10
239.8477154
20
45.5176622
40
2
50
6.9999972
51
96.9999972
0
ARC
8
0
10
229.5687834
20
48.2856074
40
2
50
192.0000005
51
276.9999972
0
ARC
8
0
10
219.0443377
20
49.7018882
40
2
50
192.0000005
51
282.0000005
0
ARC
8
0
10
214.0921889
20
53.7609794
40
2
50
12.0000005
51
102.0000005
0
ARC
8
0
10
194.4678261
20
54.7013953
40
2
50
12.0000005
51
102.0000005
0
ARC
8
0
10
180.7737597
20
51.7906317
40
2
50
102.0000005
51
192.0000005
0
ARC
8
0
10
163.6443371
20
40.9932764
40
2
50
102.0000005
51
192.0000005
0
ARC
8
0
10
145.475356
20
35.086659
40
2
50
102.0000005
51
192.0000005
0
ARC
8
0
10
188.1498114
20
-6.9596352
40
2
50
282.0000005
51
12.0000005
0
ARC
8
0
10
211.2095304
20
-0.0134594
40
2
50
192.0000005
51
282.0000005
0
ARC
8
0
10
227.7097438
20
-3.3256551
40
2
50
6.9999972
51
97.0000029
0
ARC
8
0
10
232.2892751
20
-7.8009085
40
2
50
186.9999972
51
276.9999972
0
ARC
8
0
10
6.0947377
20
-7.8009085
40
2
50
263.0000028
51
353.0000028
0
ARC
8
0
10
10.674269
20
-3.3256551
40
2
50
82.9999971
51
173.0000028
0
ARC
8
0
10
27.1744824
20
-0.0134594
40
2
50
257.9999995
51
347.9999995
0
ARC
8
0
10
50.2342014
20
-6.9596352
40
2
50
167.9999995
51
257.9999995
0
ARC
8
0
10
92.9086568
20
35.086659
40
2
50
347.9999995
51
77.9999995
0
ARC
8
0
10
74.7396757
20
40.9932764
40
2
50
347.9999995
51
77.9999995
0
ARC
8
0
10
57.6102531
20
51.7906317
40
2
50
347.9999995
51
77.9999995
0
ARC
8
0
10
43.9161867
20
54.7013953
40
2
50
77.9999995
51
167.9999995
0
ARC
8
0
10
24.2918239
20
53.7609794
40
2
50
77.9999995
51
167.9999995
0
ARC
8
0
10
19.3396751
20
49.7018882
40
2
50
257.9999995
51
347.9999995
0
ARC
8
0
10
12.6391427
20
47.0367679
40
2
50
77.9999995
51
167.9999995
0
ARC
8
0
10
-1.4637026
20
45.5176622
40
2
50
83.0000028
51
173.0000028
0
ARC
8
0
10
-7.8009085
20
-6.0947377
40
2
50
173.0000028
51
263.0000028
0
ARC
8
0
10
126.0365789
20
-59.7928502
40
2
50
158.0000006
51
248.0000006
0
ARC
8
0
10
112.3474339
20
-59.7928502
40
2
50
291.9999994
51
21.9999994
0
ARC
8
0
10
60.5165907
20
-16.3016087
40
2
50
77.9999995
51
167.9999995
0
ARC
8
0
10
177.8674221
20
-16.3016087
40
2
50
12.0000005
51
102.0000005
0
LINE
8
0
10
47.6073176
20
-31.422089
11
99.6983398
21
-75.1316464
0
LINE
8
0
10
99.6983398
20
-75.1316464
11
107.6866424
21
-65.611558
0
LINE
8
0
10
113.8754871
20
-58.2359802
11
119.1920064
21
-51.8999992
0
LINE
8
0
10
119.1920064
20
-6.6373011
11
118.9796851
21
-6.4591424
0
LINE
8
0
10
115.326072
20
-3.393397
11
91.0957721
21
16.9382386
0
LINE
8
0
10
63.9684711
20
-11.9236255
11
61.7844651
21
-14.5264225
0
LINE
8
0
10
57.8534523
20
-19.2112211
11
47.6073176
21
-31.422089
0
LINE
8
0
10
138.685673
20
-75.1316464
11
190.7766952
21
-31.422089
0
LINE
8
0
10
190.7766952
20
-31.422089
11
180.5305605
21
-19.2112211
0
LINE
8
0
10
176.5995477
20
-14.5264225
11
174.4155417
21
-11.9236255
0
LINE
8
0
10
147.2882407
20
16.9382386
11
119.1920064
21
-6.6373011
0
LINE
8
0
10
128.4395379
20
-62.9207781
11
138.685673
21
-75.1316464
0
LINE
8
0
10
119.1920064
20
-51.8999992
11
124.5085257
21
-58.2359802
0
LINE
8
0
10
112.1568183
20
-62.0269334
11
118.9796851
21
-6.4591424
0
LINE
8
0
10
115.326072
20
-3.393397
11
107.6866424
21
-65.611558
0
ENDSEC
0
EOF