0
SECTION
2
HEADER
9
$INSUNITS
70
4
0
ENDSEC
0
SECTION
2
TABLES
0
TABLE
2
LTYPE
0
LTYPE
72
65
70
64
2
CONTINUOUS
3
______
73
0
40
0
0
ENDTAB
0
TABLE
2
LAYER
0
ENDTAB
0
ENDSEC
0
SECTION
2
ENTITIES
0
LINE
8
0
10
-2.0893699
20
-8.8110461
11
-0.1042775
21
-9.0547848
0
LINE
8
0
10
8.8110461
20
-2.0893699
11
8.9329154
21
-1.0968241
0
LINE
8
0
10
-9.0547848
20
0.1042775
11
-4.180011
21
39.8061236
0
LINE
8
0
10
19.1006939
20
-0.3420039
11
18.8583769
21
-2.3155176
0
LINE
8
0
10
18.8583769
20
-2.3155176
11
8.9329154
21
-1.0968241
0
LINE
8
0
10
4.7353126
20
46.7715385
11
10.3904926
21
46.0771697
0
LINE
8
0
10
19.1006939
20
-0.3420039
11
28.7149542
21
-2.385578
0
LINE
8
0
10
28.7149542
20
-2.385578
11
29.7545126
21
2.50516
0
LINE
8
0
10
11.0986709
20
49.4088865
11
20.8801469
21
47.3297696
0
LINE
8
0
10
10.3904926
20
46.0771697
11
11.0986709
21
49.4088865
0
LINE
8
0
10
30.576533
20
54.4698045
11
41.3361565
21
52.1827759
0
LINE
8
0
10
21.0880586
20
48.3079173
11
20.8801469
21
47.3297696
0
LINE
8
0
10
29.7545126
20
2.50516
11
49.3174646
21
-1.6530738
0
LINE
8
0
10
58.5269899
20
46.4840703
11
59.9823717
21
53.3311035
0
LINE
8
0
10
59.9823717
20
53.3311035
11
42.3757149
21
57.0735139
0
LINE
8
0
10
42.3757149
20
57.0735139
11
41.3361565
21
52.1827759
0
LINE
8
0
10
47.8620828
20
-8.500107
11
63.9684711
21
-11.9236255
0
LINE
8
0
10
49.3174646
20
-1.6530738
11
47.8620828
21
-8.500107
0
LINE
8
0
10
76.6959709
20
40.5774529
11
77.1117943
21
42.5337482
0
LINE
8
0
10
58.5269899
20
46.4840703
11
77.1117943
21
42.5337482
0
LINE
8
0
10
90.7036337
20
15.0933727
11
93.4095701
21
27.8238024
0
LINE
8
0
10
93.4095702
20
27.8238024
11
93.6174819
21
28.8019499
0
LINE
8
0
10
76.6959709
20
40.5774529
11
87.4555947
21
38.2904243
0
LINE
8
0
10
230.5479215
20
-10.0297395
11
240.4733827
21
-8.8110461
0
LINE
8
0
10
242.5640238
20
39.8061236
11
247.4387976
21
0.1042775
0
LINE
8
0
10
230.4260522
20
-9.0371937
11
230.5479215
21
-10.0297395
0
LINE
8
0
10
221.5107278
20
-2.0717789
11
219.5256359
21
-2.3155176
0
LINE
8
0
10
219.5256359
20
-2.3155176
11
219.2833189
21
-0.3420039
0
LINE
8
0
10
227.9935202
20
46.0771697
11
233.6487002
21
46.7715385
0
LINE
8
0
10
209.6690586
20
-2.385578
11
219.2833189
21
-0.3420039
0
LINE
8
0
10
208.6295002
20
2.50516
11
209.6690586
21
-2.385578
0
LINE
8
0
10
225.3290468
20
48.9930631
11
227.2853419
21
49.4088865
0
LINE
8
0
10
227.2853419
20
49.4088865
11
227.9935202
21
46.0771697
0
LINE
8
0
10
215.8405724
20
55.1549503
11
215.6326607
21
56.133098
0
LINE
8
0
10
197.0478563
20
52.1827759
11
215.6326607
21
56.133098
0
LINE
8
0
10
189.0665482
20
-1.6530738
11
208.6295002
21
2.50516
0
LINE
8
0
10
197.0478563
20
52.1827759
11
196.0082979
21
57.0735139
0
LINE
8
0
10
196.0082979
20
57.0735139
11
178.4016411
21
53.3311035
0
LINE
8
0
10
178.4016411
20
53.3311035
11
179.8570229
21
46.4840703
0
LINE
8
0
10
174.4155417
20
-11.9236255
11
190.52193
21
-8.500107
0
LINE
8
0
10
190.52193
20
-8.500107
11
189.0665482
21
-1.6530738
0
LINE
8
0
10
161.2722185
20
42.5337482
11
179.8570229
21
46.4840703
0
LINE
8
0
10
161.2722185
20
42.5337482
11
161.6880419
21
40.5774529
0
LINE
8
0
10
144.9744427
20
27.8238024
11
147.6803791
21
15.0933727
0
LINE
8
0
10
150.9284181
20
38.2904243
11
161.6880419
21
40.5774529
0
LINE
8
0
10
144.7665309
20
28.8019499
11
144.9744426
21
27.8238024
0
ARC
8
0
10
239.4984283
20
-0.8706768
40
8
50
276.9999972
51
6.9999972
0
ARC
8
0
10
234.6236545
20
38.8311692
40
8
50
6.9999972
51
96.9999972
0
ARC
8
0
10
223.6657532
20
56.8182439
40
8
50
192.0000005
51
282.0000005
0
ARC
8
0
10
152.5917117
20
30.4652435
40
8
50
102.0000005
51
192.0000005
0
ARC
8
0
10
222.485683
20
-10.0121481
40
8
50
6.9999972
51
97.0000029
0
ARC
8
0
10
0.8706768
20
-1.1144155
40
8
50
263.0000028
51
353.0000028
0
ARC
8
0
10
85.7923011
20
30.4652435
40
8
50
347.9999995
51
77.9999995
0
ARC
8
0
10
28.9132394
20
46.6446237
40
8
50
77.9999995
51
167.9999995
0
ARC
8
0
10
3.7603583
20
38.8311692
40
8
50
83.0000028
51
173.0000028
0
ARC
8
0
10
-1.1144155
20
-0.8706768
40
8
50
173.0000028
51
263.0000028
0
LINE
8
0
10
53.735673
20
-36.5643898
11
93.5699841
21
-69.9893454
0
LINE
8
0
10
104.8406406
20
-69.0032909
11
107.6866424
21
-65.611558
0
LINE
8
0
10
112.4074764
20
-59.9854872
11
119.1920064
21
-51.8999992
0
LINE
8
0
10
119.1920064
20
-6.6373011
11
118.9796851
21
-6.4591424
0
LINE
8
0
10
115.326072
20
-3.393397
11
95.5168679
21
13.2284988
0
LINE
8
0
10
63.9684711
20
-11.9236255
11
52.7496186
21
-25.2937333
0
ARC
8
0
10
98.7122852
20
-63.86099
40
8
50
229.9999988
51
319.9999988
0
ARC
8
0
10
90.3745668
20
7.1001434
40
8
50
49.9999988
51
87.6425668
0
ARC
8
0
10
58.877974
20
-30.4360343
40
8
50
139.9999988
51
229.9999988
0
LINE
8
0
10
144.8140287
20
-69.9893454
11
184.6483398
21
-36.5643898
0
LINE
8
0
10
185.6343942
20
-25.2937333
11
174.4155417
21
-11.9236255
0
LINE
8
0
10
142.8671449
20
13.2284988
11
119.1920064
21
-6.6373011
0
LINE
8
0
10
119.1920064
20
-51.8999992
11
133.5433722
21
-69.0032909
0
ARC
8
0
10
179.5060388
20
-30.4360343
40
8
50
310.0000012
51
40.0000012
0
ARC
8
0
10
148.009446
20
7.1001434
40
8
50
92.3574332
51
130.0000012
0
ARC
8
0
10
139.6717276
20
-63.86099
40
8
50
220.0000012
51
310.0000012
0
LINE
8
0
10
112.4074764
20
-59.9854872
11
118.9796851
21
-6.4591424
0
LINE
8
0
10
115.326072
20
-3.393397
11
107.6866424
21
-65.611558
0
ENDSEC
0
EOF