<svg width="247.986mm" height="123.739mm" viewBox="0 0 247.986 123.739" xmlns="http://www.w3.org/2000/svg"><g id="svgGroup" stroke-linecap="round" fill-rule="evenodd" font-size="9pt" stroke="#000" stroke-width="0.25mm" fill="none" style="stroke:#000;stroke-width:0.25mm;fill:none"><path d="M 232.334 66.487 L 246.23 64.781 A 2 2 0 0 0 247.971 62.552 L 241.634 10.94 A 2 2 0 0 0 239.405 9.199 L 229.613 10.401 A 2 2 0 0 1 227.413 8.832 L 227.086 7.293 L 219.261 8.956 A 2 2 0 0 1 216.889 7.415 L 215.849 2.525 A 2 2 0 0 0 213.477 0.984 L 196.849 4.519 L 196.225 1.584 A 2 2 0 0 0 193.853 0.044 L 180.159 2.954 A 2 2 0 0 0 178.618 5.327 L 179.658 10.217 L 163.029 13.752 A 2 2 0 0 0 161.489 16.124 L 144.86 19.658 A 2 2 0 0 0 143.32 22.031 L 144.775 28.878 L 154.131 72.894 A 2 2 0 0 0 156.503 74.435 L 170.198 71.524 A 2 2 0 0 0 171.738 69.152 L 188.367 65.617 A 2 2 0 0 0 189.907 63.245 L 188.867 58.354 L 208.43 54.196 L 209.054 57.131 A 2 2 0 0 0 211.426 58.671 L 219.084 57.043 L 219.327 59.017 L 227.267 58.042 A 2 2 0 0 1 229.496 59.783 L 230.105 64.746 A 2 2 0 0 0 232.334 66.487 Z M 1.756 64.781 L 15.652 66.487 A 2 2 0 0 0 17.881 64.746 L 18.49 59.783 A 2 2 0 0 1 20.719 58.042 L 28.659 59.017 L 28.902 57.043 L 36.56 58.671 A 2 2 0 0 0 38.932 57.131 L 39.555 54.196 L 59.118 58.354 L 58.079 63.245 A 2 2 0 0 0 59.619 65.617 L 76.248 69.152 A 2 2 0 0 0 77.788 71.524 L 91.482 74.435 A 2 2 0 0 0 93.854 72.894 L 103.21 28.878 L 104.666 22.031 A 2 2 0 0 0 103.125 19.658 L 86.497 16.124 A 2 2 0 0 0 84.956 13.752 L 68.328 10.217 L 69.367 5.327 A 2 2 0 0 0 67.827 2.954 L 54.133 0.044 A 2 2 0 0 0 51.761 1.584 L 51.137 4.519 L 34.509 0.984 A 2 2 0 0 0 32.136 2.525 L 31.097 7.415 A 2 2 0 0 1 28.725 8.956 L 22.856 7.708 A 2 2 0 0 0 20.484 9.249 L 20.191 10.624 L 8.581 9.199 A 2 2 0 0 0 6.352 10.94 L 0.015 62.552 A 2 2 0 0 0 1.756 64.781 Z M 102.069 109.507 L 107.313 122.488 A 2 2 0 0 0 109.917 123.593 L 123.244 118.209 A 2 2 0 0 1 124.742 118.209 L 138.069 123.593 A 2 2 0 0 0 140.672 122.488 L 145.917 109.507 A 2 2 0 0 0 144.812 106.904 L 131.831 101.659 A 2 2 0 0 0 129.228 102.764 L 125.847 111.131 A 2 2 0 0 1 122.139 111.131 L 118.758 102.764 A 2 2 0 0 0 116.155 101.659 L 103.174 106.904 A 2 2 0 0 0 102.069 109.507 Z M 86.769 95.137 L 97.494 104.136 A 2 2 0 0 0 100.311 103.89 L 109.31 93.165 A 2 2 0 0 0 109.064 90.347 L 98.339 81.348 A 2 2 0 0 0 95.522 81.595 L 86.523 92.319 A 2 2 0 0 0 86.769 95.137 Z M 150.492 104.136 L 161.217 95.137 A 2 2 0 0 0 161.463 92.319 L 152.464 81.595 A 2 2 0 0 0 149.647 81.348 L 138.922 90.347 A 2 2 0 0 0 138.675 93.165 L 147.674 103.89 A 2 2 0 0 0 150.492 104.136 Z M 167.301 91.564 L 180.995 88.653 A 2 2 0 0 0 182.535 86.281 L 179.625 72.587 A 2 2 0 0 0 177.253 71.047 L 163.558 73.957 A 2 2 0 0 0 162.018 76.33 L 164.929 90.024 A 2 2 0 0 0 167.301 91.564 Z M 66.991 88.653 L 80.685 91.564 A 2 2 0 0 0 83.057 90.024 L 85.968 76.33 A 2 2 0 0 0 84.427 73.957 L 70.733 71.047 A 2 2 0 0 0 68.361 72.587 L 65.45 86.281 A 2 2 0 0 0 66.991 88.653 Z" vector-effect="non-scaling-stroke"/></g></svg>