0
SECTION
2
HEADER
9
$INSUNITS
70
4
0
ENDSEC
0
SECTION
2
TABLES
0
TABLE
2
LTYPE
0
LTYPE
72
65
70
64
2
CONTINUOUS
3
______
73
0
40
0
0
ENDTAB
0
TABLE
2
LAYER
0
ENDTAB
0
ENDSEC
0
SECTION
2
ENTITIES
0
LINE
8
0
10
-8.1665164
20
-9.0723762
11
5.7291297
21
-10.778547
0
LINE
8
0
10
9.0723761
20
-8.1665164
11
9.4379841
21
-5.1888783
0
LINE
8
0
10
-10.778547
20
-5.7291298
11
-7.7318133
21
19.0845241
0
LINE
8
0
10
-7.7318133
20
19.0845241
11
-7.609944
21
20.0770702
0
LINE
8
0
10
-7.609944
20
20.0770702
11
-6.5131199
21
29.0099856
0
LINE
8
0
10
-6.3912506
20
30.0025318
11
-6.5131199
21
29.0099856
0
LINE
8
0
10
19.960243
20
-1.5470473
11
19.7290537
21
-3.4299331
0
LINE
8
0
10
19.7290537
20
-3.4299331
11
12.7812305
21
-2.5768477
0
LINE
8
0
10
-6.3912506
20
30.0025318
11
-5.2944264
21
38.9354471
0
LINE
8
0
10
-5.2944264
20
38.9354471
11
-5.1725571
21
39.9279933
0
LINE
8
0
10
-1.0980944
20
48.4953006
11
9.602861
21
47.1813885
0
LINE
8
0
10
-4.4413411
20
45.88327
11
-5.1725571
21
39.9279933
0
LINE
8
0
10
19.960243
20
-1.5470473
11
26.5507473
21
-2.9479022
0
LINE
8
0
10
30.1089252
20
-0.6371945
11
30.5247485
21
1.3191007
0
LINE
8
0
10
13.2628778
20
49.9712107
11
17.1754682
21
49.139564
0
LINE
8
0
10
9.602861
20
47.1813885
11
9.7046999
21
47.660503
0
LINE
8
0
10
24.915559
20
56.6954222
11
40.5659206
21
53.3688352
0
LINE
8
0
10
21.3573811
20
54.3847145
11
20.7336461
21
51.4502717
0
LINE
8
0
10
30.5247485
20
1.3191007
11
45.1969625
21
-1.7995747
0
LINE
8
0
10
60.3367843
20
50.1887491
11
60.5446959
21
51.1668966
0
LINE
8
0
10
58.2339882
20
54.7250745
11
44.5399218
21
57.6358381
0
LINE
8
0
10
40.9817439
20
55.3251304
11
40.5659206
21
53.3688352
0
LINE
8
0
10
49.6104663
20
-9.894078
11
62.1326485
21
-12.5557499
0
LINE
8
0
10
47.5076702
20
-5.3577526
11
47.2997586
21
-6.3359001
0
LINE
8
0
10
77.8820302
20
41.3476888
11
78.2978536
21
43.3039841
0
LINE
8
0
10
62.647492
20
46.6305712
11
78.2978536
21
43.3039841
0
LINE
8
0
10
92.1988457
20
17.3180573
11
95.8430996
21
34.4629239
0
LINE
8
0
10
77.8820302
20
41.3476888
11
93.5323919
21
38.0211018
0
LINE
8
0
10
61.4046464
20
-13.423349
11
61.1403258
21
-13.3671659
0
LINE
8
0
10
57.5821479
20
-15.6778736
11
56.9271429
21
-18.7594299
0
LINE
8
0
10
112.0174785
20
-63.161765
11
113.4712537
21
-62.5744017
0
LINE
8
0
10
115.1289855
20
-58.6690303
11
115.0277573
21
-58.4184818
0
LINE
8
0
10
232.6548831
20
-10.778547
11
246.5505292
21
-9.0723762
0
LINE
8
0
10
242.8253539
20
45.88327
11
249.1625598
21
-5.7291298
0
LINE
8
0
10
228.9460287
20
-5.1888783
11
229.3116367
21
-8.1665164
0
LINE
8
0
10
225.6027823
20
-2.5768477
11
218.6549591
21
-3.4299331
0
LINE
8
0
10
218.6549591
20
-3.4299331
11
218.4237698
21
-1.5470473
0
LINE
8
0
10
231.5096546
20
47.5164065
11
239.4821072
21
48.4953006
0
LINE
8
0
10
208.8988227
20
-3.5716373
11
218.4237698
21
-1.5470473
0
LINE
8
0
10
208.4829993
20
-1.6153421
11
208.8988227
21
-3.5716373
0
LINE
8
0
10
221.2085446
20
49.139564
11
228.0555778
21
50.5949458
0
LINE
8
0
10
228.0555778
20
50.5949458
11
228.2096039
21
49.8703099
0
LINE
8
0
10
217.6503667
20
51.4502717
11
217.0266317
21
54.3847145
0
LINE
8
0
10
200.7525351
20
53.9925703
11
213.4684538
21
56.6954222
0
LINE
8
0
10
193.1870503
20
-1.7995747
11
204.9248214
21
0.6953656
0
LINE
8
0
10
197.1943572
20
56.303278
11
196.7785338
21
58.2595732
0
LINE
8
0
10
196.7785338
20
58.2595732
11
180.1500246
21
54.7250745
0
LINE
8
0
10
177.8393169
20
51.1668966
11
178.0472285
21
50.1887491
0
LINE
8
0
10
176.2513643
20
-12.5557499
11
188.7735465
21
-9.894078
0
LINE
8
0
10
191.0842542
20
-6.3359001
11
190.8763426
21
-5.3577526
0
LINE
8
0
10
160.0861592
20
43.3039841
11
175.7365208
21
46.6305712
0
LINE
8
0
10
160.0861592
20
43.3039841
11
160.5019826
21
41.3476888
0
LINE
8
0
10
142.5409132
20
34.4629239
11
146.1851671
21
17.3180573
0
LINE
8
0
10
144.8516209
20
38.0211018
11
160.5019826
21
41.3476888
0
LINE
8
0
10
181.4568699
20
-18.7594299
11
180.8018649
21
-15.6778736
0
LINE
8
0
10
177.243687
20
-13.3671659
11
176.9793664
21
-13.423349
0
LINE
8
0
10
123.3562555
20
-58.4184818
11
123.2550273
21
-58.6690303
0
LINE
8
0
10
124.9127591
20
-62.5744017
11
127.8337584
21
-63.754562
0
ARC
8
0
10
246.1849213
20
-6.0947376
40
3
50
276.9999972
51
6.9999972
0
ARC
8
0
10
239.8477153
20
45.5176621
40
3
50
6.9999972
51
97.0000029
0
ARC
8
0
10
231.1440467
20
50.494045
40
3
50
192.0000005
51
276.9999972
0
ARC
8
0
10
220.5848095
20
52.0740068
40
3
50
192.0000005
51
282.0000005
0
ARC
8
0
10
214.0921889
20
53.7609794
40
3
50
12.0000005
51
102.0000005
0
ARC
8
0
10
200.1288
20
56.9270131
40
3
50
192.0000005
51
282.0000005
0
ARC
8
0
10
180.7737597
20
51.7906317
40
3
50
102.0000005
51
192.0000005
0
ARC
8
0
10
175.1127857
20
49.565014
40
3
50
282.0000005
51
12.0000005
0
ARC
8
0
10
145.475356
20
35.086659
40
3
50
102.0000005
51
192.0000005
0
ARC
8
0
10
177.8674221
20
-16.3016087
40
3
50
12.0000005
51
102.0000005
0
ARC
8
0
10
188.1498114
20
-6.9596352
40
3
50
282.0000005
51
12.0000005
0
ARC
8
0
10
193.8107854
20
-4.7340175
40
3
50
102.0000005
51
192.0000005
0
ARC
8
0
10
205.5485565
20
-2.2390772
40
3
50
12.0000005
51
102.0000005
0
ARC
8
0
10
225.9683902
20
-5.5544862
40
3
50
6.9999972
51
96.9999972
0
ARC
8
0
10
232.2892752
20
-7.8009085
40
3
50
186.9999972
51
276.9999972
0
ARC
8
0
10
6.0947376
20
-7.8009085
40
3
50
263.0000028
51
353.0000028
0
ARC
8
0
10
12.4156226
20
-5.5544862
40
3
50
83.0000028
51
173.0000028
0
ARC
8
0
10
27.1744824
20
-0.0134594
40
3
50
257.9999995
51
347.9999995
0
ARC
8
0
10
44.5732274
20
-4.7340175
40
3
50
347.9999995
51
77.9999995
0
ARC
8
0
10
50.2342014
20
-6.9596352
40
3
50
167.9999995
51
257.9999995
0
ARC
8
0
10
60.5165907
20
-16.3016087
40
3
50
77.9999995
51
167.9999995
0
ARC
8
0
10
92.9086568
20
35.086659
40
3
50
347.9999995
51
77.9999995
0
ARC
8
0
10
63.2712271
20
49.565014
40
3
50
167.9999995
51
257.9999995
0
ARC
8
0
10
57.6102531
20
51.7906317
40
3
50
347.9999995
51
77.9999995
0
ARC
8
0
10
43.9161867
20
54.7013953
40
3
50
77.9999995
51
167.9999995
0
ARC
8
0
10
24.2918239
20
53.7609794
40
3
50
77.9999995
51
167.9999995
0
ARC
8
0
10
17.7992033
20
52.0740068
40
3
50
257.9999995
51
347.9999995
0
ARC
8
0
10
12.6391427
20
47.0367679
40
3
50
77.9999995
51
167.9999995
0
ARC
8
0
10
-1.4637025
20
45.5176621
40
3
50
82.9999971
51
173.0000028
0
ARC
8
0
10
-7.8009085
20
-6.0947376
40
3
50
173.0000028
51
263.0000028
0
ARC
8
0
10
112.3474339
20
-59.7928501
40
3
50
291.9999994
51
21.9999994
0
ARC
8
0
10
126.0365789
20
-59.7928501
40
3
50
158.0000006
51
248.0000006
0
LINE
8
0
10
46.1984856
20
-31.5453458
11
99.8215966
21
-76.5404785
0
LINE
8
0
10
99.8215966
20
-76.5404785
11
107.4628807
21
-67.4339507
0
LINE
8
0
10
115.0277573
20
-58.4184818
11
119.1920064
21
-53.455723
0
LINE
8
0
10
119.1920064
20
-5.3318938
11
119.1249976
21
-5.2756668
0
LINE
8
0
10
115.4713845
20
-2.2099214
11
92.1988457
21
17.3180573
0
LINE
8
0
10
62.1326485
20
-12.5557499
11
61.4046464
21
-13.423349
0
LINE
8
0
10
56.9271429
20
-18.7594299
11
46.1984856
21
-31.5453458
0
LINE
8
0
10
138.5624162
20
-76.5404785
11
192.1855272
21
-31.5453458
0
LINE
8
0
10
192.1855272
20
-31.5453458
11
181.4568699
21
-18.7594299
0
LINE
8
0
10
176.9793664
20
-13.423349
11
176.2513643
21
-12.5557499
0
LINE
8
0
10
146.1851671
20
17.3180573
11
119.1920064
21
-5.3318938
0
LINE
8
0
10
127.8337584
20
-63.754562
11
138.5624162
21
-76.5404785
0
LINE
8
0
10
119.1920064
20
-53.455723
11
123.3562555
21
-58.4184818
0
LINE
8
0
10
112.0174785
20
-63.161765
11
119.1249976
21
-5.2756668
0
LINE
8
0
10
115.4713845
20
-2.2099214
11
107.4628807
21
-67.4339507
0
CIRCLE
8
0
10
0.2776511
20
43.2888312
40
1.1
0
CIRCLE
8
0
10
-5.5720775
20
-4.353384
40
1.1
0
CIRCLE
8
0
10
90.5365383
20
33.5461871
40
1.1
0
CIRCLE
8
0
10
80.556777
20
-13.4048977
40
1.1
0
ENDSEC
0
EOF