<svg width="249.986mm" height="126.297mm" viewBox="0 0 249.986 126.297" xmlns="http://www.w3.org/2000/svg"><g id="svgGroup" stroke-linecap="round" fill-rule="evenodd" font-size="9pt" stroke="#000" stroke-width="0.25mm" fill="none" style="stroke:#000;stroke-width:0.25mm;fill:none"><path d="M 233.456 69.038 L 247.351 67.332 A 3 3 0 0 0 249.963 63.989 L 243.626 12.376 A 3 3 0 0 0 240.283 9.764 L 232.311 10.743 A 3 3 0 0 1 229.011 8.389 L 228.856 7.665 L 222.009 9.12 A 3 3 0 0 1 218.451 6.809 L 217.828 3.875 A 3 3 0 0 0 214.269 1.564 L 201.553 4.267 A 3 3 0 0 1 197.995 1.956 L 197.579 0 L 180.951 3.534 A 3 3 0 0 0 178.64 7.093 L 178.848 8.071 A 3 3 0 0 1 176.537 11.629 L 160.887 14.956 L 161.303 16.912 L 145.653 20.238 A 3 3 0 0 0 143.342 23.797 L 154.153 74.66 A 3 3 0 0 0 157.711 76.971 L 158.69 76.763 A 3 3 0 0 1 162.248 79.074 L 164.951 91.79 A 3 3 0 0 0 168.509 94.1 L 182.203 91.19 A 3 3 0 0 0 184.514 87.632 L 181.603 73.937 A 3 3 0 0 0 178.045 71.627 L 174.132 72.458 L 173.924 71.48 L 189.574 68.154 A 3 3 0 0 0 191.885 64.595 L 191.677 63.617 A 3 3 0 0 1 193.988 60.059 L 205.726 57.564 A 3 3 0 0 1 209.284 59.875 L 209.7 61.831 L 219.225 59.807 L 219.456 61.69 L 226.404 60.836 A 3 3 0 0 1 229.747 63.448 L 230.113 66.426 A 3 3 0 0 0 233.456 69.038 Z M 2.634 67.332 L 16.53 69.038 A 3 3 0 0 0 19.873 66.426 L 20.239 63.448 A 3 3 0 0 1 23.582 60.836 L 30.53 61.69 L 30.761 59.807 L 37.352 61.207 A 3 3 0 0 0 40.91 58.897 L 41.326 56.94 L 55.998 60.059 A 3 3 0 0 1 58.309 63.617 L 58.101 64.595 A 3 3 0 0 0 60.411 68.154 L 76.062 71.48 L 75.854 72.458 L 71.941 71.627 A 3 3 0 0 0 68.383 73.937 L 65.472 87.632 A 3 3 0 0 0 67.783 91.19 L 81.477 94.1 A 3 3 0 0 0 85.035 91.79 L 87.738 79.074 A 3 3 0 0 1 91.296 76.763 L 92.274 76.971 A 3 3 0 0 0 95.833 74.66 L 106.644 23.797 A 3 3 0 0 0 104.333 20.238 L 88.683 16.912 L 89.099 14.956 L 73.448 11.629 A 3 3 0 0 1 71.138 8.071 L 71.346 7.093 A 3 3 0 0 0 69.035 3.534 L 55.341 0.624 A 3 3 0 0 0 51.783 2.934 L 51.367 4.891 L 35.716 1.564 A 3 3 0 0 0 32.158 3.875 L 31.535 6.809 A 3 3 0 0 1 27.976 9.12 L 24.064 8.288 A 3 3 0 0 0 20.506 10.599 L 20.404 11.078 L 9.703 9.764 A 3 3 0 0 0 6.36 12.376 L 5.628 18.332 L 5.506 19.324 L 4.41 28.257 L 4.288 29.25 L 3.191 38.183 L 3.069 39.175 L 0.022 63.989 A 3 3 0 0 0 2.634 67.332 Z M 102.142 111.44 L 107.386 124.421 A 3 3 0 0 0 111.292 126.078 L 123.869 120.997 A 3 3 0 0 1 126.117 120.997 L 138.694 126.078 A 3 3 0 0 0 142.6 124.421 L 147.844 111.44 A 3 3 0 0 0 146.186 107.535 L 133.206 102.29 A 3 3 0 0 0 129.3 103.948 L 127.774 107.725 A 3 3 0 0 1 122.211 107.725 L 120.685 103.948 A 3 3 0 0 0 116.78 102.29 L 103.799 107.535 A 3 3 0 0 0 102.142 111.44 Z M 87.126 97.461 L 97.851 106.46 A 3 3 0 0 0 102.077 106.091 L 111.076 95.366 A 3 3 0 0 0 110.707 91.14 L 99.982 82.14 A 3 3 0 0 0 95.756 82.51 L 86.757 93.235 A 3 3 0 0 0 87.126 97.461 Z M 152.135 106.46 L 162.86 97.461 A 3 3 0 0 0 163.229 93.235 L 154.23 82.51 A 3 3 0 0 0 150.004 82.14 L 139.279 91.14 A 3 3 0 0 0 138.909 95.366 L 147.908 106.091 A 3 3 0 0 0 152.135 106.46 Z" vector-effect="non-scaling-stroke"/></g></svg>