<svg width="259.986mm" height="134.8mm" viewBox="0 0 259.986 134.8" xmlns="http://www.w3.org/2000/svg"><g id="svgGroup" stroke-linecap="round" fill-rule="evenodd" font-size="9pt" stroke="#000" stroke-width="0.25mm" fill="none" style="stroke:#000;stroke-width:0.25mm;fill:none"><path d="M 122.818 121.421 L 124.272 120.834 A 3 3 0 0 0 125.93 116.929 L 125.829 116.678 L 129.993 111.715 L 134.157 116.678 L 134.056 116.929 A 3 3 0 0 0 135.714 120.834 L 138.635 122.014 L 149.363 134.8 L 202.986 89.805 L 192.258 77.019 L 191.603 73.937 A 3 3 0 0 0 188.045 71.627 L 187.78 71.683 L 187.052 70.815 L 199.574 68.154 A 3 3 0 0 0 201.885 64.595 L 201.677 63.617 A 3 3 0 0 1 203.988 60.059 L 215.726 57.564 A 3 3 0 0 1 219.284 59.875 L 219.7 61.831 L 229.225 59.807 L 229.456 61.69 L 236.404 60.836 A 3 3 0 0 1 239.747 63.448 L 240.113 66.426 A 3 3 0 0 0 243.456 69.038 L 257.351 67.332 A 3 3 0 0 0 259.963 63.989 L 253.626 12.376 A 3 3 0 0 0 250.283 9.764 L 242.311 10.743 A 3 3 0 0 1 239.011 8.389 L 238.856 7.665 L 232.009 9.12 A 3 3 0 0 1 228.451 6.809 L 227.828 3.875 A 3 3 0 0 0 224.269 1.564 L 211.553 4.267 A 3 3 0 0 1 207.995 1.956 L 207.579 0 L 190.951 3.534 A 3 3 0 0 0 188.64 7.093 L 188.848 8.071 A 3 3 0 0 1 186.537 11.629 L 170.887 14.956 L 171.303 16.912 L 155.653 20.238 A 3 3 0 0 0 153.342 23.797 L 156.986 40.942 L 129.993 63.591 L 129.926 63.535 L 122.818 121.421 Z M 2.634 67.332 L 16.53 69.038 A 3 3 0 0 0 19.873 66.426 L 20.239 63.448 A 3 3 0 0 1 23.582 60.836 L 30.53 61.69 L 30.761 59.807 L 37.352 61.207 A 3 3 0 0 0 40.91 58.897 L 41.326 56.94 L 55.998 60.059 A 3 3 0 0 1 58.309 63.617 L 58.101 64.595 A 3 3 0 0 0 60.411 68.154 L 72.934 70.815 L 72.206 71.683 L 71.941 71.627 A 3 3 0 0 0 68.383 73.937 L 67.728 77.019 L 56.999 89.805 L 110.623 134.8 L 118.264 125.694 L 126.272 60.469 L 103 40.942 L 106.644 23.797 A 3 3 0 0 0 104.333 20.238 L 88.683 16.912 L 89.099 14.956 L 73.448 11.629 A 3 3 0 0 1 71.138 8.071 L 71.346 7.093 A 3 3 0 0 0 69.035 3.534 L 55.341 0.624 A 3 3 0 0 0 51.783 2.934 L 51.367 4.891 L 35.716 1.564 A 3 3 0 0 0 32.158 3.875 L 31.535 6.809 A 3 3 0 0 1 27.976 9.12 L 24.064 8.288 A 3 3 0 0 0 20.506 10.599 L 20.404 11.078 L 9.703 9.764 A 3 3 0 0 0 6.36 12.376 L 5.628 18.332 L 5.506 19.324 L 4.41 28.257 L 4.288 29.25 L 3.191 38.183 L 3.069 39.175 L 0.022 63.989 A 3 3 0 0 0 2.634 67.332 Z M 11.079 14.971 m -1.1 0 a 1.1 1.1 0 0 1 2.2 0 a 1.1 1.1 0 0 1 -2.2 0 z M 5.229 62.613 m -1.1 0 a 1.1 1.1 0 0 1 2.2 0 a 1.1 1.1 0 0 1 -2.2 0 z M 101.337 24.713 m -1.1 0 a 1.1 1.1 0 0 1 2.2 0 a 1.1 1.1 0 0 1 -2.2 0 z M 91.358 71.664 m -1.1 0 a 1.1 1.1 0 0 1 2.2 0 a 1.1 1.1 0 0 1 -2.2 0 z" vector-effect="non-scaling-stroke"/></g></svg>