0
SECTION
2
HEADER
9
$INSUNITS
70
4
0
ENDSEC
0
SECTION
2
TABLES
0
TABLE
2
LTYPE
0
LTYPE
72
65
70
64
2
CONTINUOUS
3
______
73
0
40
0
0
ENDTAB
0
TABLE
2
LAYER
0
ENDTAB
0
ENDSEC
0
SECTION
2
ENTITIES
0
LINE
8
0
10
-14.4874014
20
-11.3187985
11
11.3187985
21
-14.4874014
0
LINE
8
0
10
11.3187985
20
-14.4874014
11
12.4156226
21
-5.5544862
0
LINE
8
0
10
-14.4874014
20
-11.3187985
11
-6.6877634
21
52.2041551
0
LINE
8
0
10
22.5388903
20
-5.1621775
11
22.3410841
21
-6.7731796
0
LINE
8
0
10
22.3410841
20
-6.7731796
11
12.4156226
21
-5.5544862
0
LINE
8
0
10
-6.6877634
20
52.2041551
11
7.2399661
21
50.494045
0
LINE
8
0
10
22.5388903
20
-5.1621775
11
31.7958978
21
-7.1298152
0
LINE
8
0
10
31.7958978
20
-7.1298152
11
32.8354563
21
-2.2390772
0
LINE
8
0
10
8.0177273
20
54.1531237
11
17.7992033
21
52.0740068
0
LINE
8
0
10
7.2399661
20
50.494045
11
8.0177273
21
54.1531237
0
LINE
8
0
10
19.6704085
20
60.8773352
11
38.2552128
21
56.9270131
0
LINE
8
0
10
19.6704085
20
60.8773352
11
17.7992033
21
52.0740068
0
LINE
8
0
10
32.8354563
20
-2.2390772
11
44.5732274
21
-4.7340175
0
LINE
8
0
10
63.2712271
20
49.565014
11
64.7266089
21
56.4120471
0
LINE
8
0
10
64.7266089
20
56.4120471
11
39.2947713
21
61.8177511
0
LINE
8
0
10
39.2947713
20
61.8177511
11
38.2552128
21
56.9270131
0
LINE
8
0
10
43.1178456
20
-11.5810506
11
45.0741409
21
-11.996874
0
LINE
8
0
10
44.5732274
20
-4.7340175
11
43.1178456
21
-11.5810506
0
LINE
8
0
10
81.4402081
20
43.6583966
11
81.8560315
21
45.6146918
0
LINE
8
0
10
63.2712271
20
49.565014
11
81.8560315
21
45.6146918
0
LINE
8
0
10
95.4874217
20
18.3603882
11
100.0250126
21
39.7080744
0
LINE
8
0
10
81.4402081
20
43.6583966
11
100.0250126
21
39.7080744
0
LINE
8
0
10
112.3675928
20
-66.2559139
11
115.4459406
21
-65.0121806
0
LINE
8
0
10
119.1920064
20
-60.7169585
11
118.4845679
21
-58.9659868
0
LINE
8
0
10
227.0652143
20
-14.4874014
11
252.8714142
21
-11.3187985
0
LINE
8
0
10
245.0717762
20
52.2041551
11
252.8714142
21
-11.3187985
0
LINE
8
0
10
225.9683902
20
-5.5544862
11
227.0652143
21
-14.4874014
0
LINE
8
0
10
225.9683902
20
-5.5544862
11
216.0429287
21
-6.7731796
0
LINE
8
0
10
216.0429287
20
-6.7731796
11
215.8451225
21
-5.1621775
0
LINE
8
0
10
231.1440467
20
50.494045
11
245.0717762
21
52.2041551
0
LINE
8
0
10
206.588115
20
-7.1298152
11
215.8451225
21
-5.1621775
0
LINE
8
0
10
205.5485565
20
-2.2390772
11
206.588115
21
-7.1298152
0
LINE
8
0
10
220.5848095
20
52.0740068
11
230.3662855
21
54.1531237
0
LINE
8
0
10
230.3662855
20
54.1531237
11
231.1440467
21
50.494045
0
LINE
8
0
10
220.5848095
20
52.0740068
11
218.7136043
21
60.8773352
0
LINE
8
0
10
200.1288
20
56.9270131
11
218.7136043
21
60.8773352
0
LINE
8
0
10
193.8107854
20
-4.7340175
11
205.5485565
21
-2.2390772
0
LINE
8
0
10
200.1288
20
56.9270131
11
199.0892415
21
61.8177511
0
LINE
8
0
10
199.0892415
20
61.8177511
11
173.6574039
21
56.4120471
0
LINE
8
0
10
173.6574039
20
56.4120471
11
175.1127857
21
49.565014
0
LINE
8
0
10
193.3098719
20
-11.996874
11
195.2661672
21
-11.5810506
0
LINE
8
0
10
195.2661672
20
-11.5810506
11
193.8107854
21
-4.7340175
0
LINE
8
0
10
156.5279813
20
45.6146918
11
175.1127857
21
49.565014
0
LINE
8
0
10
156.5279813
20
45.6146918
11
156.9438047
21
43.6583966
0
LINE
8
0
10
138.3590002
20
39.7080744
11
142.8965911
21
18.3603882
0
LINE
8
0
10
138.3590002
20
39.7080744
11
156.9438047
21
43.6583966
0
LINE
8
0
10
119.8994449
20
-58.9659868
11
119.1920064
21
-60.7169585
0
LINE
8
0
10
122.9380722
20
-65.0121806
11
126.01642
21
-66.2559139
0
ARC
8
0
10
42.9950239
20
-21.77835
40
10
50
375.025641
51
77.9999995
0
ARC
8
0
10
119.1920064
20
-74.2840192
40
10
50
68.0000006
51
111.9999994
0
ARC
8
0
10
195.3889889
20
-21.77835
40
10
50
102.0000005
51
164.974359
0
LINE
8
0
10
49.6324337
20
-38.3429923
11
92.5309225
21
-74.3390984
0
LINE
8
0
10
106.6192431
20
-73.1065303
11
106.7915957
21
-72.9011284
0
LINE
8
0
10
111.5124297
20
-67.2750576
11
112.3675928
21
-66.2559139
0
LINE
8
0
10
118.4845679
20
-58.9659868
11
119.1920064
21
-58.1228945
0
LINE
8
0
10
115.9073221
20
1.3405054
11
96.5559295
21
17.5782518
0
LINE
8
0
10
52.6531229
20
-19.1858371
11
48.3998656
21
-24.2546717
0
ARC
8
0
10
98.9587988
20
-66.6786541
40
10
50
229.9999988
51
319.9999988
0
ARC
8
0
10
90.1280532
20
9.9178075
40
10
50
49.9999988
51
57.5925313
0
ARC
8
0
10
56.0603099
20
-30.682548
40
10
50
139.9999988
51
229.9999988
0
LINE
8
0
10
145.8530903
20
-74.3390984
11
188.7515791
21
-38.3429923
0
LINE
8
0
10
189.9841472
20
-24.2546717
11
185.7308899
21
-19.1858371
0
LINE
8
0
10
141.8280833
20
17.5782518
11
119.6456874
21
-1.0349884
0
LINE
8
0
10
126.01642
20
-66.2559139
11
131.7647697
21
-73.1065303
0
LINE
8
0
10
119.1920064
20
-58.1228945
11
119.8994449
21
-58.9659868
0
ARC
8
0
10
182.3237029
20
-30.682548
40
10
50
310.0000012
51
40.0000012
0
ARC
8
0
10
148.2559596
20
9.9178075
40
10
50
122.4074687
51
130.0000012
0
ARC
8
0
10
139.425214
20
-66.6786541
40
10
50
220.0000012
51
310.0000012
0
LINE
8
0
10
111.5124297
20
-67.2750576
11
119.6456874
21
-1.0349884
0
LINE
8
0
10
115.9073221
20
1.3405054
11
106.7915957
21
-72.9011284
0
ENDSEC
0
EOF