<svg width="267.359mm" height="138.496mm" viewBox="0 0 267.359 138.496" xmlns="http://www.w3.org/2000/svg"><g id="svgGroup" stroke-linecap="round" fill-rule="evenodd" font-size="9pt" stroke="#000" stroke-width="0.25mm" fill="none" style="stroke:#000;stroke-width:0.25mm;fill:none"><path d="M 126.855 128.074 L 129.933 126.83 A 10 10 0 0 1 137.425 126.83 L 140.504 128.074 L 146.252 134.924 A 10 10 0 0 0 160.34 136.157 L 203.239 100.161 A 10 10 0 0 0 204.472 86.072 L 200.218 81.004 A 10 10 0 0 1 207.797 73.815 L 209.754 73.399 L 208.298 66.552 L 220.036 64.057 L 221.076 68.948 L 230.333 66.98 L 230.53 68.591 L 240.456 67.372 L 241.553 76.305 L 267.359 73.137 L 259.559 9.614 L 245.631 11.324 L 244.854 7.665 L 235.072 9.744 L 233.201 0.94 L 214.616 4.891 L 213.577 0 L 188.145 5.406 L 189.6 12.253 L 171.015 16.203 L 171.431 18.159 L 152.846 22.11 L 157.384 43.457 A 10 10 0 0 0 156.315 44.239 L 134.133 62.853 L 126 129.093 L 126.855 128.074 Z M 0 73.137 L 25.806 76.305 L 26.903 67.372 L 36.828 68.591 L 37.026 66.98 L 46.283 68.948 L 47.323 64.057 L 59.061 66.552 L 57.605 73.399 L 59.562 73.815 A 10 10 0 0 1 67.141 81.004 L 62.887 86.072 A 10 10 0 0 0 64.12 100.161 L 107.018 136.157 A 10 10 0 0 0 121.107 134.924 L 121.279 134.719 L 130.395 60.477 L 111.043 44.239 A 10 10 0 0 0 109.975 43.457 L 114.512 22.11 L 95.928 18.159 L 96.343 16.203 L 77.759 12.253 L 79.214 5.406 L 53.782 0 L 52.743 4.891 L 34.158 0.94 L 32.287 9.744 L 22.505 7.665 L 21.727 11.324 L 7.8 9.614 L 0 73.137 Z M 14.765 18.529 m -1.1 0 a 1.1 1.1 0 0 1 2.2 0 a 1.1 1.1 0 0 1 -2.2 0 z M 8.915 66.171 m -1.1 0 a 1.1 1.1 0 0 1 2.2 0 a 1.1 1.1 0 0 1 -2.2 0 z M 105.024 28.272 m -1.1 0 a 1.1 1.1 0 0 1 2.2 0 a 1.1 1.1 0 0 1 -2.2 0 z M 95.044 75.223 m -1.1 0 a 1.1 1.1 0 0 1 2.2 0 a 1.1 1.1 0 0 1 -2.2 0 z M 64.835 10.528 m -1.1 0 a 1.1 1.1 0 0 1 2.2 0 a 1.1 1.1 0 0 1 -2.2 0 z M 79.356 91.313 m -1.1 0 a 1.1 1.1 0 0 1 2.2 0 a 1.1 1.1 0 0 1 -2.2 0 z M 71.984 68.276 m -1.1 0 a 1.1 1.1 0 0 1 2.2 0 a 1.1 1.1 0 0 1 -2.2 0 z M 133.679 122.535 L 132.972 120.784 L 133.679 119.941 L 134.387 120.784 L 133.679 122.535 Z" vector-effect="non-scaling-stroke"/></g></svg>