0
SECTION
2
HEADER
9
$INSUNITS
70
4
0
ENDSEC
0
SECTION
2
TABLES
0
TABLE
2
LTYPE
0
LTYPE
72
65
70
64
2
CONTINUOUS
3
______
73
0
40
0
0
ENDTAB
0
TABLE
2
LAYER
0
ENDTAB
0
ENDSEC
0
SECTION
2
ENTITIES
0
LINE
8
0
10
-7.8270415
20
-5.487023
11
6.2671139
21
-7.2175677
0
LINE
8
0
10
6.2671139
20
-7.2175677
11
7.8270415
21
5.487023
0
LINE
8
0
10
7.8270415
20
5.487023
11
-6.2671139
21
7.2175677
0
LINE
8
0
10
-6.2671139
20
7.2175677
11
-7.8270415
21
-5.487023
0
LINE
8
0
10
-5.511524
20
13.3713538
11
8.5826314
21
11.6408091
0
LINE
8
0
10
8.5826314
20
11.6408091
11
10.142559
21
24.3453998
0
LINE
8
0
10
10.142559
20
24.3453998
11
-3.9515964
21
26.0759445
0
LINE
8
0
10
-3.9515964
20
26.0759445
11
-5.511524
21
13.3713538
0
LINE
8
0
10
-3.1960064
20
32.2297307
11
10.898149
21
30.499186
0
LINE
8
0
10
10.898149
20
30.499186
11
12.4580766
21
43.2037767
0
LINE
8
0
10
12.4580766
20
43.2037767
11
-1.6360788
21
44.9343214
0
LINE
8
0
10
-1.6360788
20
44.9343214
11
-3.1960064
21
32.2297307
0
LINE
8
0
10
13.5073482
20
3.504984
11
27.3970441
21
0.552638
0
LINE
8
0
10
27.3970441
20
0.552638
11
30.0583138
21
13.0729272
0
LINE
8
0
10
30.0583138
20
13.0729272
11
16.1686179
21
16.0252732
0
LINE
8
0
10
16.1686179
20
16.0252732
11
13.5073482
21
3.504984
0
LINE
8
0
10
17.4576704
20
22.0897884
11
31.3473663
21
19.1374424
0
LINE
8
0
10
31.3473663
20
19.1374424
11
34.008636
21
31.6577316
0
LINE
8
0
10
34.008636
20
31.6577316
11
20.1189401
21
34.6100776
0
LINE
8
0
10
20.1189401
20
34.6100776
11
17.4576704
21
22.0897884
0
LINE
8
0
10
21.4079925
20
40.6745928
11
35.2976884
21
37.7222468
0
LINE
8
0
10
35.2976884
20
37.7222468
11
37.9589581
21
50.242536
0
LINE
8
0
10
37.9589581
20
50.242536
11
24.0692622
21
53.194882
0
LINE
8
0
10
24.0692622
20
53.194882
11
21.4079925
21
40.6745928
0
LINE
8
0
10
33.131711
20
4.4453999
11
47.0214069
21
1.4930539
0
LINE
8
0
10
47.0214069
20
1.4930539
11
49.6826766
21
14.0133431
0
LINE
8
0
10
49.6826766
20
14.0133431
11
35.7929807
21
16.9656891
0
LINE
8
0
10
35.7929807
20
16.9656891
11
33.131711
21
4.4453999
0
LINE
8
0
10
37.0820332
20
23.0302043
11
50.9717291
21
20.0778583
0
LINE
8
0
10
50.9717291
20
20.0778583
11
53.6329988
21
32.5981475
0
LINE
8
0
10
53.6329988
20
32.5981475
11
39.7433029
21
35.5504935
0
LINE
8
0
10
39.7433029
20
35.5504935
11
37.0820332
21
23.0302043
0
LINE
8
0
10
41.0323553
20
41.6150087
11
54.9220512
21
38.6626627
0
LINE
8
0
10
54.9220512
20
38.6626627
11
57.5833209
21
51.1829519
0
LINE
8
0
10
57.5833209
20
51.1829519
11
43.693625
21
54.1352979
0
LINE
8
0
10
43.693625
20
54.1352979
11
41.0323553
21
41.6150087
0
LINE
8
0
10
50.2611336
20
-6.3519554
11
64.1508295
21
-9.3043014
0
LINE
8
0
10
64.1508295
20
-9.3043014
11
66.8120992
21
3.2159878
0
LINE
8
0
10
66.8120992
20
3.2159878
11
52.9224033
21
6.1683338
0
LINE
8
0
10
52.9224033
20
6.1683338
11
50.2611336
21
-6.3519554
0
LINE
8
0
10
54.2114557
20
12.232849
11
68.1011516
21
9.280503
0
LINE
8
0
10
68.1011516
20
9.280503
11
70.7624213
21
21.8007922
0
LINE
8
0
10
70.7624213
20
21.8007922
11
56.8727254
21
24.7531382
0
LINE
8
0
10
56.8727254
20
24.7531382
11
54.2114557
21
12.232849
0
LINE
8
0
10
58.1617779
20
30.8176534
11
72.0514738
21
27.8653074
0
LINE
8
0
10
72.0514738
20
27.8653074
11
74.7127435
21
40.3855966
0
LINE
8
0
10
74.7127435
20
40.3855966
11
60.8230476
21
43.3379426
0
LINE
8
0
10
60.8230476
20
43.3379426
11
58.1617779
21
30.8176534
0
LINE
8
0
10
68.4301147
20
-12.2585728
11
82.3198106
21
-15.2109188
0
LINE
8
0
10
82.3198106
20
-15.2109188
11
84.9810803
21
-2.6906296
0
LINE
8
0
10
84.9810803
20
-2.6906296
11
71.0913844
21
0.2617164
0
LINE
8
0
10
71.0913844
20
0.2617164
11
68.4301147
21
-12.2585728
0
LINE
8
0
10
72.3804368
20
6.3262316
11
86.2701327
21
3.3738856
0
LINE
8
0
10
86.2701327
20
3.3738856
11
88.9314024
21
15.8941748
0
LINE
8
0
10
88.9314024
20
15.8941748
11
75.0417065
21
18.8465208
0
LINE
8
0
10
75.0417065
20
18.8465208
11
72.3804368
21
6.3262316
0
LINE
8
0
10
76.330759
20
24.911036
11
90.2204549
21
21.95869
0
LINE
8
0
10
90.2204549
20
21.95869
11
92.8817246
21
34.4789792
0
LINE
8
0
10
92.8817246
20
34.4789792
11
78.9920287
21
37.4313252
0
LINE
8
0
10
78.9920287
20
37.4313252
11
76.330759
21
24.911036
0
LINE
8
0
10
57.6327593
20
-29.3879953
11
71.5224552
21
-32.3403413
0
LINE
8
0
10
71.5224552
20
-32.3403413
11
74.1837249
21
-19.8200521
0
LINE
8
0
10
74.1837249
20
-19.8200521
11
60.294029
21
-16.8677061
0
LINE
8
0
10
60.294029
20
-16.8677061
11
57.6327593
21
-29.3879953
0
LINE
8
0
10
78.5627937
20
-36.3797601
11
89.4406247
21
-45.5073442
0
LINE
8
0
10
89.4406247
20
-45.5073442
11
97.6683061
21
-35.7019753
0
LINE
8
0
10
97.6683061
20
-35.7019753
11
86.7904751
21
-26.5743912
0
LINE
8
0
10
86.7904751
20
-26.5743912
11
78.5627937
21
-36.3797601
0
LINE
8
0
10
94.6412173
20
-51.7392861
11
99.9606309
21
-64.9052969
0
LINE
8
0
10
99.9606309
20
-64.9052969
11
111.8285843
21
-60.1103325
0
LINE
8
0
10
111.8285843
20
-60.1103325
11
106.5091707
21
-46.9443217
0
LINE
8
0
10
106.5091707
20
-46.9443217
11
94.6412173
21
-51.7392861
0
LINE
8
0
10
222.1168989
20
-7.2175677
11
236.2110543
21
-5.487023
0
LINE
8
0
10
236.2110543
20
-5.487023
11
234.6511267
21
7.2175677
0
LINE
8
0
10
234.6511267
20
7.2175677
11
220.5569713
21
5.487023
0
LINE
8
0
10
220.5569713
20
5.487023
11
222.1168989
21
-7.2175677
0
LINE
8
0
10
219.8013814
20
11.6408091
11
233.8955368
21
13.3713538
0
LINE
8
0
10
233.8955368
20
13.3713538
11
232.3356092
21
26.0759445
0
LINE
8
0
10
232.3356092
20
26.0759445
11
218.2414538
21
24.3453998
0
LINE
8
0
10
218.2414538
20
24.3453998
11
219.8013814
21
11.6408091
0
LINE
8
0
10
217.4858638
20
30.499186
11
231.5800192
21
32.2297307
0
LINE
8
0
10
231.5800192
20
32.2297307
11
230.0200916
21
44.9343214
0
LINE
8
0
10
230.0200916
20
44.9343214
11
215.9259362
21
43.2037767
0
LINE
8
0
10
215.9259362
20
43.2037767
11
217.4858638
21
30.499186
0
LINE
8
0
10
200.9869687
20
0.552638
11
214.8766646
21
3.504984
0
LINE
8
0
10
214.8766646
20
3.504984
11
212.2153949
21
16.0252732
0
LINE
8
0
10
212.2153949
20
16.0252732
11
198.325699
21
13.0729272
0
LINE
8
0
10
198.325699
20
13.0729272
11
200.9869687
21
0.552638
0
LINE
8
0
10
197.0366465
20
19.1374424
11
210.9263424
21
22.0897884
0
LINE
8
0
10
210.9263424
20
22.0897884
11
208.2650727
21
34.6100776
0
LINE
8
0
10
208.2650727
20
34.6100776
11
194.3753768
21
31.6577316
0
LINE
8
0
10
194.3753768
20
31.6577316
11
197.0366465
21
19.1374424
0
LINE
8
0
10
193.0863244
20
37.7222468
11
206.9760203
21
40.6745928
0
LINE
8
0
10
206.9760203
20
40.6745928
11
204.3147506
21
53.194882
0
LINE
8
0
10
204.3147506
20
53.194882
11
190.4250547
21
50.242536
0
LINE
8
0
10
190.4250547
20
50.242536
11
193.0863244
21
37.7222468
0
LINE
8
0
10
181.3626059
20
1.4930539
11
195.2523018
21
4.4453999
0
LINE
8
0
10
195.2523018
20
4.4453999
11
192.5910321
21
16.9656891
0
LINE
8
0
10
192.5910321
20
16.9656891
11
178.7013362
21
14.0133431
0
LINE
8
0
10
178.7013362
20
14.0133431
11
181.3626059
21
1.4930539
0
LINE
8
0
10
177.4122837
20
20.0778583
11
191.3019796
21
23.0302043
0
LINE
8
0
10
191.3019796
20
23.0302043
11
188.6407099
21
35.5504935
0
LINE
8
0
10
188.6407099
20
35.5504935
11
174.751014
21
32.5981475
0
LINE
8
0
10
174.751014
20
32.5981475
11
177.4122837
21
20.0778583
0
LINE
8
0
10
173.4619616
20
38.6626627
11
187.3516575
21
41.6150087
0
LINE
8
0
10
187.3516575
20
41.6150087
11
184.6903878
21
54.1352979
0
LINE
8
0
10
184.6903878
20
54.1352979
11
170.8006919
21
51.1829519
0
LINE
8
0
10
170.8006919
20
51.1829519
11
173.4619616
21
38.6626627
0
LINE
8
0
10
164.2331833
20
-9.3043014
11
178.1228792
21
-6.3519554
0
LINE
8
0
10
178.1228792
20
-6.3519554
11
175.4616095
21
6.1683338
0
LINE
8
0
10
175.4616095
20
6.1683338
11
161.5719136
21
3.2159878
0
LINE
8
0
10
161.5719136
20
3.2159878
11
164.2331833
21
-9.3043014
0
LINE
8
0
10
160.2828612
20
9.280503
11
174.1725571
21
12.232849
0
LINE
8
0
10
174.1725571
20
12.232849
11
171.5112874
21
24.7531382
0
LINE
8
0
10
171.5112874
20
24.7531382
11
157.6215915
21
21.8007922
0
LINE
8
0
10
157.6215915
20
21.8007922
11
160.2828612
21
9.280503
0
LINE
8
0
10
156.332539
20
27.8653074
11
170.2222349
21
30.8176534
0
LINE
8
0
10
170.2222349
20
30.8176534
11
167.5609652
21
43.3379426
0
LINE
8
0
10
167.5609652
20
43.3379426
11
153.6712693
21
40.3855966
0
LINE
8
0
10
153.6712693
20
40.3855966
11
156.332539
21
27.8653074
0
LINE
8
0
10
146.0642022
20
-15.2109188
11
159.9538981
21
-12.2585728
0
LINE
8
0
10
159.9538981
20
-12.2585728
11
157.2926284
21
0.2617164
0
LINE
8
0
10
157.2926284
20
0.2617164
11
143.4029325
21
-2.6906296
0
LINE
8
0
10
143.4029325
20
-2.6906296
11
146.0642022
21
-15.2109188
0
LINE
8
0
10
142.1138801
20
3.3738856
11
156.003576
21
6.3262316
0
LINE
8
0
10
156.003576
20
6.3262316
11
153.3423063
21
18.8465208
0
LINE
8
0
10
153.3423063
20
18.8465208
11
139.4526104
21
15.8941748
0
LINE
8
0
10
139.4526104
20
15.8941748
11
142.1138801
21
3.3738856
0
LINE
8
0
10
138.1635579
20
21.95869
11
152.0532538
21
24.911036
0
LINE
8
0
10
152.0532538
20
24.911036
11
149.3919841
21
37.4313252
0
LINE
8
0
10
149.3919841
20
37.4313252
11
135.5022882
21
34.4789792
0
LINE
8
0
10
135.5022882
20
34.4789792
11
138.1635579
21
21.95869
0
LINE
8
0
10
156.8615576
20
-32.3403413
11
170.7512535
21
-29.3879953
0
LINE
8
0
10
170.7512535
20
-29.3879953
11
168.0899838
21
-16.8677061
0
LINE
8
0
10
168.0899838
20
-16.8677061
11
154.2002879
21
-19.8200521
0
LINE
8
0
10
154.2002879
20
-19.8200521
11
156.8615576
21
-32.3403413
0
LINE
8
0
10
138.9433881
20
-45.5073442
11
149.8212191
21
-36.3797601
0
LINE
8
0
10
149.8212191
20
-36.3797601
11
141.5935377
21
-26.5743912
0
LINE
8
0
10
141.5935377
20
-26.5743912
11
130.7157067
21
-35.7019753
0
LINE
8
0
10
130.7157067
20
-35.7019753
11
138.9433881
21
-45.5073442
0
LINE
8
0
10
128.4233819
20
-64.9052969
11
133.7427955
21
-51.7392861
0
LINE
8
0
10
133.7427955
20
-51.7392861
11
121.8748421
21
-46.9443217
0
LINE
8
0
10
121.8748421
20
-46.9443217
11
116.5554285
21
-60.1103325
0
LINE
8
0
10
116.5554285
20
-60.1103325
11
128.4233819
21
-64.9052969
0
ENDSEC
0
EOF