<svg width="254.038mm" height="119.041mm" viewBox="0 0 254.038 119.041" xmlns="http://www.w3.org/2000/svg"><g id="svgGroup" stroke-linecap="round" fill-rule="evenodd" font-size="9pt" stroke="#000" stroke-width="0.25mm" fill="none" style="stroke:#000;stroke-width:0.25mm;fill:none"><path d="M 102.468 105.875 L 107.788 119.041 L 119.656 114.246 L 114.336 101.08 L 102.468 105.875 Z M 146.25 119.041 L 151.57 105.875 L 139.702 101.08 L 134.382 114.246 L 146.25 119.041 Z M 235.313 23.636 L 249.407 21.906 L 247.847 9.201 L 233.753 10.932 L 235.313 23.636 Z M 0 59.622 L 14.094 61.353 L 15.654 48.648 L 1.56 46.918 L 0 59.622 Z M 2.316 40.764 L 16.41 42.494 L 17.97 29.79 L 3.875 28.059 L 2.316 40.764 Z M 239.944 61.353 L 254.038 59.622 L 252.478 46.918 L 238.384 48.648 L 239.944 61.353 Z M 237.628 42.494 L 251.723 40.764 L 250.163 28.059 L 236.068 29.79 L 237.628 42.494 Z M 4.631 21.906 L 18.725 23.636 L 20.285 10.932 L 6.191 9.201 L 4.631 21.906 Z M 156.77 99.643 L 167.648 90.515 L 159.421 80.71 L 148.543 89.837 L 156.77 99.643 Z M 86.39 90.515 L 97.268 99.643 L 105.495 89.837 L 94.618 80.71 L 86.39 90.515 Z M 58.088 60.487 L 71.978 63.44 L 74.639 50.919 L 60.749 47.967 L 58.088 60.487 Z M 214.864 34.998 L 228.753 32.046 L 226.092 19.525 L 212.202 22.478 L 214.864 34.998 Z M 210.913 16.413 L 224.803 13.461 L 222.142 0.94 L 208.252 3.893 L 210.913 16.413 Z M 155.991 32.177 L 169.88 29.224 L 167.219 16.704 L 153.329 19.656 L 155.991 32.177 Z M 174.689 86.476 L 188.578 83.523 L 185.917 71.003 L 172.027 73.955 L 174.689 86.476 Z M 218.814 53.583 L 232.704 50.63 L 230.042 38.11 L 216.153 41.062 L 218.814 53.583 Z M 199.19 52.642 L 213.079 49.69 L 210.418 37.17 L 196.528 40.122 L 199.19 52.642 Z M 182.06 63.44 L 195.95 60.487 L 193.289 47.967 L 179.399 50.919 L 182.06 63.44 Z M 178.11 44.855 L 192 41.902 L 189.338 29.382 L 175.449 32.335 L 178.11 44.855 Z M 163.891 69.346 L 177.781 66.394 L 175.12 53.874 L 161.23 56.826 L 163.891 69.346 Z M 159.941 50.761 L 173.831 47.809 L 171.169 35.289 L 157.28 38.241 L 159.941 50.761 Z M 21.334 50.63 L 35.224 53.583 L 37.885 41.062 L 23.996 38.11 L 21.334 50.63 Z M 40.959 49.69 L 54.848 52.642 L 57.51 40.122 L 43.62 37.17 L 40.959 49.69 Z M 48.859 12.52 L 62.749 15.473 L 65.41 2.952 L 51.521 0 L 48.859 12.52 Z M 80.207 47.809 L 94.097 50.761 L 96.758 38.241 L 82.869 35.289 L 80.207 47.809 Z M 25.285 32.046 L 39.174 34.998 L 41.836 22.478 L 27.946 19.525 L 25.285 32.046 Z M 29.235 13.461 L 43.125 16.413 L 45.786 3.893 L 31.896 0.94 L 29.235 13.461 Z M 65.989 23.318 L 79.879 26.27 L 82.54 13.75 L 68.65 10.797 L 65.989 23.318 Z M 76.257 66.394 L 90.147 69.346 L 92.808 56.826 L 78.918 53.874 L 76.257 66.394 Z M 84.158 29.224 L 98.047 32.177 L 100.709 19.656 L 86.819 16.704 L 84.158 29.224 Z M 65.46 83.523 L 79.349 86.476 L 82.011 73.955 L 68.121 71.003 L 65.46 83.523 Z M 44.909 31.105 L 58.799 34.057 L 61.46 21.537 L 47.57 18.585 L 44.909 31.105 Z M 62.038 41.902 L 75.928 44.855 L 78.589 32.335 L 64.7 29.382 L 62.038 41.902 Z M 191.289 15.473 L 205.179 12.52 L 202.517 0 L 188.628 2.952 L 191.289 15.473 Z M 195.239 34.057 L 209.129 31.105 L 206.468 18.585 L 192.578 21.537 L 195.239 34.057 Z M 174.16 26.27 L 188.049 23.318 L 185.388 10.797 L 171.498 13.75 L 174.16 26.27 Z" vector-effect="non-scaling-stroke"/></g></svg>