0
SECTION
2
HEADER
9
$INSUNITS
70
4
0
ENDSEC
0
SECTION
2
TABLES
0
TABLE
2
LTYPE
0
LTYPE
72
65
70
64
2
CONTINUOUS
3
______
73
0
40
0
0
ENDTAB
0
TABLE
2
LAYER
0
ENDTAB
0
ENDSEC
0
SECTION
2
ENTITIES
0
LINE
8
0
10
91
20
-91
11
109
21
-91
0
LINE
8
0
10
109
20
-91
11
109
21
-109
0
LINE
8
0
10
109
20
-109
11
91
21
-109
0
LINE
8
0
10
91
20
-109
11
91
21
-91
0
LINE
8
0
10
91
20
-72
11
109
21
-72
0
LINE
8
0
10
109
20
-72
11
109
21
-90
0
LINE
8
0
10
109
20
-90
11
91
21
-90
0
LINE
8
0
10
91
20
-90
11
91
21
-72
0
LINE
8
0
10
91
20
-53
11
109
21
-53
0
LINE
8
0
10
109
20
-53
11
109
21
-71
0
LINE
8
0
10
109
20
-71
11
91
21
-71
0
LINE
8
0
10
91
20
-71
11
91
21
-53
0
LINE
8
0
10
109
20
-89
11
127
21
-89
0
LINE
8
0
10
127
20
-89
11
127
21
-107
0
LINE
8
0
10
127
20
-107
11
109
21
-107
0
LINE
8
0
10
109
20
-107
11
109
21
-89
0
LINE
8
0
10
109
20
-70
11
127
21
-70
0
LINE
8
0
10
127
20
-70
11
127
21
-88
0
LINE
8
0
10
127
20
-88
11
109
21
-88
0
LINE
8
0
10
109
20
-88
11
109
21
-70
0
LINE
8
0
10
109
20
-51
11
127
21
-51
0
LINE
8
0
10
127
20
-51
11
127
21
-69
0
LINE
8
0
10
127
20
-69
11
109
21
-69
0
LINE
8
0
10
109
20
-69
11
109
21
-51
0
LINE
8
0
10
127
20
-84
11
145
21
-84
0
LINE
8
0
10
145
20
-84
11
145
21
-102
0
LINE
8
0
10
145
20
-102
11
127
21
-102
0
LINE
8
0
10
127
20
-102
11
127
21
-84
0
LINE
8
0
10
127
20
-65
11
145
21
-65
0
LINE
8
0
10
145
20
-65
11
145
21
-83
0
LINE
8
0
10
145
20
-83
11
127
21
-83
0
LINE
8
0
10
127
20
-83
11
127
21
-65
0
LINE
8
0
10
127
20
-46
11
145
21
-46
0
LINE
8
0
10
145
20
-46
11
145
21
-64
0
LINE
8
0
10
145
20
-64
11
127
21
-64
0
LINE
8
0
10
127
20
-64
11
127
21
-46
0
LINE
8
0
10
145
20
-81.5
11
163
21
-81.5
0
LINE
8
0
10
163
20
-81.5
11
163
21
-99.5
0
LINE
8
0
10
163
20
-99.5
11
145
21
-99.5
0
LINE
8
0
10
145
20
-99.5
11
145
21
-81.5
0
LINE
8
0
10
145
20
-62.5
11
163
21
-62.5
0
LINE
8
0
10
163
20
-62.5
11
163
21
-80.5
0
LINE
8
0
10
163
20
-80.5
11
145
21
-80.5
0
LINE
8
0
10
145
20
-80.5
11
145
21
-62.5
0
LINE
8
0
10
145
20
-43.5
11
163
21
-43.5
0
LINE
8
0
10
163
20
-43.5
11
163
21
-61.5
0
LINE
8
0
10
163
20
-61.5
11
145
21
-61.5
0
LINE
8
0
10
145
20
-61.5
11
145
21
-43.5
0
LINE
8
0
10
163
20
-84
11
181
21
-84
0
LINE
8
0
10
181
20
-84
11
181
21
-102
0
LINE
8
0
10
181
20
-102
11
163
21
-102
0
LINE
8
0
10
163
20
-102
11
163
21
-84
0
LINE
8
0
10
163
20
-65
11
181
21
-65
0
LINE
8
0
10
181
20
-65
11
181
21
-83
0
LINE
8
0
10
181
20
-83
11
163
21
-83
0
LINE
8
0
10
163
20
-83
11
163
21
-65
0
LINE
8
0
10
163
20
-46
11
181
21
-46
0
LINE
8
0
10
181
20
-46
11
181
21
-64
0
LINE
8
0
10
181
20
-64
11
163
21
-64
0
LINE
8
0
10
163
20
-64
11
163
21
-46
0
LINE
8
0
10
160.6995638
20
-102.5738966
11
178.4261034
21
-105.6995638
0
LINE
8
0
10
178.4261034
20
-105.6995638
11
175.3004362
21
-123.4261034
0
LINE
8
0
10
175.3004362
20
-123.4261034
11
157.5738966
21
-120.3004362
0
LINE
8
0
10
157.5738966
20
-120.3004362
11
160.6995638
21
-102.5738966
0
LINE
8
0
10
180.3474873
20
-104.5902523
11
197.2619545
21
-110.7466149
0
LINE
8
0
10
197.2619545
20
-110.7466149
11
191.1055919
21
-127.6610821
0
LINE
8
0
10
191.1055919
20
-127.6610821
11
174.1911247
21
-121.5047195
0
LINE
8
0
10
174.1911247
20
-121.5047195
11
180.3474873
21
-104.5902523
0
LINE
8
0
10
199.3467781
20
-109.9878012
11
214.9352353
21
-118.9878012
0
LINE
8
0
10
214.9352353
20
-118.9878012
11
205.9352353
21
-134.5762584
0
LINE
8
0
10
205.9352353
20
-134.5762584
11
190.3467781
21
-125.5762584
0
LINE
8
0
10
190.3467781
20
-125.5762584
11
199.3467781
21
-109.9878012
0
LINE
8
0
10
257
20
-91
11
275
21
-91
0
LINE
8
0
10
275
20
-91
11
275
21
-109
0
LINE
8
0
10
275
20
-109
11
257
21
-109
0
LINE
8
0
10
257
20
-109
11
257
21
-91
0
LINE
8
0
10
257
20
-72
11
275
21
-72
0
LINE
8
0
10
275
20
-72
11
275
21
-90
0
LINE
8
0
10
275
20
-90
11
257
21
-90
0
LINE
8
0
10
257
20
-90
11
257
21
-72
0
LINE
8
0
10
257
20
-53
11
275
21
-53
0
LINE
8
0
10
275
20
-53
11
275
21
-71
0
LINE
8
0
10
275
20
-71
11
257
21
-71
0
LINE
8
0
10
257
20
-71
11
257
21
-53
0
LINE
8
0
10
239
20
-89
11
257
21
-89
0
LINE
8
0
10
257
20
-89
11
257
21
-107
0
LINE
8
0
10
257
20
-107
11
239
21
-107
0
LINE
8
0
10
239
20
-107
11
239
21
-89
0
LINE
8
0
10
239
20
-70
11
257
21
-70
0
LINE
8
0
10
257
20
-70
11
257
21
-88
0
LINE
8
0
10
257
20
-88
11
239
21
-88
0
LINE
8
0
10
239
20
-88
11
239
21
-70
0
LINE
8
0
10
239
20
-51
11
257
21
-51
0
LINE
8
0
10
257
20
-51
11
257
21
-69
0
LINE
8
0
10
257
20
-69
11
239
21
-69
0
LINE
8
0
10
239
20
-69
11
239
21
-51
0
LINE
8
0
10
221
20
-84
11
239
21
-84
0
LINE
8
0
10
239
20
-84
11
239
21
-102
0
LINE
8
0
10
239
20
-102
11
221
21
-102
0
LINE
8
0
10
221
20
-102
11
221
21
-84
0
LINE
8
0
10
221
20
-65
11
239
21
-65
0
LINE
8
0
10
239
20
-65
11
239
21
-83
0
LINE
8
0
10
239
20
-83
11
221
21
-83
0
LINE
8
0
10
221
20
-83
11
221
21
-65
0
LINE
8
0
10
221
20
-46
11
239
21
-46
0
LINE
8
0
10
239
20
-46
11
239
21
-64
0
LINE
8
0
10
239
20
-64
11
221
21
-64
0
LINE
8
0
10
221
20
-64
11
221
21
-46
0
LINE
8
0
10
203
20
-81.5
11
221
21
-81.5
0
LINE
8
0
10
221
20
-81.5
11
221
21
-99.5
0
LINE
8
0
10
221
20
-99.5
11
203
21
-99.5
0
LINE
8
0
10
203
20
-99.5
11
203
21
-81.5
0
LINE
8
0
10
203
20
-62.5
11
221
21
-62.5
0
LINE
8
0
10
221
20
-62.5
11
221
21
-80.5
0
LINE
8
0
10
221
20
-80.5
11
203
21
-80.5
0
LINE
8
0
10
203
20
-80.5
11
203
21
-62.5
0
LINE
8
0
10
203
20
-43.5
11
221
21
-43.5
0
LINE
8
0
10
221
20
-43.5
11
221
21
-61.5
0
LINE
8
0
10
221
20
-61.5
11
203
21
-61.5
0
LINE
8
0
10
203
20
-61.5
11
203
21
-43.5
0
LINE
8
0
10
185
20
-84
11
203
21
-84
0
LINE
8
0
10
203
20
-84
11
203
21
-102
0
LINE
8
0
10
203
20
-102
11
185
21
-102
0
LINE
8
0
10
185
20
-102
11
185
21
-84
0
LINE
8
0
10
185
20
-65
11
203
21
-65
0
LINE
8
0
10
203
20
-65
11
203
21
-83
0
LINE
8
0
10
203
20
-83
11
185
21
-83
0
LINE
8
0
10
185
20
-83
11
185
21
-65
0
LINE
8
0
10
185
20
-46
11
203
21
-46
0
LINE
8
0
10
203
20
-46
11
203
21
-64
0
LINE
8
0
10
203
20
-64
11
185
21
-64
0
LINE
8
0
10
185
20
-64
11
185
21
-46
0
LINE
8
0
10
187.5738966
20
-105.6995638
11
205.3004362
21
-102.5738966
0
LINE
8
0
10
205.3004362
20
-102.5738966
11
208.4261034
21
-120.3004362
0
LINE
8
0
10
208.4261034
20
-120.3004362
11
190.6995638
21
-123.4261034
0
LINE
8
0
10
190.6995638
20
-123.4261034
11
187.5738966
21
-105.6995638
0
LINE
8
0
10
168.7380455
20
-110.7466149
11
185.6525127
21
-104.5902523
0
LINE
8
0
10
185.6525127
20
-104.5902523
11
191.8088753
21
-121.5047195
0
LINE
8
0
10
191.8088753
20
-121.5047195
11
174.8944081
21
-127.6610821
0
LINE
8
0
10
174.8944081
20
-127.6610821
11
168.7380455
21
-110.7466149
0
LINE
8
0
10
151.0647647
20
-118.9878012
11
166.6532219
21
-109.9878012
0
LINE
8
0
10
166.6532219
20
-109.9878012
11
175.6532219
21
-125.5762584
0
LINE
8
0
10
175.6532219
20
-125.5762584
11
160.0647647
21
-134.5762584
0
LINE
8
0
10
160.0647647
20
-134.5762584
11
151.0647647
21
-118.9878012
0
ENDSEC
0
EOF