<svg width="184mm" height="91.076mm" viewBox="0 0 184 91.076" xmlns="http://www.w3.org/2000/svg"><g id="svgGroup" stroke-linecap="round" fill-rule="evenodd" font-size="9pt" stroke="#000" stroke-width="0.25mm" fill="none" style="stroke:#000;stroke-width:0.25mm;fill:none"><path d="M 69.7 59.074 L 87.426 62.2 L 84.3 79.926 L 66.574 76.8 L 69.7 59.074 Z M 96.574 62.2 L 114.3 59.074 L 117.426 76.8 L 99.7 79.926 L 96.574 62.2 Z M 89.347 61.09 L 106.262 67.247 L 100.106 84.161 L 83.191 78.005 L 89.347 61.09 Z M 77.738 67.247 L 94.653 61.09 L 100.809 78.005 L 83.894 84.161 L 77.738 67.247 Z M 0 47.5 L 18 47.5 L 18 65.5 L 0 65.5 L 0 47.5 Z M 0 28.5 L 18 28.5 L 18 46.5 L 0 46.5 L 0 28.5 Z M 0 9.5 L 18 9.5 L 18 27.5 L 0 27.5 L 0 9.5 Z M 18 45.5 L 36 45.5 L 36 63.5 L 18 63.5 L 18 45.5 Z M 18 26.5 L 36 26.5 L 36 44.5 L 18 44.5 L 18 26.5 Z M 18 7.5 L 36 7.5 L 36 25.5 L 18 25.5 L 18 7.5 Z M 36 40.5 L 54 40.5 L 54 58.5 L 36 58.5 L 36 40.5 Z M 36 21.5 L 54 21.5 L 54 39.5 L 36 39.5 L 36 21.5 Z M 36 2.5 L 54 2.5 L 54 20.5 L 36 20.5 L 36 2.5 Z M 54 38 L 72 38 L 72 56 L 54 56 L 54 38 Z M 54 19 L 72 19 L 72 37 L 54 37 L 54 19 Z M 54 0 L 72 0 L 72 18 L 54 18 L 54 0 Z M 72 40.5 L 90 40.5 L 90 58.5 L 72 58.5 L 72 40.5 Z M 72 21.5 L 90 21.5 L 90 39.5 L 72 39.5 L 72 21.5 Z M 72 2.5 L 90 2.5 L 90 20.5 L 72 20.5 L 72 2.5 Z M 166 47.5 L 184 47.5 L 184 65.5 L 166 65.5 L 166 47.5 Z M 166 28.5 L 184 28.5 L 184 46.5 L 166 46.5 L 166 28.5 Z M 166 9.5 L 184 9.5 L 184 27.5 L 166 27.5 L 166 9.5 Z M 148 45.5 L 166 45.5 L 166 63.5 L 148 63.5 L 148 45.5 Z M 148 26.5 L 166 26.5 L 166 44.5 L 148 44.5 L 148 26.5 Z M 148 7.5 L 166 7.5 L 166 25.5 L 148 25.5 L 148 7.5 Z M 130 40.5 L 148 40.5 L 148 58.5 L 130 58.5 L 130 40.5 Z M 130 21.5 L 148 21.5 L 148 39.5 L 130 39.5 L 130 21.5 Z M 130 2.5 L 148 2.5 L 148 20.5 L 130 20.5 L 130 2.5 Z M 112 38 L 130 38 L 130 56 L 112 56 L 112 38 Z M 112 19 L 130 19 L 130 37 L 112 37 L 112 19 Z M 112 0 L 130 0 L 130 18 L 112 18 L 112 0 Z M 94 40.5 L 112 40.5 L 112 58.5 L 94 58.5 L 94 40.5 Z M 94 21.5 L 112 21.5 L 112 39.5 L 94 39.5 L 94 21.5 Z M 94 2.5 L 112 2.5 L 112 20.5 L 94 20.5 L 94 2.5 Z M 108.347 66.488 L 123.935 75.488 L 114.935 91.076 L 99.347 82.076 L 108.347 66.488 Z M 60.065 75.488 L 75.653 66.488 L 84.653 82.076 L 69.065 91.076 L 60.065 75.488 Z" vector-effect="non-scaling-stroke"/></g></svg>